<svg xmlns="http://www.w3.org/2000/svg" viewBox="0 0 498.9 497.76">
    <defs>
        <style>.f1eb5d6a-958b-48c8-949f-4912caa59b47{fill:#ff7200;}.a75cd25f-b6ec-49b7-a0ef-1998d491e2d3{fill:#222;}
        </style>
    </defs>
    <title>add_post</title>
    <g id="b6390696-6155-408b-b28d-25968ed2bdc8" data-name="Ebene 1">
        <ellipse class="f1eb5d6a-958b-48c8-949f-4912caa59b47" cx="249.45" cy="248.88" rx="249.45" ry="248.88"/>
    </g>
    <g id="a21ded3c-7073-463b-a0c3-b865f91bd475" data-name="Ebene 2">
        <path class="a75cd25f-b6ec-49b7-a0ef-1998d491e2d3"
              d="M220.73,133.2l-.29,78.27L220,336.08l-.11,28.43c-.06,15.7,13.84,30.73,30,30s29.94-13.18,30-30l.3-78.26.47-124.62.1-28.43c.06-15.69-13.84-30.72-30-30s-29.93,13.19-30,30Z"
              transform="translate(-1.11 -0.54)"/>
        <path class="a75cd25f-b6ec-49b7-a0ef-1998d491e2d3"
              d="M134.21,279.73H365.08c15.69,0,30.73-13.8,30-30s-13.18-30-30-30H134.21c-15.69,0-30.73,13.8-30,30s13.18,30,30,30Z"
              transform="translate(-1.11 -0.54)"/>
    </g>
</svg>