<svg id="e9a7774a-393c-4a51-a44e-9cd7c1481cd9" data-name="Ebene 2" xmlns="http://www.w3.org/2000/svg"
     viewBox="0 0 437.957 489.697">
    <defs>
        <style>
            #e9a7774a-393c-4a51-a44e-9cd7c1481cd9 * {
                fill: #ff7800;
            }
        </style>
    </defs>
    <title>admin_user_overview</title>
    <path d="M260.066,359.023a151.753,151.753,0,0,1-14.69-7.768q-6.348-3.78-12.377-8.065-1.518-1.079-3.013-2.187c-.694-.514-3.364-2.595-1.428-1.063-2.412-1.909-4.792-3.855-7.11-5.877-21.89-19.083-37.3-42.025-43.4-70.723-4.251-20-2.773-39.995,2.5-59.17,4.105-14.913-19.043-21.276-23.143-6.38-10.321,37.5-6.491,77.89,12.847,111.861,13.91,24.436,34.853,44.517,58.465,59.531a158.034,158.034,0,0,0,19.232,10.564c5.9,2.683,12.914,1.686,16.418-4.305,3.015-5.154,1.622-13.72-4.305-16.418Z"
          transform="translate(-35.317 -5.794)"/>
    <path d="M166.725,212.977c37.233,6.2,95.338-5.014,98.247-51.467.405-6.475-5.806-12-12-12-6.834,0-11.594,5.506-12,12-.158,2.514-.292.986.048.124-.5,1.262-.653,2.888-1.019,4.216-.1.371-1.235,3.247-.174.8-.366.845-.784,1.668-1.221,2.478a24.493,24.493,0,0,1-2.829,4.39c-6.767,7.992-16.036,12.086-25.7,14.53-8.738,2.211-16.183,2.779-25.888,2.55q-4.614-.11-9.212-.556a20.681,20.681,0,0,0-3.143-.357c3.563-.238,2.668.381,1.273.149-6.385-1.063-12.919,1.676-14.761,8.381-1.579,5.747,1.952,13.692,8.381,14.762Z"
          transform="translate(-35.317 -5.794)"/>
    <path d="M253.716,161.625c.215,3.745,1.71,17.761,18.722,28.931,26.149,17.17,64.088,11.282,66,10.964l.557-.7c4.087,14.636,8.126,37.583,2.8,64.109-13.937,69.453-79.418,100.475-87.833,104.3"
          transform="translate(-35.317 -5.794)"/>
    <path d="M241.716,161.625c1.647,25.876,24.081,42.907,47.569,49.232a123.463,123.463,0,0,0,36,3.814c6.685-.226,17.607.38,22.186-5.365l-20.057-5.3c8.872,32.234,5.22,67.107-11.722,95.594a124.714,124.714,0,0,1-11.767,16.671,160.113,160.113,0,0,1-13.41,14.033q-3.5,3.251-7.176,6.3c-1.041.864-2.1,1.7-3.15,2.556-.384.312-1.81,1.4.095-.057q-1.144.876-2.3,1.735-5.923,4.392-12.186,8.3a156.19,156.19,0,0,1-17.894,9.721c-5.9,2.685-7.34,11.231-4.305,16.419,3.546,6.062,10.5,7,16.418,4.305,45.642-20.777,84.482-63.394,93.72-113.4a153.1,153.1,0,0,0-3.176-68.555c-2.194-7.972-14.244-12.589-20.057-5.295l-.557.7,5.3-3.086c-1.467.24-2.1-.438,1.285-.155a18.805,18.805,0,0,0-3.117.35c-3.216.316-6.444.5-9.674.571-9.941.219-17.721-.39-26.688-2.64-9.645-2.421-18.84-6.408-25.742-14.19a25.71,25.71,0,0,1-3.185-4.7c-.147-.267-1.464-2.921-.781-1.424.657,1.44-.351-.945-.45-1.254-.483-1.506-.739-3.056-1.184-4.563-.589-2-.2,2.743.105.908a5.937,5.937,0,0,0-.1-1.222c-.412-6.469-5.221-12-12-12-6.177,0-12.414,5.5-12,12Z"
          transform="translate(-35.317 -5.794)"/>
    <path d="M277.917,53.51c-.182,9.442-6.256,18.849-14.861,22.063A26.463,26.463,0,0,1,255.6,77.2a19.835,19.835,0,0,1-7.707-.82,23.563,23.563,0,0,1-12.244-8.012c-6.023-7.154-6.9-18.345-1.93-26.828,4.93-8.417,15.242-13.129,24.154-11.516a22.93,22.93,0,0,1,14.873,8.629c3.227,3.835,5.068,9.689,5.168,14.857.3,15.425,24.3,15.476,24,0A48.545,48.545,0,0,0,270.058,8.541c-18.074-6.725-40-.759-52.213,14.145C205.16,38.172,202.752,60.1,213,77.594c10.443,17.83,31.2,26.451,51.257,22.545,22.006-4.286,37.239-24.746,37.661-46.629C302.215,38.06,278.215,38.061,277.917,53.51Z"
          transform="translate(-35.317 -5.794)"/>
    <path d="M107.271,152.526c-.182,9.442-6.256,18.849-14.861,22.063a26.491,26.491,0,0,1-7.453,1.627,19.837,19.837,0,0,1-7.707-.82,23.569,23.569,0,0,1-12.244-8.012c-6.023-7.154-6.9-18.346-1.93-26.828,4.93-8.417,15.242-13.129,24.154-11.516a22.926,22.926,0,0,1,14.873,8.628c3.227,3.836,5.069,9.69,5.168,14.858.3,15.424,24.3,15.476,24,0a48.546,48.546,0,0,0-31.859-44.97c-18.073-6.724-40-.758-52.213,14.146-12.685,15.486-15.092,37.415-4.846,54.908,10.444,17.83,31.2,26.451,51.257,22.545,22.007-4.286,37.24-24.746,37.661-46.629C131.569,137.076,107.569,137.076,107.271,152.526Z"
          transform="translate(-35.317 -5.794)"/>
    <path d="M106.626,349.833c-.182,9.442-6.257,18.849-14.861,22.063a26.505,26.505,0,0,1-7.453,1.627,19.842,19.842,0,0,1-7.708-.82,23.571,23.571,0,0,1-12.243-8.012c-6.023-7.154-6.9-18.345-1.93-26.828,4.93-8.417,15.241-13.129,24.153-11.516a22.925,22.925,0,0,1,14.874,8.629c3.227,3.835,5.068,9.689,5.168,14.857.3,15.425,24.3,15.476,24,0a48.545,48.545,0,0,0-31.859-44.969c-18.074-6.725-40-.759-52.213,14.145-12.685,15.486-15.093,37.415-4.847,54.908,10.444,17.83,31.2,26.451,51.258,22.545,22.006-4.286,37.239-24.746,37.661-46.629C130.923,334.383,106.923,334.383,106.626,349.833Z"
          transform="translate(-35.317 -5.794)"/>
    <path d="M277.059,447.936c-.182,9.442-6.257,18.848-14.861,22.063a26.5,26.5,0,0,1-7.453,1.626,19.842,19.842,0,0,1-7.708-.82,23.565,23.565,0,0,1-12.243-8.012c-6.023-7.154-6.9-18.345-1.93-26.828,4.93-8.417,15.241-13.128,24.154-11.515a22.924,22.924,0,0,1,14.873,8.628c3.227,3.835,5.068,9.69,5.168,14.858.3,15.424,24.3,15.475,24,0a48.545,48.545,0,0,0-31.859-44.97c-18.074-6.724-40-.759-52.213,14.145-12.685,15.486-15.093,37.415-4.847,54.908,10.444,17.83,31.2,26.452,51.258,22.545,22.006-4.286,37.239-24.746,37.661-46.628C301.356,432.486,277.356,432.486,277.059,447.936Z"
          transform="translate(-35.317 -5.794)"/>
    <path d="M449.271,350.243c-.182,9.442-6.256,18.848-14.861,22.063a26.484,26.484,0,0,1-7.453,1.626,19.837,19.837,0,0,1-7.707-.82,23.563,23.563,0,0,1-12.244-8.012c-6.023-7.154-6.9-18.345-1.93-26.828,4.93-8.417,15.242-13.128,24.154-11.515a22.926,22.926,0,0,1,14.873,8.628c3.227,3.835,5.069,9.69,5.168,14.858.3,15.424,24.3,15.475,24,0a48.544,48.544,0,0,0-31.859-44.97c-18.073-6.724-40-.759-52.213,14.146-12.685,15.485-15.092,37.414-4.846,54.907,10.444,17.83,31.2,26.452,51.257,22.545,22.007-4.285,37.24-24.746,37.661-46.628C473.569,334.793,449.569,334.793,449.271,350.243Z"
          transform="translate(-35.317 -5.794)"/>
    <path d="M448.484,152.258c-.182,9.442-6.256,18.849-14.861,22.063a26.463,26.463,0,0,1-7.453,1.627,19.835,19.835,0,0,1-7.707-.82,23.563,23.563,0,0,1-12.244-8.012c-6.023-7.154-6.9-18.345-1.93-26.828,4.93-8.417,15.242-13.129,24.154-11.516a22.93,22.93,0,0,1,14.873,8.629c3.227,3.835,5.068,9.689,5.168,14.857.3,15.425,24.3,15.476,24,0a48.545,48.545,0,0,0-31.859-44.969c-18.074-6.725-40-.759-52.213,14.145-12.685,15.486-15.093,37.415-4.846,54.908,10.443,17.83,31.2,26.451,51.257,22.545,22.006-4.286,37.239-24.746,37.661-46.629C472.782,136.808,448.782,136.809,448.484,152.258Z"
          transform="translate(-35.317 -5.794)"/>
    <path d="M122.493,143.951l93.075-54.035,13.366-7.76c13.352-7.752,1.283-28.5-12.113-20.724l-93.074,54.035-13.367,7.76c-13.352,7.752-1.283,28.5,12.113,20.724Z"
          transform="translate(-35.317 -5.794)"/>
    <path d="M94.988,309.479V188.156c0-15.443-24-15.468-24,0V309.479c0,15.443,24,15.468,24,0Z"
          transform="translate(-35.317 -5.794)"/>
    <path d="M387.325,358.078l-91.283,52.835-13.032,7.543c-13.363,7.734-1.293,28.482,12.113,20.723l91.283-52.835,13.032-7.543c13.363-7.734,1.293-28.482-12.113-20.723Z"
          transform="translate(-35.317 -5.794)"/>
    <path d="M399.107,123.905,304.655,69.47l-13.264-7.644c-13.406-7.726-25.506,13.005-12.113,20.723l94.453,54.435,13.263,7.644c13.406,7.726,25.506-13,12.113-20.723Z"
          transform="translate(-35.317 -5.794)"/>
    <path d="M412.767,187.975l-.2,23.709c-.134,15.447,23.866,15.461,24,0l.2-23.709c.134-15.447-23.866-15.462-24,0Z"
          transform="translate(-35.317 -5.794)"/>
    <path d="M412.838,290.888l-.2,23.709c-.134,15.447,23.866,15.462,24,0l.2-23.709c.134-15.447-23.866-15.461-24,0Z"
          transform="translate(-35.317 -5.794)"/>
    <circle cx="389.387" cy="245.716" r="7.37"/>
    <path d="M426.074,251.51a1.37,1.37,0,0,1-2.74,0,1.37,1.37,0,0,1,2.74,0c.414,7.682,12.417,7.73,12,0-.389-7.236-5.821-13.37-13.37-13.37a13.362,13.362,0,0,0-.4,26.719c7.7.343,13.377-6.027,13.771-13.349C438.49,243.793,426.489,243.816,426.074,251.51Z"
          transform="translate(-35.317 -5.794)"/>
    <path d="M107.945,378.63l20.089,11.808a12,12,0,1,0,12.113-20.723l-20.089-11.809a12,12,0,0,0-12.113,20.724Z"
          transform="translate(-35.317 -5.794)"/>
    <path d="M195.615,429.071,215.7,440.88a12,12,0,1,0,12.113-20.723l-20.088-11.809a12,12,0,1,0-12.114,20.723Z"
          transform="translate(-35.317 -5.794)"/>
    <circle cx="132.757" cy="393.706" r="7.243"/>
    <path d="M168.663,398.405a1.243,1.243,0,0,1-1.177,2.19,1.243,1.243,0,1,1,1.177-2.19,6.14,6.14,0,0,0,8.209-2.153c1.571-2.686.739-6.721-2.153-8.209-6.39-3.289-14.36-1.634-18.1,4.812a13.245,13.245,0,0,0,22.914,13.29c3.737-6.421,1.228-14.228-4.812-18.1a6,6,0,1,0-6.056,10.362Z"
          transform="translate(-35.317 -5.794)"/>
</svg>