<svg xmlns="http://www.w3.org/2000/svg" viewBox="0 0 277.759 311.599">
    <defs>
        <style>
            .a3eaaddd-067d-4c72-aec5-c92e367e83e6{fill:#ff7800;}.e706d588-2b79-4a7e-9ce6-c23cb31959d0{fill:#f6db40;}.e7a0c527-d63c-4770-bd89-69bf519aa2a9{fill:#71d2df;}.b036cd23-1b5f-4127-b7fe-c49a95569139{fill:#db535b;}.e6e75111-8688-4c69-a0a5-2cccaa1b690f{fill:#8360f4;}.bef619b7-5cf1-4998-9778-63c26217b326{fill:#6599ed;}
        </style>
    </defs>
    <title>blogEntries_user</title>
    <g id="e0b10a01-6175-40dd-a17c-57c30a19b9ae" data-name="Ebene 1">
        <path class="a3eaaddd-067d-4c72-aec5-c92e367e83e6"
              d="M337.4,250.679c-7.976-8.679-19.262-17.139-31.144-19.258-.651-.116-1.447-.529-1.454-.42.1-1.554,2.353,3.611,1.552,2.279.343.57.032.506-.194.842.3-.454.5-.975.839-1.413a84.578,84.578,0,0,1,6.336-6.594c14.617-14.166,25.976-29.79,23.231-51.251-3.278-25.64-21.815-47.77-46.266-55.941a67.4,67.4,0,0,0-63.214,11.32c-20.15,16.366-29.149,44.071-21.3,68.945a74.33,74.33,0,0,0,11.134,21.365A93.165,93.165,0,0,0,228.2,233.906a6.648,6.648,0,0,0,1.667,1.36c1.536.449-.468,1.146.535-.754,2.091-3.963-.625-1.135-2.781-.149-6.388,2.921-12.976,4.649-18.679,8.951-9.931,7.49-17.233,18.28-23.873,28.64-10.495,16.377-19.5,34.833-22.643,54.209-1.982,12.224-.854,23.506,6.676,33.786a53.82,53.82,0,0,0,22.719,18c10.1,4.113,21.51,5.151,32.314,5.574,16.148.632,32.289-.864,48.255-3.191,7.613-1.11,4.376-12.674-3.19-11.571-22.2,3.236-47.606,5.854-69.5-.72a41.2,41.2,0,0,1-18.647-12.264c-6.558-7.38-8.589-15.849-7.21-25.439,2.44-16.963,9.87-33.051,18.644-47.6,6.089-10.091,12.813-20.8,21.892-28.5,5.148-4.365,11.37-6.076,17.449-8.7,2.817-1.217,6.191-2.5,8.3-4.832,3.243-3.581,2.747-8.885-.216-12.431a19.6,19.6,0,0,0-2.977-2.667c-1.59-1.278-.222-.155.039.1-1.314-1.268-2.5-2.681-3.725-4.037a90.334,90.334,0,0,1-11.443-15.61c-9.965-17.42-8.783-38.418,2.344-55.026,11.766-17.564,33.728-26.559,54.463-22.73,23.631,4.364,43.12,23.94,46.142,48.048,1.37,10.932-1.832,20.742-8.585,29.331-5.094,6.479-11.656,11.524-17.014,17.737-4.341,5.035-7.836,13.5-.411,17.943,4.832,2.892,10.895,3.44,15.913,6.246a57.544,57.544,0,0,1,14.257,11.555c5.237,5.7,13.706-2.805,8.485-8.485Z"
              transform="translate(-161.565 -115.519)"/>
    </g>
    <g id="bd75a447-32c1-4935-8c40-67fbd5f23648" data-name="Ebene 2">
        <path class="e706d588-2b79-4a7e-9ce6-c23cb31959d0"
              d="M393.775,318.406a21.248,21.248,0,0,1,6.313-7.744,21.74,21.74,0,1,1-6.313,7.744Z"
              transform="translate(-161.565 -115.519)"/>
        <path class="e7a0c527-d63c-4770-bd89-69bf519aa2a9"
              d="M344.4,275.632a21.442,21.442,0,0,1,1.447-15.008,21.745,21.745,0,1,1,34.918,24.884,21.716,21.716,0,0,1-36.365-9.876Z"
              transform="translate(-161.565 -115.519)"/>
        <path class="e706d588-2b79-4a7e-9ce6-c23cb31959d0"
              d="M264.6,321.332a21.745,21.745,0,0,1,18.985-39.127,21.834,21.834,0,0,1,10.071,29.056,18.209,18.209,0,0,1-1.47,2.532,21.7,21.7,0,0,1-27.586,7.539Z"
              transform="translate(-161.565 -115.519)"/>
        <path class="b036cd23-1b5f-4127-b7fe-c49a95569139"
              d="M313.418,327.962a21.734,21.734,0,0,1,37.657,21.517,21.269,21.269,0,0,1-6.313,7.745,21.743,21.743,0,0,1-32.814-26.73A18.209,18.209,0,0,1,313.418,327.962Z"
              transform="translate(-161.565 -115.519)"/>
        <path class="e6e75111-8688-4c69-a0a5-2cccaa1b690f"
              d="M296.253,412.652a21.745,21.745,0,1,1,18.985-39.128,21.74,21.74,0,0,1,10.071,29.057A21.729,21.729,0,0,1,296.253,412.652Z"
              transform="translate(-161.565 -115.519)"/>
        <path class="bef619b7-5cf1-4998-9778-63c26217b326"
              d="M356.449,398.32a21.7,21.7,0,0,1,2.067-7.249,21.268,21.268,0,0,1,6.313-7.744,21.738,21.738,0,1,1-8.38,14.993Z"
              transform="translate(-161.565 -115.519)"/>
        <path class="a3eaaddd-067d-4c72-aec5-c92e367e83e6"
              d="M395.03,345.028a24.836,24.836,0,1,0,6.89-36.858l-15.99-20.82a24.845,24.845,0,1,0-43.968-12l-44.735,16.63a24.85,24.85,0,1,0-16.868,35.774l15.524,44.788a24.861,24.861,0,1,0,35.186,27.877l23.325,2.395a24.858,24.858,0,1,0,25.815-25.365l-1.887-22.306Zm27.581-32.194a18.639,18.639,0,1,1-24.9,8.632A18.659,18.659,0,0,1,422.611,312.834ZM397,311.97a24.682,24.682,0,0,0-5.2,27.752l-14.061,8.514L373.292,295.7a24.939,24.939,0,0,0,8.137-4Zm-79.269,60.464a24.707,24.707,0,0,0-15.978-1.924l-15.526-44.793a24.734,24.734,0,0,0,7.791-6.022L310.4,330.629c-.032.074-.079.141-.114.214A24.842,24.842,0,0,0,345.2,363.124l2.526,3.283-21.4,12.959a24.646,24.646,0,0,0-8.593-6.932ZM353,292.63l-12.393,25.542a24.883,24.883,0,0,0-26.75,7.3l-16.385-10.934c.035-.073.081-.14.117-.212a24.72,24.72,0,0,0,1.818-16.52l44.234-16.446A24.738,24.738,0,0,0,353,292.63Zm-28.489,65.83a18.639,18.639,0,1,1,24.906-8.632A18.656,18.656,0,0,1,324.511,358.46Zm25.612.864a24.759,24.759,0,0,0-3.925-38.442l12.393-25.542a24.632,24.632,0,0,0,8.546,1.3l4.67,55.188-18.729,11.339Zm24.563-104.272a18.639,18.639,0,1,1-24.9,8.632A18.657,18.657,0,0,1,374.686,255.052Zm-107.593,65.19A18.639,18.639,0,1,1,292,311.609,18.658,18.658,0,0,1,267.093,320.242Zm31.652,91.32a18.639,18.639,0,1,1,24.906-8.633A18.658,18.658,0,0,1,298.745,411.562ZM331.7,394.243a25.026,25.026,0,0,0-2.148-9.57l21.982-13.311,10.2,13.272a24.322,24.322,0,0,0-6.71,12.006Zm64.283,16.162a18.638,18.638,0,1,1-8.632-24.906A18.657,18.657,0,0,1,395.985,410.405ZM374.022,378a25.046,25.046,0,0,0-7.36,2.838l-9.774-12.712,15.5-9.386Z"
              transform="translate(-161.565 -115.519)"/>
    </g>
</svg>