<svg id="e45b9fbc-e955-4684-890a-7c603b12e0c1" data-name="Ebene 1" xmlns="http://www.w3.org/2000/svg"
     viewBox="0 0 431.16 495.21">
    <path d="M343,173.86c9.61,1.73,19.38,2.42,28.95,4.58a182.72,182.72,0,0,1,125.9,102.14c15.55,33.8,20.95,69.17,14.79,106C504,438.22,477.8,479,434.92,509.06c-11.09,7.76-20.79,16.76-27.48,28.69-.53.93-1.51,1.72-1.08,3.46,5.82,0,11.72.17,17.61-.06,4.7-.17,3.62,3.47,3,5.24-1.21,3.51,4.07,9.58-3.06,10.45s-14.16.34-21.24.13c-2.86-.09-3.89,1-4.57,3.61-3.25,12.33-3.31,12.41,9.08,12.49,3,0,4.2.61,4.23,3.95.12,11.78.25,11.93-11.72,11.88-3.66,0-4.73,1.05-4.54,4.65.3,5.79.12,11.6.07,17.4-.07,7.17-2.73,10.18-10,9.85-4.89-.23-6,1.45-6.58,6.07-2.39,18-12.21,31-28.86,38.13-16.94,7.21-33.14,4.7-47.75-6.47-11.06-8.46-17.11-19.9-18.21-33.77-.26-3.32-1.67-3.85-4.55-3.88-9.81-.1-11.77-2.2-11.77-12,0-5-.3-10,.08-15,.33-4.21-1.3-5.52-5.17-4.89a1.55,1.55,0,0,1-.48,0c-3.31-.31-8.1,1.58-9.62-.89-2.28-3.68-.69-8.76-.71-13.24,0-1.91,1.56-1.7,2.83-1.71a86.81,86.81,0,0,1,8.69.05c3.37.3,3.64-1.18,3.17-4-2-12.16-2-12.17-14-12.17-4,0-8.09-.28-12.08.07s-4.76-1.27-4.7-4.91c.17-11,0-11,11-11h10.22A73.56,73.56,0,0,0,235,514.55c-13.48-10.22-27.24-20-38.69-32.67-28.46-31.39-44.63-68.07-47.83-110.37-.4-5.29-.38-10.62-.73-15.92-.19-2.83.56-3.9,3.7-3.9,12.12,0,11.93-.13,12.53,12,2.69,54,25.63,97.47,69.24,129.4,17,12.43,31.66,26.3,40.25,45.81.86,2,2.16,2.38,4.14,2.38q53.65-.07,107.3,0c2.36,0,3.43-1,4.32-2.94,8.21-18.11,21.31-31.81,37.53-43.15,37.36-26.1,61-61.65,69.18-106.5,8.85-48.34-1.26-92.8-31-132.24-23.31-30.89-54-51.19-91.31-61.17a152.22,152.22,0,0,0-47.85-5c-3.9.22-5.51-.76-5.38-4.84.11-3.84-.38-7.71-.61-11.56ZM331.38,557c-13.7,0-27.39,0-41.09,0-3.18,0-7.33-1.44-9.27.73-1.76,2,.79,5.69,1,8.71,0,.64.15,1.28.15,1.93,0,3.49,1.39,4.82,5.23,4.79,26.91-.19,53.82-.09,80.72-.11,3.7,0,8.15,1.07,10.87-.6,2.94-1.8,1.24-6.87,2.44-10.35,1.29-3.74.35-5.32-4.13-5.24C362,557.21,346.68,557,331.38,557Zm0,63.9c-9.49,0-19,.08-28.45-.05-2.75,0-3.57.74-3.27,3.6a31.92,31.92,0,0,0,63.35.55c.39-3.16-.36-4.24-3.67-4.17C350.06,621.06,340.74,620.94,331.42,620.94Zm0-15.88h36.73c11.38,0,11.2,0,11.34-11.3,0-3.89-1.18-4.87-4.94-4.85-26.42.14-52.84.07-79.27.07-12.05,0-11.91,0-11.83,11.91,0,3.5,1.22,4.27,4.47,4.23C302.4,605,316.9,605.06,331.4,605.06Z"
          transform="translate(-83.94 -173.86)"/>
    <path d="M182.46,173.86c4.08,2.55,5.17,6.52,5.65,11,1.7,16.12,13.11,27.14,29.45,28.67,3.61.34,7.11.94,9,4.58,2.92,5.6-.85,11.17-8.21,11.73a32.46,32.46,0,0,0-18.64,7,30.51,30.51,0,0,0-11.64,21.43c-.76,7.77-3.19,11-8.11,11.23-4.08.15-8-3.33-8.69-10.68-1.55-16.64-13.17-27.41-29.73-28.95-6.76-.62-10-3.71-9.49-9,.44-4.52,3.41-6.82,9.75-7.36,12.27-1,21.07-7.16,26.69-18a26.86,26.86,0,0,0,3-11.59c.14-4.67,2-8,6.13-10.09Zm10.83,48.42a18.67,18.67,0,0,0-1.66-1.75A49,49,0,0,1,181.08,210c-1.51-2.07-2.41-.49-3.25.61a42.29,42.29,0,0,1-9.18,9.18c-1.92,1.38-2.16,2.48-.08,3.95a37.89,37.89,0,0,1,9.17,9.18c1.43,2,2.52,2,3.93,0a38.07,38.07,0,0,1,9.18-9.17C191.61,223.17,192.47,222.76,193.29,222.28Z"
          transform="translate(-83.94 -173.86)"/>
    <path d="M339.29,357.61q0-54.6,0-109.2c0-12.6,4.39-23.08,15.46-29.81,15.07-9.16,33.61-4.83,43.21,10,1.53,2.36,2.64,3.18,5.63,2.42a31.48,31.48,0,0,1,38.6,37.52c-.78,3.41.24,4.43,2.89,5.75A38.89,38.89,0,0,1,464,324.18c-1.2,3-.57,3.94,2.08,5.38C477.05,335.52,483,345,483,357.4c0,12.59-5.91,22.22-17.12,28.17-2.57,1.36-3,2.32-1.91,5,7.85,19.8-.16,40.8-19.09,50.29-2.49,1.24-3.47,2.21-2.74,5.41,5.38,23.35-15.38,43.44-38.82,37.74-2-.5-3.28-.79-4.77,1.39-9.24,13.58-22.45,18.6-36.6,14.22s-22.6-16.53-22.63-32.86Q339.21,412.2,339.29,357.61Zm16.14-.23v21.27c0,30.14,0,60.27,0,90.4,0,7.55,4.24,13.14,11,15.33a15.81,15.81,0,0,0,17.57-5.8c2-2.76,3.12-5.4.34-8.59a19.82,19.82,0,0,1-3.24-6.42c-3.36-9.4-2.73-10.27,6.92-10.27a8.76,8.76,0,0,0,1.45,0c3.9-.64,5.77.59,6.77,4.86,1.69,7.21,8.81,11.57,16.18,11a16,16,0,0,0,14.44-12.84c1.34-7.15-2.26-15.39-9.26-17.2-6.4-1.65-6.86-5.18-6.36-10.25a22.47,22.47,0,0,0,0-4.34c-.25-2.77,1.1-3.24,3.49-2.86,5,.8,9.8,2.18,13.83,5.29a6.36,6.36,0,0,0,6.66,1c10-3.52,16.87-14.2,15.74-24.62-1.22-11.15-9.78-20.22-20.32-21.5a24.13,24.13,0,0,0-26,15.61c-1,2.61.4,6.53-2.72,7.7-2.56,1-5.73.28-8.63.33a11.69,11.69,0,0,0-1.45,0c-3.59.53-4.7-.71-4.28-4.51,3.19-28.65,35.64-44.66,60.1-29.41a9.4,9.4,0,0,0,9.09.83,15.94,15.94,0,0,0,9.7-19.27c-2.66-9.38-11.85-13.31-20.18-8.63-23.1,13-52.74-.7-58.07-26.79-1.65-8.11-1.65-8.11,6.76-8.11a27.37,27.37,0,0,0,3.39,0c3.48-.44,5,.68,5.55,4.52,1.71,11.23,11.71,19.33,23.13,19.39A23.87,23.87,0,0,0,436,287.38c-2.7-1.07-5-1.21-7.54.83a24.85,24.85,0,0,1-10.53,4.6c-6.58,1.46-6.58,1.44-6.58-5.4a35.65,35.65,0,0,0,0-3.87c-.45-3.76.22-5.9,4.78-6.92,7.41-1.68,11.72-9,11-16.64A15.77,15.77,0,0,0,413.72,246c-7.21-1.19-15.23,2.62-16.94,9.66-1.45,5.95-4.55,6.64-9.37,6.08a14.67,14.67,0,0,0-3.86,0c-3.75.55-4.35-1.36-3.85-4.49.69-4.35,1.83-8.67,4.56-12.06,2.94-3.64,1.72-6.36-.64-9.34a15.35,15.35,0,0,0-8.8-5.56c-10.54-2.46-19.35,5.09-19.37,16.82Q355.36,302.27,355.43,357.38Z"
          transform="translate(-83.94 -173.86)"/>
    <path d="M323.5,357.49q0,54.38,0,108.77c0,13.18-4.55,24-16.44,30.68-14.85,8.36-32.76,4.05-42-10.25-1.88-2.91-3.37-3.24-6.49-2.48-22.39,5.48-43.18-15-38-37.47.73-3.18.24-4.46-2.63-5.88C199.16,431.55,191,410.31,198.67,391c1.08-2.73,1.12-3.91-1.82-5.48-11.2-5.95-17.13-15.64-17.06-28.23.08-12.4,6-21.91,17.05-27.76,2.92-1.56,2.93-2.74,1.83-5.49-7.69-19.36.47-40.53,19.24-49.85,2.89-1.44,3.36-2.72,2.63-5.89-5.21-22.71,15.82-43.07,38.48-37.45,2,.48,3.52,1.33,5.25-1.25,9.17-13.63,22.38-18.61,36.59-14.21,14,4.34,22.57,16.33,22.61,32.37C323.56,284.33,323.49,320.91,323.5,357.49Zm-16.15,0V250.2c0-1.77,0-3.54-.08-5.31a15.83,15.83,0,0,0-12-14.63,16.3,16.3,0,0,0-16.92,6.67c-1.64,2.48-2.67,4.86-.23,7.78a22.88,22.88,0,0,1,3.66,7.28c3.06,9.05,2.5,9.77-6.74,9.77a8.77,8.77,0,0,0-1.45,0c-4,.65-6.14-.43-7.16-5-1.57-7-8.74-11.45-15.73-11a16.11,16.11,0,0,0-15,13.47c-1.1,7,2.56,15,9.36,16.7,6.48,1.58,6.92,5.13,6.41,10.21a26.2,26.2,0,0,0,0,4.34c.19,2.72-1.09,3.23-3.53,2.86-5-.75-9.81-2.16-13.82-5.27-2.38-1.84-4.54-1.82-7.12-.84-10,3.78-16.64,14.6-15.25,24.9,1.52,11.28,9.95,19.89,20.69,21.13a24.16,24.16,0,0,0,25.58-15.62c1-2.63-.27-6.6,2.7-7.75,2.68-1,6-.32,9.09-.37a6.14,6.14,0,0,0,1,0c4.24-.72,4.67,1.46,4.27,5-3.19,28.05-35.49,44.05-59.54,29.21-4.26-2.62-7.82-2.2-11.68-.08a15.84,15.84,0,0,0-7.58,18.19c2.4,8.63,12,13.74,18.46,9.8a39.63,39.63,0,0,1,59.74,25.59c1.79,8.19,1.79,8.19-6.66,8.19a29.29,29.29,0,0,0-3.38,0c-3.43.42-5-.59-5.61-4.44a23.16,23.16,0,0,0-22.59-19.39,23.83,23.83,0,0,0-10.43,45.58c3.11,1.39,5.86,2,8.83-.63,2.28-2,5.28-3,8.25-3.85,8.61-2.45,8.61-2.46,8.61,6.22,0,1.13-.08,2.26,0,3.38.29,3.23-.28,5.07-4.28,5.83-7.13,1.37-11.87,8.47-11.62,15.78a15.83,15.83,0,0,0,12.79,14.94c7.41,1.36,15.56-2,17.27-9s5.69-7.06,10.92-6.6a12.23,12.23,0,0,0,2.9,0c3.56-.57,4,1.31,3.57,4.19a27.83,27.83,0,0,1-5.22,13.33c-1.71,2.23-1.43,4-.19,6.1,3.33,5.65,8.33,8.53,14.8,8.2s11.06-3.9,13.72-9.86c1.3-2.9,1.13-6,1.13-9Z"
          transform="translate(-83.94 -173.86)"/>
    <path d="M179.62,301.64c-.43,4.28-2.57,7.08-7.09,7.73-5.56.81-11.14,1.36-16.18,4.31-9.58,5.6-15,13.84-16.32,24.79-.2,1.6-.3,3.21-.65,4.77a7.77,7.77,0,0,1-15.19-.05c-.93-4.22-.78-8.62-2.5-12.74-4.85-11.66-13.31-18.63-25.92-20.38-1.11-.16-2.24-.26-3.35-.45-5.53-.91-8.55-3.81-8.48-8.13s3.22-7.33,8.75-7.83c7.41-.68,14.15-2.84,19.85-7.82a31.15,31.15,0,0,0,11-21.3,26.26,26.26,0,0,1,.89-5.22,7.13,7.13,0,0,1,7.16-5.38c3.59-.1,6.27,1.54,7.45,5a24.47,24.47,0,0,1,1,5.68,31.73,31.73,0,0,0,27.12,28.53c1.91.28,3.86.36,5.75.74C177,294.69,179.24,297.31,179.62,301.64ZM131.78,315c3.67-4.47,7.07-8.78,11.64-11.89,1.87-1.28,1.08-2.29-.29-3.29a42.16,42.16,0,0,1-9.53-9.51c-1.3-1.81-2.33-1.76-3.62,0a43.37,43.37,0,0,1-9.53,9.5c-1.34,1-2.19,2-.29,3.27C124.7,306.27,128.16,310.5,131.78,315Z"
          transform="translate(-83.94 -173.86)"/>
</svg>