<svg xmlns="http://www.w3.org/2000/svg" viewBox="0 0 119.75 201.24">
    <defs>
        <style>
            .a3f547a9-99bf-45a9-92df-de15cfa42e5d{
                fill:#343434;
            }
            #bookmark_outer {
                fill: white;
            }
        </style>
    </defs>
    <g id="ac0c6829-2164-48cc-b6b3-4bb9a475012a" data-name="Ebene 2">
        <g id="a7ddb84d-9cc4-46af-b5cc-9c3d1845a394" data-name="Ebene 1">
            <path id="bookmark_outer" d="M12.13,0h96.1c.25.38.66.23,1,.37a15,15,0,0,1,6.79,5c2.84,3.91,3.75,8.31,3.75,13.15q0,84.9,0,169.8c0,.94,0,1.88,0,2.81a14.19,14.19,0,0,1-2.34,7.57c-1.55,2.26-5.24,3.17-7.3,2-3.52-2-5.88-5.38-8.68-8.22-3.09-3.16-6-6.52-9-9.77-2.3-2.48-4.66-4.9-7-7.38-3-3.26-6-6.54-9-9.81-2.32-2.54-4.55-5.17-7-7.59-2.08-2.08-3.82-4.56-6.35-6.12a7.12,7.12,0,0,0-5.92.07C53.93,154,51.73,157.29,49,160c-3.16,3.17-6.1,6.58-9.16,9.87-2.27,2.44-4.59,4.82-6.86,7.26-3.09,3.32-6.15,6.67-9.22,10-1.64,1.78-3.17,3.69-4.92,5.35-2.8,2.66-5,6-8.47,8a6,6,0,0,1-7.86-1.92C.38,195.71,0,192.37,0,188.89Q0,103.5,0,18.1c0-.78,0-1.55,0-2.32A18.48,18.48,0,0,1,5.36,3.87,17.44,17.44,0,0,1,12.13,0Z"/>
            <path class="a3f547a9-99bf-45a9-92df-de15cfa42e5d"
                  d="M13.45,53a3.24,3.24,0,0,1,2.95-2.26c7.3-1,14.58-2.11,21.87-3.18,1.83-.26,3.65-.54,5.47-.77a1.46,1.46,0,0,0,1.25-1Q51.05,33.5,57.15,21.17a3.08,3.08,0,0,1,2.26-2,2.5,2.5,0,0,1,2.72,1.2A24,24,0,0,1,63.3,22.6q5.76,11.64,11.49,23.31a1.48,1.48,0,0,0,1.28.92q13.4,1.92,26.8,3.87c.24,0,.48.1.72.12a2.75,2.75,0,0,1,2.57,1.94,2.85,2.85,0,0,1-1,3.08Q95.28,65.46,85.4,75.07a1.77,1.77,0,0,0-.57,1.81c1.6,9.13,3.15,18.27,4.71,27.4a2.71,2.71,0,0,1-1,2.82,2.79,2.79,0,0,1-3.16.11q-6.12-3.24-12.26-6.45c-4.11-2.17-8.23-4.32-12.33-6.5a1.61,1.61,0,0,0-1.73,0q-12.21,6.47-24.44,12.87a3.22,3.22,0,0,1-2.43.44,2.72,2.72,0,0,1-2-3.15q1.36-8,2.76-16.07c.68-4,1.35-7.91,2-11.86a1.28,1.28,0,0,0-.51-1.25L15.28,56.49a9.61,9.61,0,0,1-1.83-2.19Z"/>
        </g>
    </g>
</svg>