<svg xmlns="http://www.w3.org/2000/svg" viewBox="0 0 384 379.7">
    <defs>
        <style>
            #a880d0af-8376-4ac0-9449-40393c66028b * {
                fill: #aaa;
            }
        </style>
    </defs>
    <g id="a880d0af-8376-4ac0-9449-40393c66028b" data-name="Ebene 2">
        <g id="baaedc82-b806-4067-a0f1-2741c27343fc" data-name="Ebene 1">
            <path d="M0,350.36v-10.5a47.5,47.5,0,0,1,13.31-23.27q62.22-61.86,124.2-124c2.34-2.33,2.32-3.42,0-5.75Q74.93,124.56,12.56,62c-9.18-9.19-12.5-20.4-9.85-33,2.94-14,11.62-23.41,25.35-27.41S54,1,64.18,11.12q62.37,62,124.66,124c2.31,2.3,3.53,2.65,6,.12Q237.81,92,281,49c13.26-13.25,26.16-26.89,40-39.53,14.3-13.08,36.94-11.24,50,3a36.07,36.07,0,0,1-1,50.12Q308.28,124.3,246.58,185.88c-2.56,2.55-2.92,3.81-.11,6.58,40,39.54,79.77,79.3,119.79,118.82,8.12,8,15.56,16.16,17.74,27.83v9.75c-.32,1.19-.64,2.38-.95,3.57-3.69,13.88-12.28,23.23-26.41,26.18-14.67,3.06-27.84-.18-38.83-11.22q-61.6-61.9-123.41-123.61c-2.37-2.38-3.48-2.24-5.76.06-40.83,41-81.87,81.74-122.57,122.84-9.43,9.52-20.29,13.52-33.37,12.84-15.81-.82-27.91-10.67-31.74-26C.7,352.43,1,351.19,0,350.36Z"/>
        </g>
    </g>
</svg>