<svg id="b81ffce4-224c-484d-9794-9882947c62c7" data-name="Ebene 1" xmlns="http://www.w3.org/2000/svg"
     viewBox="0 0 383.22 301.23">
    <path d="M106.75,365.12c.55-1.77,1-3.6,1.67-5.32,4.11-10.16,11.45-16.44,22.41-18,2.67-.39,3.85-1.26,4.56-4.12a43.25,43.25,0,0,1,41.35-32.38c21.46-.16,42.91-.07,64.37,0a9.22,9.22,0,0,0,6.09-2.14c85.36-66.46,211.51-23.14,238.16,81.75.42,1.67,1.05,3.33.75,5.14a8.24,8.24,0,0,1-7.14,6.67,7.56,7.56,0,0,1-7.73-5.8c-2.14-8.08-4.49-16.08-8.09-23.64C442,322.69,407.4,295.47,358.39,288.13,290.87,278,226.64,320.76,208.66,387c-20,73.53,25.78,149.7,100.17,166.81a135,135,0,0,0,161.7-98.29c.22-.85.44-1.69.69-2.52,1.3-4.27,5.06-6.89,8.62-6,4.77,1.17,7.23,5.07,6.09,9.9a134.88,134.88,0,0,1-10,28.51c-24.46,49.56-64,78.83-118.8,86-40.37,5.29-77.09-5.48-109.55-30.18a10.92,10.92,0,0,0-7.15-2.39q-30.69.13-61.37.05c-22.72,0-39.59-13.54-44.49-35.6-.32-1.42-.44-2.43-2.34-2.67-13.35-1.7-21.68-9.16-24.94-22.24a3.64,3.64,0,0,0-.57-.93V445.22c2-3.27,4.62-5.5,8.74-5.19,2,.15,1.73-1.28,1.73-2.49,0-4-.06-8,0-12,.1-4.54,3.19-7.82,7.29-7.93s7.52,3.26,7.63,8c.1,3.87.17,7.74,0,11.6-.12,2.4.77,3,3,2.88,3.74-.16,7.49-.17,11.22,0,2.34.1,3.35-.48,3.22-3.05a119.48,119.48,0,0,1,0-12,7.56,7.56,0,0,1,7.44-7.42c4.17,0,7.3,3.16,7.43,7.73.1,3.86.11,7.73,0,11.6-.06,2.06.24,3.1,2.77,3.14,6.08.12,8.52,2.77,8.56,8.81.05,7.86.1,15.72,0,23.58-.21,14.52-9.42,25.46-23.68,27.9-2.46.43-2.72,1-2.05,3.22a28.59,28.59,0,0,0,27.19,20.21c16,.12,31.92,0,47.89,0,.88,0,2,.53,2.72-.68-25.43-29-38.93-62.58-38.91-101.27s13.57-72.21,39-101.13c-.46-.29-.65-.51-.83-.51-17.34,0-34.69-.53-52,.18-11.68.48-19.8,7.3-24.38,18.16-.82,2-.64,2.78,1.68,3.25,14.77,3,23.28,13.43,23.4,28.48.06,7.49,0,15,0,22.45,0,6.77-2.48,9.2-9.28,9.21-16.71,0-33.43-.1-50.14.08-4.52.05-7.73-1.36-9.62-5.5Zm53.8,100.67c0-2.61-.11-5.23,0-7.83.11-2.14-.73-2.79-2.81-2.78q-16.61.12-33.21,0c-2.19,0-2.74.82-2.69,2.85.11,4.85-.06,9.71.06,14.55.19,7.6,5.54,12.83,13.06,12.91q6.34.08,12.69,0c7.56-.09,12.74-5.34,12.86-13C160.57,470.27,160.54,468,160.55,465.79Zm-19.29-79.05c5.22,0,10.46-.18,15.67.07,3.09.15,3.8-1,3.67-3.83-.2-4.47,0-9-.07-13.43-.09-7.25-4.64-12.34-11.84-12.79a117.74,117.74,0,0,0-14.91,0A12.25,12.25,0,0,0,122,368.91c-.23,5.1,0,10.21-.1,15.3-.05,2,.7,2.58,2.6,2.56C130.06,386.68,135.66,386.74,141.26,386.74Z"
          transform="translate(-106.75 -271.45)"/>
    <path d="M281.71,420.51c0-15.72-.06-31.43,0-47.15.08-19,19.51-30.57,36-21.22q41.61,23.61,82.86,47.84c16.37,9.61,16.37,31.87,0,41.53q-41.24,24.25-82.86,47.83c-16.53,9.35-35.89-2.31-36-21.31C281.66,452.19,281.71,436.35,281.71,420.51Zm15.15.13c0,15.71,0,31.41,0,47.12,0,8.13,6.85,12.12,13.93,8.05q40.65-23.37,81.21-46.89c7.48-4.34,7.38-12.15-.15-16.51q-40.26-23.3-80.57-46.5c-7.65-4.4-14.42-.46-14.43,8.35Q296.82,397.45,296.86,420.64Z"
          transform="translate(-106.75 -271.45)"/>
    <path d="M481.89,414.45a7.56,7.56,0,1,1,.35,15.1,7.46,7.46,0,0,1-7.36-7.37C474.8,418.11,478.09,414.49,481.89,414.45Z"
          transform="translate(-106.75 -271.45)"/>
</svg>