<svg id="b6967285-d85a-4133-afdd-054f6e0d333a" data-name="Ebene 1" xmlns="http://www.w3.org/2000/svg"
     viewBox="0 0 383.26 383.29">
    <path d="M106.75,389.08c2-7.48,4.18-14.81,9.08-21,9-11.35,20.61-17.78,35.07-17.82q89-.27,178.09,0a44.6,44.6,0,0,1,44.18,44.18q.22,87.54,0,175.1c0,21.12-15.4,39.08-36.46,43.36-.83.17-1.78,0-2.41.79H145.67c-.62-.8-1.56-.61-2.39-.79a45.41,45.41,0,0,1-30.4-21.51c-3.16-5.15-4.41-11-6.13-16.63ZM240,583.7H326.4c10.9,0,16.88-6,16.88-16.86q0-84.93,0-169.85c0-10.93-6-16.88-16.86-16.88q-86.43,0-172.85,0c-10.92,0-16.88,5.94-16.88,16.85V566.81c0,10.91,6,16.88,16.86,16.88Z"
          transform="translate(-106.75 -230.35)"/>
    <path d="M356.76,230.39q43.41,0,86.82,0c26.94,0,46.41,19.54,46.42,46.55q0,85.14,0,170.27c0,27.2-19.47,46.64-46.69,46.66-12.35,0-24.7-.06-37.05.05-2.41,0-3.2-.59-3.15-3.09q.24-12,0-23.94c-.06-2.63.95-3,3.23-3,12.47.09,25,.06,37.42,0,10.13,0,16.29-6.17,16.29-16.33q0-85.51,0-171c0-10.13-6.19-16.23-16.39-16.24H270c-10.43,0-16.54,6.06-16.55,16.44,0,13.34-.1,26.69.06,40,0,2.86-.79,3.53-3.54,3.47-7.85-.19-15.72-.15-23.57,0-2.27,0-3-.56-2.95-2.9.11-14.6-.15-29.2.12-43.79.44-23.38,20.47-43,44.1-43.13C297.38,230.27,327.07,230.4,356.76,230.39Z"
          transform="translate(-106.75 -230.35)"/>
</svg>