<svg xmlns="http://www.w3.org/2000/svg" viewBox="0 0 509.69 508.69">
    <g id="Ebene_2" data-name="Ebene 2">
        <g id="to_dark_mode_g" data-name="Ebene 1">
            <path d="M0,227.88c2.74-4.74,2-10.15,2.74-15.22C16.66,113.3,91,28,187.64.77c7.41-2.09,14,.13,17.92,6s3.41,13.08-2,19.18A201,201,0,0,0,158,113C135,207.21,186.85,308,277.3,342.42c74.2,28.26,142.4,16.08,203.86-34.12.89-.74,1.74-1.53,2.63-2.28,6.26-5.22,13.15-5.88,19.2-1.85,5.84,3.9,8.06,10.43,5.89,17.95a251,251,0,0,1-44.13,86.62q-59.13,75.12-152.69,95.45c-8.35,1.82-16.84,3-25.27,4.5H235c-1.6-1.05-3.39-.28-5.08-.52-15.8.19-30.87-3.9-45.78-8.35a254.75,254.75,0,0,1-95.81-53.1,260.12,260.12,0,0,1-57.15-70.78,254.07,254.07,0,0,1-29.88-90c-.62-4.72-.18-9.54-1.3-14.21v-4c.86-.87.39-2,.51-3V261c0-.79.18-1.64-.51-2.28V241.82c1-1.15.32-2.52.51-3.78V234.2c-.06-.8.21-1.68-.51-2.34Z"/>
            <path d="M321.11,112.1c6.12.17,10.84,2.78,13.72,8.63,5.11,10.37,10.5,20.61,15.49,31a12.75,12.75,0,0,0,6.44,6.36c10.11,4.9,20.08,10.1,30.2,15,6.25,3,10.08,7.69,10,14.67-.05,6.75-3.79,11.33-9.85,14.28-10.25,5-20.37,10.23-30.61,15.23a12.1,12.1,0,0,0-6.11,6c-4.9,10.29-10.14,20.41-15.2,30.63-3,6.13-7.53,10-14.69,9.92-6.91-.08-11.31-3.81-14.25-9.81-5.1-10.39-10.39-20.68-15.46-31.09a10.92,10.92,0,0,0-5.38-5.42c-10.41-5-20.66-10.41-31.08-15.44-6.09-2.94-9.81-7.44-9.92-14.21-.11-7,3.71-11.69,9.94-14.72,10.4-5,20.68-10.34,31.08-15.39a11,11,0,0,0,5.38-5.44c5.14-10.55,10.52-21,15.69-31.51C309.5,114.77,314.36,112.12,321.11,112.1Z"/>
            <path d="M418.25,51.66c9.13,0,9.1,0,9.15-9.3a49.73,49.73,0,0,1,.48-8.9,15.13,15.13,0,0,1,15.74-12.31A15.35,15.35,0,0,1,458,35.69c.22,4.3.17,8.62,0,12.92-.09,2.33.53,3.22,3,3.1,4.13-.19,8.28-.15,12.42,0a15.21,15.21,0,0,1,2.39,30.21,35.22,35.22,0,0,1-6.42.39c-11.34,0-11.34,0-11.34,11.59,0,1.16,0,2.32,0,3.48-.31,8.52-6.47,15-14.59,15.25a15.16,15.16,0,0,1-15.95-14.37,116,116,0,0,1-.05-12.92c.09-2.4-.69-3.17-3.07-3.06-3.64.18-7.29.12-10.94,0C403.64,82.07,397,75.7,397,66.75s6.82-15,16.73-15.09Z"/>
        </g>
    </g>
</svg>