<svg id="f0515b9f-5327-4983-bb88-25bbc520c02c" data-name="Ebene 1" xmlns="http://www.w3.org/2000/svg"
     viewBox="0 0 2490.8 1414.26">
    <defs>
        <style>
            .abfeb47a-244e-4e83-abce-7745c6c4bc24{fill:#364548;}.a3cc09fa-df5b-402c-9a4d-2d77372f2685,.a659bad4-a763-430d-8a36-b87494c6776c,.abfeb47a-244e-4e83-abce-7745c6c4bc24,.b6d33c58-4fd0-4117-9e4c-6b0863c9f22d,.bb0ceb9d-8162-41d4-9eb5-3f395c7c23ea,.bde52219-a0d0-475b-8871-5be43efe7c9c,.be97cc52-9812-46df-b97e-eb072fcacfab,.f1d6c0b0-9eec-4577-89c0-85aa342bd35a,.ff2d717b-d3e9-4c17-a244-119648d602d0{fill-rule:evenodd;}.be97cc52-9812-46df-b97e-eb072fcacfab{fill:#22a0c8;}.a3cc09fa-df5b-402c-9a4d-2d77372f2685{fill:#37b1d9;}.bde52219-a0d0-475b-8871-5be43efe7c9c{fill:#1b81a5;}.f1d6c0b0-9eec-4577-89c0-85aa342bd35a{fill:#1d91b4;}.bb0ceb9d-8162-41d4-9eb5-3f395c7c23ea{fill:#23a3c2;}.b6d33c58-4fd0-4117-9e4c-6b0863c9f22d{fill:#34bbde;}.a659bad4-a763-430d-8a36-b87494c6776c{fill:#d3ecec;}.ff2d717b-d3e9-4c17-a244-119648d602d0{fill:#bdd9d7;}
        </style>
    </defs>
    <path class="abfeb47a-244e-4e83-abce-7745c6c4bc24"
          d="M1444.91,822.42h223.3v228.27h112.9c52.15,0,105.77-9.28,155.15-26,24.27-8.23,51.49-19.68,75.43-34.08-31.52-41.16-47.62-93.12-52.34-144.34-6.45-69.68,7.61-160.36,54.76-214.89l23.48-27.15,28,22.49c70.42,56.57,129.65,135.63,140.08,225.76,84.8-24.94,184.36-19,259.1,24.09l30.66,17.7-16.13,31.5c-63.22,123.36-195.37,161.58-324.57,154.82-193.33,481.53-614.24,709.5-1124.58,709.5-263.67,0-505.57-98.57-643.32-332.49l-2.26-3.81-20.07-40.84c-46.56-103-62-215.77-51.54-328.49l3.15-33.76H507V822.42H730.33V599.12h446.61V375.82h268v446.6"
          transform="translate(-4.6 -375.82)"/>
    <path class="be97cc52-9812-46df-b97e-eb072fcacfab"
          d="M2168.37,906.88c15-116.37-72.11-207.77-126.11-251.17-62.24,72-71.91,260.53,25.73,339.92-54.49,48.4-169.31,92.27-286.88,92.27H350c-11.43,122.73,10.12,235.74,59.33,332.47l16.28,29.79a550.21,550.21,0,0,0,33.74,50.62q88.25,5.67,162.71,4h0c97.53-2.15,177.11-13.68,237.42-34.57a17.2,17.2,0,0,1,11.26,32.48c-8,2.79-16.39,5.39-25,7.86h0c-47.49,13.56-98.42,22.68-164.12,26.74,3.91.06-4.06.58-4.08.58-2.24.15-5,.47-7.3.59-25.85,1.45-53.76,1.76-82.3,1.76-31.21,0-61.94-.59-96.31-2.35l-.88.59c119.24,134,305.69,214.4,539.4,214.4,494.61,0,914.14-219.26,1099.92-711.49,131.8,13.52,258.47-20.09,316.08-132.57-91.77-53-209.8-36.08-277.76-1.92"
          transform="translate(-4.6 -375.82)"/>
    <path class="a3cc09fa-df5b-402c-9a4d-2d77372f2685"
          d="M2168.37,906.88c15-116.37-72.11-207.77-126.11-251.17-62.24,72-71.91,260.53,25.73,339.92-54.49,48.4-169.31,92.27-286.88,92.27H434.76c-5.84,187.95,63.9,330.62,187.3,416.87h0c97.53-2.15,177.11-13.68,237.42-34.57a17.2,17.2,0,0,1,11.26,32.48c-8,2.79-16.39,5.39-25,7.86h0c-47.49,13.56-102.79,23.85-168.49,27.91,0,0-1.6-1.52-1.61-1.52,168.33,86.35,412.4,86,692.23-21.45,313.77-120.55,605.75-350.2,809.47-612.86q-4.59,2.07-9,4.26"
          transform="translate(-4.6 -375.82)"/>
    <path class="bde52219-a0d0-475b-8871-5be43efe7c9c"
          d="M352.7,1237c8.88,65.74,28.12,127.3,56.64,183.36l16.28,29.79a550.21,550.21,0,0,0,33.74,50.62q88.26,5.67,162.73,4c97.53-2.15,177.11-13.68,237.42-34.57a17.2,17.2,0,0,1,11.26,32.48c-8,2.79-16.39,5.39-25,7.86h0c-47.49,13.56-102.5,23.27-168.2,27.33-2.26.14-6.19.17-8.47.29-25.84,1.45-53.46,2.34-82,2.34-31.2,0-63.11-.6-97.46-2.35,119.24,134,306.84,214.7,540.55,214.7,423.43,0,791.83-160.72,1005.65-515.84H352.7"
          transform="translate(-4.6 -375.82)"/>
    <path class="f1d6c0b0-9eec-4577-89c0-85aa342bd35a"
          d="M447.64,1237c25.31,115.43,86.14,206,174.45,267.76,97.53-2.15,177.11-13.68,237.42-34.57a17.2,17.2,0,0,1,11.26,32.48c-8,2.79-16.39,5.39-25,7.86h0c-47.49,13.56-103.66,23.27-169.37,27.33,168.32,86.33,411.69,85.09,691.5-22.39,169.28-65,332.2-161.86,478.36-278.47H447.64"
          transform="translate(-4.6 -375.82)"/>
    <path class="bb0ceb9d-8162-41d4-9eb5-3f395c7c23ea"
          d="M544.25,859.64H737.78v193.53H544.25Zm16.12,16.13h15.27v161.28H560.37Zm28.71,0H605v161.28H589.09V875.77Zm29.32,0h15.89v161.28H618.4Zm29.33,0h15.88v161.28H647.73Zm29.33,0h15.88v161.28H677.06V875.77Zm29.32,0h15.28v161.28H706.38Zm61.17-239.43H961.09V829.86H767.54V636.34Zm16.13,16.13H799V813.74H783.68Zm28.71,0h15.88V813.74H812.4V652.47Zm29.32,0h15.88V813.74H841.71Zm29.33,0h15.87V813.74H871Zm29.32,0h15.89V813.74H900.36Zm29.32,0H945V813.74H929.68Z"
          transform="translate(-4.6 -375.82)"/>
    <path class="b6d33c58-4fd0-4117-9e4c-6b0863c9f22d"
          d="M767.55,859.64H961.09v193.53H767.54V859.64Zm16.13,16.13H799v161.28H783.68Zm28.71,0h15.88v161.28H812.4V875.77Zm29.32,0h15.88v161.28H841.71Zm29.33,0h15.87v161.28H871Zm29.32,0h15.89v161.28H900.36Zm29.32,0H945v161.28H929.68Z"
          transform="translate(-4.6 -375.82)"/>
    <path class="bb0ceb9d-8162-41d4-9eb5-3f395c7c23ea"
          d="M990.86,859.64h193.53v193.53H990.86ZM1007,875.77h15.27v161.28H1007Zm28.71,0h15.88v161.28h-15.88Zm29.33,0h15.88v161.28H1065Zm29.33,0h15.87v161.28h-15.87Zm29.31,0h15.9v161.28h-15.9Zm29.33,0h15.27v161.28H1153Z"
          transform="translate(-4.6 -375.82)"/>
    <path class="b6d33c58-4fd0-4117-9e4c-6b0863c9f22d"
          d="M990.86,636.34h193.53V829.86H990.86ZM1007,652.47h15.27V813.74H1007Zm28.71,0h15.88V813.74h-15.88Zm29.33,0h15.88V813.74H1065Zm29.33,0h15.87V813.74h-15.87Zm29.31,0h15.9V813.74h-15.9Zm29.33,0h15.27V813.74H1153Zm61.17,207.17H1407.7v193.53H1214.16Zm16.13,16.13h15.27v161.28h-15.27Zm28.71,0h15.88v161.28H1259Zm29.32,0h15.88v161.28h-15.88Zm29.33,0h15.89v161.28h-15.89Zm29.32,0h15.89v161.28H1347Zm29.33,0h15.27v161.28H1376.3Z"
          transform="translate(-4.6 -375.82)"/>
    <path class="bb0ceb9d-8162-41d4-9eb5-3f395c7c23ea"
          d="M1214.16,636.34H1407.7V829.86H1214.16Zm16.13,16.13h15.27V813.74h-15.27Zm28.71,0h15.88V813.74H1259Zm29.32,0h15.88V813.74h-15.88Zm29.33,0h15.89V813.74h-15.89Zm29.32,0h15.89V813.74H1347Zm29.33,0h15.27V813.74H1376.3Z"
          transform="translate(-4.6 -375.82)"/>
    <path class="b6d33c58-4fd0-4117-9e4c-6b0863c9f22d"
          d="M1214.16,413H1407.7V606.58H1214.16Zm16.13,16.12h15.27V590.44h-15.27V429.14Zm28.71,0h15.88V590.44H1259V429.14Zm29.32,0h15.88V590.44h-15.88V429.14Zm29.33,0h15.89V590.44h-15.89V429.14Zm29.32,0h15.89V590.44H1347V429.14Zm29.33,0h15.27V590.44H1376.3V429.14Z"
          transform="translate(-4.6 -375.82)"/>
    <path class="bb0ceb9d-8162-41d4-9eb5-3f395c7c23ea"
          d="M1437.46,859.64H1631v193.53H1437.46Zm16.11,16.13h15.29v161.28h-15.28V875.77Zm28.72,0h15.88v161.28h-15.88V875.77Zm29.33,0h15.89v161.28h-15.89Zm29.32,0h15.89v161.28h-15.89Zm29.33,0h15.88v161.28h-15.88Zm29.32,0h15.27v161.28h-15.27Z"
          transform="translate(-4.6 -375.82)"/>
    <path class="a659bad4-a763-430d-8a36-b87494c6776c"
          d="M949,1367a53.4,53.4,0,1,1,1.42,106.79H949A53.4,53.4,0,0,1,949,1367" transform="translate(-4.6 -375.82)"/>
    <path class="abfeb47a-244e-4e83-abce-7745c6c4bc24"
          d="M949,1382.1a38,38,0,0,1,13.84,2.59,15.6,15.6,0,1,0,21.49,21A38.24,38.24,0,1,1,949,1382.1M4.6,1256.31H2488.26c-54.07-13.71-171.09-32.25-151.8-103.13C2238.12,1267,2001,1233,1941.13,1176.91c-66.64,96.66-454.63,59.92-481.69-15.39-83.55,98.06-342.45,98.06-426,0-27.08,75.31-415.06,112-481.71,15.38-59.85,56.12-297,90.07-395.31-23.71,19.29,70.87-97.73,89.41-151.82,103.13"
          transform="translate(-4.6 -375.82)"/>
    <path class="ff2d717b-d3e9-4c17-a244-119648d602d0"
          d="M1090.9,1751.7c-132.23-62.74-204.8-148-245.18-241.15q-73.68,21-176.76,26.82-38.76,2.18-81.54,2.19-49.33,0-103.93-2.9c121.26,121.19,270.43,214.49,546.64,216.19q30.58,0,60.77-1.15"
          transform="translate(-4.6 -375.82)"/>
    <path class="a659bad4-a763-430d-8a36-b87494c6776c"
          d="M894.83,1596.47c-18.29-24.84-36-56-49.08-85.94-49.12,14-108.17,23-176.79,26.85,47.13,25.58,114.53,49.28,225.88,59.09"
          transform="translate(-4.6 -375.82)"/>
</svg>