<svg id="b61d5c99-6b54-4232-a548-25ef4a627798" data-name="Ebene 1" xmlns="http://www.w3.org/2000/svg"
     viewBox="0 0 356.678 356.143">
    <title>edit</title>
    <path d="M232.978,171.131l86.953,87.434,12.5,12.566V254.16L279.7,307.1l-84.058,84.4-19.322,19.4c-10.913,10.956,6.031,27.912,16.97,16.97l36.678-36.689L308.7,312.43l74.046-74.069c17.383-17.388,35.912-33.02,42.879-57.814,8.158-29.034-.34-61.677-22.348-82.474-21.986-20.777-55.029-28.2-83.721-18.263-23.44,8.122-39.157,26.931-56.14,43.914l-74.392,74.392L110.641,276.5,84.775,302.363c-4.835,4.835-11.993,10.061-12.4,17.384-.665,11.969,0,24.166,0,36.149v63.838l20.485-8.486-.5-.493L83.876,431.24l88.682,0h12.591c15.443,0,15.469-24,0-24l-88.682,0H83.876c-10.347,0-15.9,13.157-8.485,20.485l.5.494c7.374,7.291,20.485,1.957,20.485-8.485v-100l-3.515,8.485,28-28,63.606-63.606,69.871-69.871,45.688-45.688c5.027-5.027,9.666-9.6,15.545-13.127a59.488,59.488,0,0,1,60.114-.709c19.461,11.211,29.92,32.183,28.967,53.869a59.966,59.966,0,0,1-9.923,29.9,48.654,48.654,0,0,1-6.325,7.765c-12.049,12.225-24.274,24.281-36.41,36.42L285.03,302.158l-67.549,67.57L178.2,409.02l-1.876,1.877,16.97,16.97,52.725-52.937,84.057-84.4,19.323-19.4a12.19,12.19,0,0,0,0-16.971l-86.954-87.434-12.5-12.566c-10.906-10.966-27.879,6-16.97,16.971Z"
          transform="translate(-71.989 -75.443)"/>
</svg>