<svg id="a97103d1-bf0c-448e-82f0-c1acd9e2e383" data-name="Ebene 1" xmlns="http://www.w3.org/2000/svg"
     viewBox="0 0 458.53 479.02">
    <path d="M146.88,661.77c-6.65-5.56-6.82-9.56-.64-15.74q31.92-31.92,63.89-63.78a10.89,10.89,0,0,0,3.48-8.58c-.11-36-.07-72-.07-108.06,0-9,2.45-11.45,11.31-11.46,5.62,0,11.23-.11,16.84,0,2.64.07,3.95-.41,3.9-3.52-.17-10.91-.11-21.83,0-32.74,0-2.43-.52-3.56-3.31-3.78-6.28-.48-8.15-2.56-9.21-9-1.47-8.92-2.9-17.84-4.47-26.73-.83-4.7-4.35-6.7-8.75-5.1-6.44,2.34-12.81,4.87-19.28,7.11-2.45.85-3.3,2.1-3.25,4.73.21,11.7.22,23.39.25,35.08,0,7.22-2.61,10-9.8,10q-21.75.12-43.5,0c-2.56,0-4.06.43-5.4,3a23.61,23.61,0,0,1-27.21,12.21A24,24,0,0,1,111.8,399c11-2.67,21.68,2.12,27.16,12.39,1.07,2,2,2.95,4.51,2.91q17.07-.25,34.14,0c3,0,4.08-.73,4-3.9-.25-9.66-.22-19.33-.2-29a10.78,10.78,0,0,0-1.65-5.71q-6.4-10.86-12.63-21.84c-2.94-5.18-2.33-8.45,2.16-12.32,2.82-2.44,5.68-4.85,8.51-7.28,0-.05,0-.27-.09-.57-7.54,0-15.12-.07-22.69,0-11.69.14-23.38.46-35.07.54a4.75,4.75,0,0,0-5,3c-5.24,10.15-16.1,15.08-26.64,12.45a23.93,23.93,0,0,1-.6-46.41c10.87-2.87,21.72,1.83,27.19,12.13,1.23,2.31,2.5,3,5,2.95,23.23-.43,46.45-.73,69.68-1.13,1.27,0,3.13.71,3.66-1.06.41-1.39-1.24-2-2.15-2.76q-10.6-8.82-21.29-17.56c-2.35-1.92-4.44-4-4.37-7.32.06-3.05-2.31-1.93-3.7-1.94-13.57-.08-27.13,0-40.7-.05-8.85,0-11.27-2.46-11.28-11.47,0-8.58-.1-17.16,0-25.73.05-2.75-.57-4.39-3.28-5.83a23.55,23.55,0,0,1-11.82-27.36,24,24,0,0,1,46.29.36,23.67,23.67,0,0,1-11.86,27c-2.6,1.4-3.53,2.89-3.43,5.75.21,5.92.13,11.85,0,17.78,0,2.4.43,3.66,3.31,3.64q21.28-.19,42.57,0c2.25,0,3.34-.94,4.3-2.75,1.84-3.43,3.81-6.79,5.82-10.13,2.93-4.86,6-6,11.41-4.05,8.78,3.18,17.51,6.5,26.27,9.73,4.75,1.75,8.26-.13,9.13-5,1.55-8.74,3-17.5,4.41-26.27,1.18-7.35,3.4-9.36,10.73-9.42,9.83-.09,9.83-.09,9.83-10.09,0-6.86-.05-13.72,0-20.58.06-6.25,3-9.29,9.11-9.31q38.83-.08,77.65,0c6,0,8.77,2.92,8.93,9,.11,3.74.16,7.49,0,11.23-.12,2.76.74,3.87,3.69,3.84q23.85-.16,47.71,0c2.42,0,3.58-1.23,4.84-2.94,4.3-5.85,7-6.5,13.52-3.21,16.66,8.42,33.94,15.82,48.21,28.29,34.41,30.06,51.49,67.72,49.24,113.61-.54,11.15-4.91,21.21-11.65,30.07-1.92,2.52-1.9,4.37-.68,7.07C511.62,396.3,519,413,526.35,429.62c6,13.64-1.11,24.48-16.11,24.52-9.19,0-9.09,0-9.21,9.4-.27,22.16,2.58,14.85-12.5,30.28a11,11,0,0,0-3.57,8.57c.2,12.47.12,24.94.06,37.42,0,7.5-2.68,10.16-10.16,10.2-14.5.06-29,0-43.5,0-5.69,0-10.56-2.47-15.45-4.83-12.64-6.09-24.74-13.18-36.71-20.47-2.89-1.76-4.42-2.12-6.33,1.37-4.34,7.92-9.16,15.58-13.89,23.27a11.08,11.08,0,0,0-1.67,6.16c.07,11.69.13,23.39,0,35.08a8.74,8.74,0,0,0,2.89,6.92q24.43,24.19,48.66,48.58c6.13,6.14,5.87,10.36-.93,15.65ZM512.5,438.2c-.82-2-1.41-3.57-2.09-5.1-7.76-17.5-15.4-35.05-23.39-52.44-2.47-5.38-2.18-9.5,2-13.92a41,41,0,0,0,11.68-27.34c1.17-34.82-10.86-64.61-34.7-89.82-13.12-13.87-29.55-22.65-46.43-30.85-3-1.45-4.4-1.27-6.36,1.53-9.8,14.05-19.81,28-29.85,41.85a11.06,11.06,0,0,0-2.11,6.94q.08,41.37,0,82.76a11.17,11.17,0,0,0,2.47,7.27c6.26,8.16,12.33,16.46,18.58,24.63a13.11,13.11,0,0,1,2.91,8.6c-.14,9.2,0,18.39,0,27.59,0,6.59-1.18,8.26-7.44,10.77-9.68,3.88-19.35,7.78-29.06,11.56-2.29.89-3.46,2-3.44,4.69.13,15.9.09,31.8,0,47.7a4.68,4.68,0,0,0,2.44,4.55c19.43,12.12,38.91,24.12,59.77,33.7a11.31,11.31,0,0,0,4.9,1.26c11.07-.07,22.14-.16,33.2-.09,2.62,0,3.54-.86,3.5-3.49-.13-7.64-.28-15.29,0-22.91s-2.52-15.92,5.07-22.27c-13.62-2.45-24.78-7.93-34.05-17.05-3.52-3.46-3.75-8-.81-11.31s7.41-3.6,11.31-.58c1,.76,1.85,1.68,2.8,2.48a46.41,46.41,0,0,0,27.65,11.15c3,.2,4.13-.65,4-3.79-.2-6.23-.14-12.47,0-18.7.13-6.51,3-9.29,9.58-9.36C500.39,438.16,506.14,438.2,512.5,438.2Zm-303-120.93c0,11.82,0,11.82-8.31,18.65-4.93,4.06-9.78,8.23-14.83,12.14-2.1,1.62-2.76,2.89-1.14,5.31A85.88,85.88,0,0,1,191,363.48c1.28,2.61,2.74,2.7,5.17,1.7,5.32-2.19,10.94-3.73,16.11-6.2,7.88-3.78,15.26-5.06,22.3,1.56a7.73,7.73,0,0,0,2.47,1.28c3.79,1.57,5.79,4.29,6.39,8.44,1.17,8.16,2.78,16.26,4,24.42.4,2.61,1.25,3.81,4.1,3.63a98.94,98.94,0,0,1,11.68,0c2.6.14,3.53-.92,3.87-3.34.68-4.93,1.47-9.85,2.42-14.74,2.92-15.15.21-15.63,13.9-21.67a7.64,7.64,0,0,0,1.55-1c3.13-2.46,6.48-2.67,10.1-1.22,4.34,1.73,8.68,3.46,13.09,4.95s9.74,5.87,13.32,4.1c3.75-1.84,5.27-8,8-12.16,1.5-2.24.92-3.45-1-4.93-4.19-3.24-8-7.07-12.37-10-8.2-5.38-13.31-12-11.1-22.37a7.05,7.05,0,0,0-.09-2.33c-.49-3.79,1.08-6.59,4-8.89,3.67-2.89,7.3-5.84,10.82-8.91s10-5.49,10.24-9.52-4.31-8.59-6.52-13c-1.21-2.41-2.64-2.43-4.83-1.55-5.05,2-10.36,3.49-15.22,5.89-8.43,4.17-16.38,5.51-24-1.49a10.66,10.66,0,0,0-2.88-1.51,8.84,8.84,0,0,1-5.23-7.21c-.79-4.92-1.51-9.85-2.54-14.72-1-4.61.46-11.12-3.37-13.37-3.61-2.12-9.4-.43-14.22-.6-2.31-.09-3.28.64-3.58,3-.66,5.09-2,10.11-2.45,15.21-.89,9.58-3,18.16-13.71,21.36a8.92,8.92,0,0,0-2.32,1.54,8.82,8.82,0,0,1-8.84,1.09c-4.64-1.8-9.27-3.65-14-5.26-4.51-1.54-9.71-5.87-13.3-4-3.74,1.93-5.25,8.09-7.94,12.26-1.29,2-1,3.19.84,4.64,5.26,4.14,10.18,8.74,15.6,12.64C207.55,305.53,211.7,310.4,209.48,317.27ZM261.55,603.4l1.2.34c4.49-5.15,8.95-10.33,13.51-15.42,1.3-1.45,1.29-3.07,1.29-4.79,0-36.3-.06-72.61.08-108.91,0-3.81-1.23-4.66-4.79-4.6-12.77.19-25.55.28-38.32,0-4.33-.11-5.1,1.35-5.08,5.29.14,34.59,0,69.18.14,103.77a13.91,13.91,0,0,1-4.44,10.74c-17.4,17.19-34.65,34.54-51.93,51.85-1.14,1.14-2.19,2.37-3.87,4.19,18.9,0,36.79,0,54.68,0,1.84,0,2.81-1,3.84-2.18,5-5.76,10-11.58,15.11-17.21a9.65,9.65,0,0,0,2.61-7.14c-.11-14.64-.05-29.29-.05-43.94,0-9.37,0-9.4,9.25-9.35,7.52,0,6.73-.92,6.76,6.7C261.58,583,261.55,593.18,261.55,603.4Zm111.8-180.21-.15-.93h-3.95c-12.14,0-12,0-12-12.12,0-3.07.89-3.95,3.93-3.88,8.25.19,16.51,0,24.77.1,2.31,0,3.2-.5,3.33-3.06.35-6.56-.26-12.56-5.34-17.54-2.64-2.59-4.66-5.84-6.77-8.92a5.25,5.25,0,0,0-5-2.49c-10.75.17-21.5.22-32.25,0-3.26-.07-5,1-6.55,3.83-3.39,6.18-6.44,7.13-13.11,4.65-8.46-3.13-16.89-6.35-25.36-9.46-4.42-1.63-8,.38-8.8,5-1.59,9.2-3.07,18.42-4.64,27.62-1,5.83-3.56,8.07-9.42,8.26-2.33.08-4.68.14-7,0-2.62-.17-3.55.86-3.53,3.5q.15,16.59,0,33.19c0,2.35.68,3.27,3.18,3.26q40.67-.1,81.34,0c2.38,0,3.38-.65,3.27-3.15-.16-3.58.08-7.17-.06-10.75-.2-5.21,2.07-8.5,7-10.3C362,427.87,367.65,425.47,373.35,423.19Zm17.56-200.43h-5c-14.18,0-28.36,0-42.54,0-7.05,0-9.91-3-10-10-.06-3.59-.16-7.18,0-10.75.15-2.73-.95-3.39-3.52-3.38q-28.51.14-57,0c-2.76,0-3.43,1-3.36,3.52.16,5.76.13,11.53,0,17.3-.05,2.29.54,3.22,3.08,3.38,6,.39,8,2.52,9,8.6,1.51,9.06,3,18.12,4.6,27.17.79,4.57,4.41,6.61,8.81,5,8.17-3,16.32-6.08,24.48-9.13,7.88-2.95,10.13-2.2,14.47,5.07,1,1.65,1.8,3.05,4.16,3,8.11-.13,16.21,0,24.31-.06,1.22,0,2.37.1,3.14-1.37,6.37-12,15.46-22.17,22.89-33.47C389.3,226.3,390.79,225.22,390.91,222.76ZM247.18,645.82c20.6,0,39.9-.07,59.2.07,3.53,0,3.12-2,3.12-4.23,0-20.73-.14-41.45.11-62.18.05-4.43-.95-5.86-5.58-5.7-10.49.36-10.78.11-10.39,10.47A19.59,19.59,0,0,1,288,599.36c-8.17,8.77-15.88,18-23.78,27Zm138.81,0c-11.85-11.84-22.82-22.66-33.62-33.64-13.32-13.56-10.74-7.51-10.94-26.19-.14-12.93,0-12.88-13-12.14-2.13.12-3,.62-3,2.9q.09,33.19,0,66.39c0,2,.67,2.72,2.7,2.71C347,645.8,365.78,645.82,386,645.82Zm-92.46-131.4q0,19.85,0,39.7c0,2.08-.26,3.92,3,3.89,14-.14,28-.12,42,0,4.13,0,3.07-2.58,2.48-4.66-.3-1.07-1.54-1.9-2.42-2.78-8-8-15.93-16.21-24.15-24a14.68,14.68,0,0,1-5-11.9c.29-10.89.09-21.8.09-32.69,0-12,0-11.89-11.87-11.89-3.32,0-4.2,1-4.16,4.25C293.62,487.64,293.53,501,293.53,514.42Zm31.93-21.59c0,6.23,0,12.46,0,18.69,0,1.9.14,3.57,1.68,5.07q9.38,9.12,18.5,18.49c1.77,1.82,2.6,1.37,3.73-.58,3.2-5.52,6.33-11.09,9.92-16.36,2.26-3.32,1.67-5.13-1.8-6.58-6.72-2.8-8.75-7.95-8.3-15,.47-7.6,0-15.26.13-22.88,0-2.43-.47-3.74-3.32-3.65-5.76.18-11.53.2-17.29,0-2.89-.1-3.31,1.22-3.27,3.64C325.53,480.06,325.46,486.45,325.46,492.83Zm2.9-183.38.32,1.05c11.3,0,22.6,0,33.9,0,2,0,2.71-.95,2.7-2.85q0-13.07,0-26.11c0-1.74-.32-3.06-2.5-3.05-5.67,0-11.35,0-17.53,0,.6,1.4.85,2.1,1.19,2.75,4.32,8.08,4,10-3.05,15.78Zm.58,17.09-.46,1.06c5.59,4.62,11.21,9.19,16.75,13.87,4.55,3.83,5.08,7.1,2.38,12.31-.74,1.41-2.3,2.58-1.65,4.69,5.32,0,10.61-.07,15.89,0,2.26.05,3.48-.51,3.45-3.08-.09-8.71-.06-17.43,0-26.15,0-2-.77-2.76-2.76-2.75C351.33,326.56,340.14,326.54,328.94,326.54Zm-211.29-96a7.73,7.73,0,0,0,8-7.84,7.92,7.92,0,0,0-7.94-8,8.07,8.07,0,0,0-7.84,7.7A7.87,7.87,0,0,0,117.65,230.54Zm.3,199.6a7.88,7.88,0,0,0,0-15.76,7.88,7.88,0,1,0,0,15.76ZM101.24,326.56a7.93,7.93,0,0,0-7.92-8,7.89,7.89,0,0,0,.41,15.75A7.48,7.48,0,0,0,101.24,326.56Z"
          transform="translate(-69.96 -182.75)"/>
    <path d="M457,382.24c-3.89,0-7.78.12-11.66,0-4.85-.18-8.16-3.42-8.21-7.77s3.23-7.77,8-8.05c4.19-.24,8.4-.21,12.59,0,2.66.1,3.55-.83,3.43-3.47-.18-4-.13-8.09,0-12.13.16-5,3.17-8.08,7.7-8.18,4.69-.1,8.05,3.11,8.15,8.26.16,7.61.15,15.24,0,22.85-.09,5.4-3.05,8.36-8.38,8.54C464.8,382.36,460.91,382.25,457,382.24Z"
          transform="translate(-69.96 -182.75)"/>
    <path d="M413.28,278.47c0,4-.11,8.11.05,12.15.1,2.68-.61,3.83-3.6,3.95-12.43.47-12.43.57-12.43-11.83,0-5.45.17-10.91-.06-16.35-.14-3.18,1.08-3.91,4.05-3.94,12-.14,12-.23,12,11.82C413.29,275.67,413.29,277.07,413.28,278.47Z"
          transform="translate(-69.96 -182.75)"/>
    <path d="M413.29,318.55c-.16,9.16,1.31,7.89-7.79,8-8.2.07-8.2,0-8.2-8s0-8,7.75-8C414.7,310.62,413.11,309.34,413.29,318.55Z"
          transform="translate(-69.96 -182.75)"/>
    <path d="M413.29,350.65c0,7.83,0,7.83-7.93,7.83s-8.06,0-8.06-8.17c0-7.8,0-7.8,7.91-7.8C413.29,342.51,413.29,342.51,413.29,350.65Z"
          transform="translate(-69.96 -182.75)"/>
    <path d="M289.16,318.6a31.86,31.86,0,1,1-31.6-32A31.67,31.67,0,0,1,289.16,318.6Zm-47.78-.32a15.92,15.92,0,1,0,16.25-15.75A15.86,15.86,0,0,0,241.38,318.28Z"
          transform="translate(-69.96 -182.75)"/>
    <path d="M253.81,550c-8.28,0-8.34,0-8.27-8.45.08-8.76-1.22-7.49,7.73-7.57,8.29-.07,8.34,0,8.27,8.44C261.47,551.24,262.7,549.89,253.81,550Z"
          transform="translate(-69.96 -182.75)"/>
    <path d="M253.51,518c-8,0-8,0-8-8.25.07-9.06-1-7.64,7.56-7.72s8.46,0,8.46,8.24a16.47,16.47,0,0,0,0,2.33c.63,4.14-.83,6.17-5.26,5.42A17.43,17.43,0,0,0,253.51,518Z"
          transform="translate(-69.96 -182.75)"/>
    <path d="M309.5,414.69c0,7.57,0,7.57-7.58,7.57-8.39,0-8.39,0-8.39-8.59,0-7.34,0-7.34,7.32-7.34h.46C309.5,406.33,309.5,406.33,309.5,414.69Z"
          transform="translate(-69.96 -182.75)"/>
    <path d="M333.35,406.33c8.06,0,8.06,0,8.06,8s0,7.91-8.15,7.91c-7.81,0-7.81,0-7.81-7.77V414C325.45,406.33,325.45,406.33,333.35,406.33Z"
          transform="translate(-69.96 -182.75)"/>
</svg>