<svg width="107" height="276" viewBox="0 0 107 276" fill="none" xmlns="http://www.w3.org/2000/svg">
    <rect width="107" height="276" rx="5" fill="#343434"/>
    <g class="monitor">
        <path d="M9.01099 238.831C9.27614 238.436 9.40359 237.959 9.76836 237.618C10.2752 237.143 10.8729 236.853 11.5556 236.878C12.0508 236.896 12.0639 236.683 12.0639 236.303C12.0542 230.75 12.0512 225.199 12.0551 219.649C12.0551 218.89 12.0449 218.13 12.0551 217.371C12.0859 215.581 13.2051 214.251 14.9938 214.128C17.1314 213.976 19.2771 213.976 21.4147 214.128C23.1726 214.254 24.286 215.581 24.3211 217.351C24.3373 218.186 24.3211 219.024 24.3211 219.82C26.8643 219.506 29.3899 219.689 31.911 219.692C32.1908 219.692 32.6127 219.936 32.7226 219.825C32.938 219.605 32.8017 219.205 32.8032 218.881C32.8032 216.114 32.7929 213.348 32.8032 210.583C32.8032 208.825 33.6382 207.653 35.1383 207.226C35.3802 207.155 35.6304 207.115 35.8825 207.108C38.0052 207.084 40.1308 206.998 42.2477 207.146C42.9837 207.205 43.6729 207.531 44.1855 208.062C44.6981 208.594 44.9988 209.294 45.0311 210.032C45.078 210.788 45.0633 211.549 45.0604 212.308C45.0604 212.592 45.1117 212.705 45.4237 212.584C45.8471 212.418 46.3027 212.415 46.7495 212.415C48.2496 212.415 49.7497 212.415 51.2498 212.415C52.0057 212.415 52.7689 212.352 53.4853 212.676C53.6069 212.431 53.5541 212.216 53.5541 212.009C53.5541 208.018 53.5541 204.025 53.5541 200.031C53.5541 197.804 54.8448 196.515 57.0627 196.506C58.8353 196.506 60.6084 196.506 62.3819 196.506C64.4841 196.506 65.8128 197.824 65.8216 199.932C65.8333 202.13 65.8216 204.335 65.8216 206.535C65.8216 207.363 65.6531 207.591 64.8782 207.853C64.0593 207.587 63.9406 207.427 63.9392 206.547C63.9392 204.364 63.9392 202.183 63.9392 200C63.9392 198.96 63.4513 198.4 62.5064 198.388C60.9668 198.371 59.43 198.388 57.8889 198.402C57.7527 198.402 57.6179 198.382 57.4817 198.382C55.7882 198.368 55.4307 198.724 55.4307 200.433C55.4307 212.285 55.4307 224.137 55.4307 235.991C55.4307 236.146 55.4439 236.303 55.4307 236.458C55.4 236.771 55.5465 236.864 55.8409 236.853C56.4049 236.833 56.9689 236.837 57.5329 236.83C59.4213 236.837 61.3081 236.848 63.1964 236.848C64.0373 236.848 63.9421 236.947 63.9421 236.103C63.9421 227.6 63.9421 219.096 63.9421 210.591C63.9421 209.657 64.0886 209.452 64.8826 209.239C65.6575 209.468 65.8245 209.708 65.8245 210.607C65.8245 219.133 65.8245 227.659 65.8245 236.184C65.8245 236.672 65.8949 236.862 66.4574 236.881C67.0668 236.905 67.6466 237.15 68.0889 237.57C68.5312 237.99 68.8057 238.556 68.8614 239.164C68.9918 240.4 68.2065 241.521 66.9569 241.875C66.8822 241.897 66.8104 241.897 66.7797 241.988H66.5453C66.3988 241.805 66.1864 241.874 66.0003 241.874C62.3497 241.874 58.6986 241.874 55.0469 241.874C54.8609 241.874 54.6529 241.806 54.502 241.988H54.2676C54.0112 241.716 53.6977 241.478 53.6699 241.058C53.8618 240.286 54.083 240.104 54.8916 240.103H65.8216C66.0174 240.111 66.2136 240.101 66.4076 240.073C66.5659 240.057 66.7126 239.983 66.8186 239.864C66.9246 239.745 66.9823 239.591 66.9804 239.432C66.9893 239.273 66.9372 239.117 66.8349 238.995C66.7325 238.873 66.5875 238.795 66.4296 238.777C66.1988 238.743 65.9654 238.73 65.7322 238.739L13.8277 238.749C13.5948 238.749 13.3604 238.764 13.1275 238.771C12.6426 238.761 12.1577 238.731 11.6743 238.745C11.2348 238.756 10.9066 238.988 10.9227 239.457C10.9359 239.887 11.2436 240.107 11.6684 240.114C12.1533 240.122 12.6382 240.103 13.1231 240.094C13.4161 240.094 13.7091 240.11 14.0021 240.11H50.8616C51.8343 240.11 52.0423 240.256 52.246 241.078C52.1258 241.465 52.0247 241.871 51.5032 241.891L36.5827 241.88C36.4362 241.88 36.2678 241.849 36.1535 241.995H10.9989C10.5406 241.831 10.1245 241.567 9.7807 241.222C9.43691 240.877 9.174 240.46 9.01099 240.002V238.831ZM26.7837 221.554C26.5112 221.546 26.2388 221.533 25.9663 221.534C24.8134 221.534 24.3329 222.016 24.3285 223.163C24.3285 224.255 24.3285 225.345 24.3285 226.435C24.3285 229.727 24.3285 233.018 24.3285 236.307C24.3285 236.66 24.3285 236.903 24.806 236.862C25.3466 236.817 25.8945 236.84 26.4395 236.833C28.3834 236.84 30.3289 236.833 32.2714 236.867C32.7592 236.877 32.8398 236.707 32.8383 236.27C32.8222 231.936 32.8266 227.599 32.8237 223.263C32.8257 223.107 32.8173 222.952 32.7988 222.797C32.6845 221.978 32.2319 221.545 31.3968 221.537C29.8542 221.524 28.319 221.554 26.7837 221.554ZM16.3826 215.949C16.305 215.94 16.2273 215.927 16.1497 215.925C14.3917 215.878 13.9186 216.33 13.9186 218.071V235.922C13.9186 236.097 13.9303 236.273 13.9186 236.446C13.8951 236.757 14.0401 236.856 14.3331 236.849C14.8971 236.834 15.4611 236.84 16.0251 236.839C17.9721 236.839 19.9204 236.839 21.8674 236.856C22.3288 236.864 22.4636 236.732 22.4533 236.27C22.4299 234.011 22.4431 231.752 22.4431 229.494C22.4431 225.541 22.4431 221.586 22.4431 217.627C22.4431 216.516 21.9274 215.95 20.8185 215.933C19.3476 215.911 17.8681 215.941 16.3885 215.949H16.3826ZM47.4863 214.321C45.4867 214.16 45.0531 214.555 45.0531 216.543V228.62C45.0531 231.188 45.0531 233.755 45.0457 236.323C45.0457 236.711 45.1205 236.894 45.5541 236.861C46.0756 236.82 46.6015 236.839 47.1274 236.83C49.1505 236.837 51.1751 236.84 53.1982 236.856C53.4824 236.856 53.5644 236.76 53.56 236.486C53.5454 235.746 53.56 235.008 53.56 234.268C53.56 228.156 53.56 222.045 53.56 215.934C53.56 214.882 53.1205 214.323 52.1581 214.305C50.6067 214.276 49.0421 214.312 47.4863 214.321ZM37.0735 209.019C36.9563 209.019 36.8406 209.003 36.7234 209.002C35.0138 208.987 34.7208 209.279 34.7208 210.994C34.7208 219.332 34.7208 227.668 34.7208 236.004C34.7208 236.14 34.7325 236.278 34.7208 236.412C34.6871 236.738 34.8146 236.87 35.15 236.852C35.6745 236.826 36.2004 236.833 36.7263 236.826C38.6542 236.834 40.5835 236.826 42.5099 236.862C43.0607 236.874 43.1794 236.703 43.1794 236.18C43.1618 227.683 43.1574 219.19 43.1662 210.701C43.1662 210.565 43.1662 210.429 43.1662 210.292C43.1267 209.519 42.6462 209.012 41.8683 209.005C40.2671 208.993 38.6703 209.014 37.0735 209.019Z"
              fill="white"/>
        <path d="M15.1799 202.855C15.1799 201.084 16.5145 199.732 18.1728 199.716C18.5728 199.712 18.9693 199.789 19.3389 199.942C19.7085 200.095 20.0436 200.321 20.3244 200.606C20.6052 200.891 20.8259 201.229 20.9734 201.601C21.121 201.972 21.1923 202.37 21.1833 202.77C21.173 203.174 21.299 203.347 21.6228 203.52C23.0877 204.283 24.5395 205.07 25.9912 205.864C26.2974 206.029 26.5172 206.106 26.8599 205.842C27.1908 205.581 27.5793 205.403 27.993 205.324C28.4067 205.244 28.8334 205.264 29.2376 205.383C29.5305 205.465 29.7195 205.432 29.9305 205.172C31.9814 202.669 34.0392 200.176 36.1038 197.691C36.281 197.477 36.3469 197.323 36.2151 197.036C35.9431 196.482 35.8504 195.857 35.9499 195.247C36.0493 194.638 36.3361 194.075 36.7703 193.636C37.1929 193.215 37.7287 192.926 38.3126 192.804C38.8966 192.682 39.5033 192.732 40.0591 192.949C40.6229 193.176 41.1048 193.569 41.4415 194.075C41.7782 194.581 41.9541 195.177 41.946 195.785C41.946 196.138 42.047 196.295 42.3459 196.444C43.8226 197.186 45.2914 197.942 46.7525 198.712C47.0381 198.859 47.2374 198.886 47.5274 198.662C48.1632 198.172 48.9045 197.942 49.7248 198.117C50.0017 198.177 50.1438 198.076 50.2903 197.851C52.5561 194.359 54.8292 190.872 57.1096 187.388C57.2722 187.142 57.2664 186.984 57.1096 186.724C56.4753 185.637 56.4768 184.527 57.1858 183.478C57.8948 182.429 58.932 181.968 60.1772 182.187C61.4224 182.407 62.2633 183.179 62.6032 184.426C63.1452 186.417 61.4107 188.415 59.3803 188.122C59.0111 188.068 58.8265 188.178 58.6317 188.478C56.4069 191.924 54.167 195.363 51.912 198.796C51.7259 199.08 51.7333 199.266 51.912 199.559C52.2227 200.091 52.3622 200.706 52.3118 201.32C52.2613 201.934 52.0233 202.518 51.6299 202.992C51.2366 203.466 50.7069 203.808 50.1127 203.971C49.5186 204.134 48.8886 204.111 48.3082 203.904C47.7232 203.707 47.2153 203.33 46.8573 202.827C46.4992 202.324 46.3092 201.72 46.3144 201.103C46.3144 200.715 46.2134 200.517 45.8632 200.35C44.3822 199.617 42.9158 198.857 41.4552 198.087C41.1798 197.94 41.0055 197.928 40.7403 198.138C40.3916 198.422 39.9789 198.617 39.5379 198.707C39.0969 198.796 38.6408 198.777 38.2089 198.651C37.9159 198.571 37.7474 198.651 37.5672 198.876C35.5017 201.388 33.4307 203.896 31.3544 206.399C31.183 206.605 31.1713 206.759 31.2841 207.012C31.8334 208.239 31.6078 209.503 30.7186 210.414C30.291 210.845 29.7446 211.138 29.1494 211.257C28.5541 211.375 27.937 211.313 27.3771 211.079C26.2051 210.574 25.5283 209.475 25.5708 208.085C25.5858 207.992 25.5691 207.896 25.5235 207.813C25.4778 207.731 25.4057 207.666 25.3188 207.629C23.7235 206.78 22.1282 205.93 20.5446 205.061C20.2355 204.891 20.0904 205.095 19.8883 205.224C18.8892 205.867 17.8461 205.956 16.7914 205.395C16.3135 205.163 15.9097 204.802 15.6251 204.354C15.3405 203.905 15.1863 203.386 15.1799 202.855V202.855ZM50.4192 201.044C50.4147 200.751 50.2958 200.471 50.0878 200.264C49.8799 200.056 49.5993 199.939 49.3059 199.935C49.0129 199.949 48.7357 200.071 48.5287 200.279C48.3218 200.487 48.2003 200.764 48.1881 201.057C48.195 201.36 48.3201 201.648 48.5366 201.86C48.7531 202.072 49.0439 202.191 49.3469 202.191C49.6404 202.179 49.9173 202.052 50.118 201.837C50.3186 201.623 50.4268 201.338 50.4192 201.044V201.044ZM59.704 186.248C59.9969 186.246 60.2769 186.128 60.483 185.92C60.6892 185.712 60.8046 185.431 60.8042 185.138C60.791 184.836 60.6617 184.551 60.4433 184.342C60.225 184.133 59.9344 184.017 59.6323 184.017C59.3387 184.033 59.0634 184.165 58.8657 184.382C58.6681 184.6 58.564 184.887 58.576 185.18C58.5763 185.326 58.606 185.47 58.6635 185.604C58.7209 185.738 58.8049 185.859 58.9103 185.959C59.0157 186.059 59.1404 186.138 59.2768 186.189C59.4132 186.24 59.5586 186.262 59.704 186.256V186.248ZM38.9619 194.634C38.667 194.628 38.3814 194.737 38.1656 194.938C37.9498 195.139 37.8208 195.416 37.806 195.71C37.7811 196.286 38.3114 196.838 38.9047 196.859C39.0508 196.865 39.1965 196.841 39.3331 196.789C39.4696 196.737 39.5941 196.657 39.6989 196.555C39.8038 196.454 39.8868 196.332 39.9429 196.197C39.9991 196.062 40.0271 195.917 40.0254 195.77C40.0357 195.625 40.0158 195.478 39.9669 195.341C39.9181 195.203 39.8414 195.077 39.7415 194.97C39.6417 194.863 39.521 194.778 39.3868 194.721C39.2526 194.663 39.108 194.633 38.9619 194.634V194.634ZM28.5798 209.408C28.875 209.404 29.1569 209.284 29.3649 209.075C29.5728 208.865 29.6902 208.582 29.6917 208.287C29.6754 207.992 29.5491 207.714 29.3378 207.508C29.1266 207.301 28.8457 207.182 28.5505 207.172C28.2544 207.18 27.9734 207.305 27.7691 207.519C27.5648 207.733 27.4539 208.02 27.4606 208.316C27.4587 208.462 27.4865 208.608 27.5425 208.743C27.5984 208.878 27.6812 209 27.7859 209.102C27.8906 209.204 28.015 209.284 28.1515 209.336C28.2879 209.389 28.4337 209.413 28.5798 209.408V209.408ZM19.2994 202.725C19.2937 202.437 19.1763 202.162 18.972 201.959C18.7678 201.756 18.4926 201.64 18.2045 201.636C17.9165 201.632 17.6382 201.74 17.4284 201.938C17.2186 202.135 17.0936 202.406 17.08 202.694C17.0682 203.305 17.6147 203.866 18.2021 203.866C18.4946 203.847 18.7694 203.72 18.9726 203.508C19.1757 203.297 19.2923 203.018 19.2994 202.725Z"
              fill="white"/>
        <path d="M5.93945 255.49H4.48047V265H6.02734V257.433C6.0625 257.339 6.10645 257.251 6.15918 257.169C6.21777 257.087 6.28516 257.014 6.36133 256.949C6.46094 256.867 6.58105 256.806 6.72168 256.765C6.86816 256.718 7.03809 256.694 7.23145 256.694C7.40723 256.694 7.55957 256.718 7.68848 256.765C7.82324 256.806 7.93457 256.873 8.02246 256.967C8.11621 257.066 8.18359 257.192 8.22461 257.345C8.27148 257.497 8.29492 257.673 8.29492 257.872V265H9.8418V257.881C9.8418 257.846 9.8418 257.816 9.8418 257.793C9.8418 257.764 9.8418 257.734 9.8418 257.705C9.85938 257.559 9.89453 257.427 9.94727 257.31C10 257.187 10.0732 257.078 10.167 256.984C10.2607 256.896 10.3779 256.826 10.5186 256.773C10.6592 256.721 10.8262 256.694 11.0195 256.694C11.2012 256.694 11.3594 256.718 11.4941 256.765C11.6348 256.812 11.752 256.882 11.8457 256.976C11.9336 257.075 12.001 257.201 12.0479 257.354C12.0947 257.506 12.1182 257.682 12.1182 257.881V265H13.665V257.898C13.665 257.441 13.6123 257.046 13.5068 256.712C13.4014 256.372 13.249 256.097 13.0498 255.886C12.8682 255.698 12.6455 255.558 12.3818 255.464C12.1182 255.364 11.8223 255.314 11.4941 255.314C11.2539 255.32 11.0312 255.353 10.8262 255.411C10.627 255.47 10.4453 255.549 10.2812 255.648C10.1523 255.736 10.0322 255.839 9.9209 255.956C9.80957 256.073 9.71289 256.199 9.63086 256.334C9.56641 256.188 9.4873 256.056 9.39355 255.938C9.30566 255.821 9.20605 255.722 9.09473 255.64C8.94238 255.534 8.76367 255.455 8.55859 255.402C8.35938 255.344 8.13379 255.314 7.88184 255.314C7.43652 255.32 7.05566 255.417 6.73926 255.604C6.42871 255.792 6.17676 256.053 5.9834 256.387L5.93945 255.49ZM15.5459 260.157V260.351C15.5459 261.036 15.6455 261.672 15.8447 262.258C16.0439 262.844 16.3311 263.354 16.7061 263.787C17.0752 264.221 17.5264 264.561 18.0596 264.807C18.5986 265.053 19.2051 265.176 19.8789 265.176C20.5469 265.176 21.1475 265.053 21.6807 264.807C22.2139 264.561 22.668 264.221 23.043 263.787C23.4121 263.354 23.6963 262.844 23.8955 262.258C24.0947 261.672 24.1943 261.036 24.1943 260.351V260.157C24.1943 259.472 24.0947 258.836 23.8955 258.25C23.6963 257.658 23.4121 257.146 23.043 256.712C22.668 256.278 22.2109 255.938 21.6719 255.692C21.1387 255.44 20.5352 255.314 19.8613 255.314C19.1934 255.314 18.5928 255.44 18.0596 255.692C17.5264 255.938 17.0752 256.278 16.7061 256.712C16.3311 257.146 16.0439 257.658 15.8447 258.25C15.6455 258.836 15.5459 259.472 15.5459 260.157ZM17.1719 260.351V260.157C17.1719 259.694 17.2275 259.252 17.3389 258.83C17.4502 258.402 17.6201 258.027 17.8486 257.705C18.0713 257.383 18.3496 257.128 18.6836 256.94C19.0176 256.747 19.4102 256.65 19.8613 256.65C20.3125 256.65 20.7051 256.747 21.0391 256.94C21.3789 257.128 21.6631 257.383 21.8916 257.705C22.1143 258.027 22.2812 258.402 22.3926 258.83C22.5098 259.252 22.5684 259.694 22.5684 260.157V260.351C22.5684 260.819 22.5127 261.268 22.4014 261.695C22.29 262.117 22.123 262.489 21.9004 262.812C21.6719 263.134 21.3877 263.389 21.0479 263.576C20.7139 263.764 20.3242 263.857 19.8789 263.857C19.4277 263.857 19.0322 263.764 18.6924 263.576C18.3525 263.389 18.0713 263.134 17.8486 262.812C17.6201 262.489 17.4502 262.117 17.3389 261.695C17.2275 261.268 17.1719 260.819 17.1719 260.351ZM26.8135 265H28.4395V258.18C28.5508 257.975 28.6797 257.787 28.8262 257.617C28.9785 257.447 29.1426 257.298 29.3184 257.169C29.5352 257.022 29.7725 256.908 30.0303 256.826C30.2881 256.738 30.5664 256.694 30.8652 256.694C31.2109 256.694 31.5156 256.735 31.7793 256.817C32.0488 256.899 32.2773 257.031 32.4648 257.213C32.6465 257.395 32.7842 257.632 32.8779 257.925C32.9717 258.218 33.0186 258.575 33.0186 258.997V265H34.6445V258.962C34.6445 258.329 34.5654 257.784 34.4072 257.327C34.2549 256.864 34.0352 256.483 33.748 256.185C33.4609 255.886 33.1123 255.666 32.7021 255.525C32.2979 255.385 31.8467 255.314 31.3486 255.314C30.9795 255.32 30.6279 255.376 30.2939 255.481C29.9658 255.581 29.6611 255.725 29.3799 255.912C29.1924 256.035 29.0137 256.182 28.8438 256.352C28.6797 256.516 28.5273 256.697 28.3867 256.896L28.2725 255.49H26.8135V265ZM37.8789 255.49V256.905H41.1133V263.594H37.8789V265H45.8418V263.594H42.7393V255.49H37.8789ZM40.9023 252.994C40.9023 253.258 40.9814 253.478 41.1396 253.653C41.3037 253.829 41.5498 253.917 41.8779 253.917C42.2002 253.917 42.4434 253.829 42.6074 253.653C42.7715 253.478 42.8535 253.258 42.8535 252.994C42.8535 252.848 42.8301 252.713 42.7832 252.59C42.7363 252.467 42.666 252.364 42.5723 252.282C42.4961 252.206 42.3994 252.147 42.2822 252.106C42.165 252.06 42.0303 252.036 41.8779 252.036C41.7256 252.036 41.5879 252.06 41.4648 252.106C41.3477 252.147 41.251 252.206 41.1748 252.282C41.0811 252.37 41.0107 252.476 40.9639 252.599C40.9229 252.722 40.9023 252.854 40.9023 252.994ZM52.2842 253.188H50.6494V255.49H48.1533V256.747H50.6494V261.915C50.6494 262.501 50.7256 263.002 50.8779 263.418C51.0361 263.828 51.25 264.162 51.5195 264.42C51.7891 264.684 52.1055 264.877 52.4688 265C52.8379 265.117 53.2334 265.176 53.6553 265.176C53.9072 265.176 54.1592 265.164 54.4111 265.141C54.6689 265.117 54.9121 265.082 55.1406 265.035C55.3691 264.994 55.5801 264.944 55.7734 264.886C55.9668 264.821 56.1309 264.748 56.2656 264.666L56.0371 263.515C55.9375 263.538 55.8086 263.567 55.6504 263.603C55.498 263.632 55.334 263.661 55.1582 263.69C54.9766 263.72 54.792 263.746 54.6045 263.77C54.417 263.787 54.2354 263.796 54.0596 263.796C53.8193 263.796 53.5908 263.767 53.374 263.708C53.1631 263.649 52.9756 263.547 52.8115 263.4C52.6475 263.26 52.5186 263.069 52.4248 262.829C52.3311 262.589 52.2842 262.284 52.2842 261.915V256.747H55.9053V255.49H52.2842V253.188ZM58.7881 260.157V260.351C58.7881 261.036 58.8877 261.672 59.0869 262.258C59.2861 262.844 59.5732 263.354 59.9482 263.787C60.3174 264.221 60.7686 264.561 61.3018 264.807C61.8408 265.053 62.4473 265.176 63.1211 265.176C63.7891 265.176 64.3896 265.053 64.9229 264.807C65.4561 264.561 65.9102 264.221 66.2852 263.787C66.6543 263.354 66.9385 262.844 67.1377 262.258C67.3369 261.672 67.4365 261.036 67.4365 260.351V260.157C67.4365 259.472 67.3369 258.836 67.1377 258.25C66.9385 257.658 66.6543 257.146 66.2852 256.712C65.9102 256.278 65.4531 255.938 64.9141 255.692C64.3809 255.44 63.7773 255.314 63.1035 255.314C62.4355 255.314 61.835 255.44 61.3018 255.692C60.7686 255.938 60.3174 256.278 59.9482 256.712C59.5732 257.146 59.2861 257.658 59.0869 258.25C58.8877 258.836 58.7881 259.472 58.7881 260.157ZM60.4141 260.351V260.157C60.4141 259.694 60.4697 259.252 60.5811 258.83C60.6924 258.402 60.8623 258.027 61.0908 257.705C61.3135 257.383 61.5918 257.128 61.9258 256.94C62.2598 256.747 62.6523 256.65 63.1035 256.65C63.5547 256.65 63.9473 256.747 64.2812 256.94C64.6211 257.128 64.9053 257.383 65.1338 257.705C65.3564 258.027 65.5234 258.402 65.6348 258.83C65.752 259.252 65.8105 259.694 65.8105 260.157V260.351C65.8105 260.819 65.7549 261.268 65.6436 261.695C65.5322 262.117 65.3652 262.489 65.1426 262.812C64.9141 263.134 64.6299 263.389 64.29 263.576C63.9561 263.764 63.5664 263.857 63.1211 263.857C62.6699 263.857 62.2744 263.764 61.9346 263.576C61.5947 263.389 61.3135 263.134 61.0908 262.812C60.8623 262.489 60.6924 262.117 60.5811 261.695C60.4697 261.268 60.4141 260.819 60.4141 260.351ZM76.2871 255.314C75.5957 255.314 74.9775 255.467 74.4326 255.771C73.8936 256.07 73.4307 256.48 73.0439 257.002L73.0352 256.765L72.9648 255.49H71.418V265H73.0527V258.9C73.1582 258.607 73.29 258.344 73.4482 258.109C73.6123 257.869 73.8027 257.667 74.0195 257.503C74.2598 257.315 74.541 257.175 74.8633 257.081C75.1855 256.981 75.5459 256.932 75.9443 256.932C76.2549 256.932 76.5508 256.949 76.832 256.984C77.1191 257.014 77.4209 257.063 77.7373 257.134L77.957 255.543C77.793 255.473 77.5469 255.417 77.2188 255.376C76.8965 255.335 76.5859 255.314 76.2871 255.314Z"
              fill="white"/>
    </g>
    <g class="connect">
        <path d="M5 22.8343C5.22066 22.7541 5.1696 22.5298 5.22431 22.3748C5.92643 20.3687 7.3033 19.156 9.41877 18.8405C9.91298 18.7657 10.1081 18.5979 10.2358 18.0873C10.6681 16.4221 11.6324 14.9436 12.982 13.8767C14.3317 12.8099 15.9928 12.2129 17.7128 12.1768C21.6757 12.1421 25.6404 12.1622 29.6032 12.1768C29.9618 12.185 30.3113 12.064 30.588 11.8357C46.2169 -0.361016 69.2499 7.49903 74.1575 26.7023C74.4602 27.8804 74.2669 28.3236 73.2183 28.8506C72.1149 28.8032 71.7885 28.5151 71.4748 27.3169C69.842 20.9666 65.7569 15.5232 60.1158 12.181C54.4747 8.8387 47.7382 7.87046 41.3842 9.48866C28.4361 12.7549 20.3973 25.878 23.3298 38.952C26.3917 52.5876 40.341 61.1297 53.8034 57.4258C63.1042 54.8727 68.9399 48.6831 71.5533 39.4207C71.845 38.383 72.1678 38.1058 73.2146 38.0711C74.2158 38.4924 74.4638 38.983 74.2012 40.0571C72.9003 45.4116 70.0133 50.2487 65.918 53.9354C61.8226 57.622 56.7098 59.9865 51.2484 60.7194C43.6401 61.7698 36.7703 59.8568 30.6591 55.2228C30.3472 54.9644 29.9535 54.8254 29.5485 54.8307C25.7899 54.8471 22.0295 54.8417 18.2709 54.8398C14.0363 54.8398 10.9871 52.3961 10.0753 48.2746C10.0188 48.0229 9.97499 47.8862 9.67226 47.8533C7.3799 47.5926 5.9009 46.3233 5.18237 44.144C5.14954 44.0419 5.15319 43.9124 5 43.8905V37.7319C5.36474 37.1429 5.83342 36.7162 6.5866 36.7909C6.95133 36.8256 6.91668 36.5976 6.91486 36.366C6.91486 35.6365 6.90392 34.9071 6.91486 34.1776C6.92763 33.3132 7.50391 32.6949 8.27532 32.6949C9.04674 32.6949 9.62849 33.3095 9.64308 34.1758C9.65767 34.9052 9.65949 35.6347 9.64308 36.3642C9.63396 36.676 9.70144 36.8073 10.0479 36.7964C10.823 36.7709 11.5981 36.7672 12.3713 36.7964C12.736 36.811 12.829 36.6797 12.8181 36.3314C12.7962 35.5581 12.7835 34.7812 12.8272 34.0098C12.8424 33.652 12.9967 33.3143 13.2574 33.0686C13.518 32.823 13.8643 32.6889 14.2223 32.6949C14.9518 32.7168 15.5153 33.2803 15.539 34.0755C15.5591 34.7812 15.5755 35.4906 15.539 36.1946C15.5117 36.6651 15.643 36.8073 16.1299 36.8037C17.0946 36.7946 17.6016 37.3216 17.6107 38.2827C17.6235 39.8328 17.6107 41.3829 17.6107 42.9312C17.6118 43.2494 17.5751 43.5665 17.5013 43.8759C16.8703 46.3032 15.2418 47.5798 12.8181 47.9099C13.0317 49.0611 13.6336 50.1042 14.5234 50.8652C15.4132 51.6262 16.537 52.0591 17.7074 52.0916C20.0982 52.128 22.4927 52.1025 24.8835 52.1043H27.2306C22.4891 46.7263 20.0125 40.5787 20.0107 33.5028C20.0089 26.427 22.4872 20.2794 27.196 14.936C23.8167 14.936 20.5177 14.812 17.2332 14.9816C15.2126 15.0837 13.7919 16.3949 13.0242 18.297C12.8947 18.6107 12.8838 18.7657 13.2941 18.8441C16.088 19.4241 17.6071 21.2933 17.6198 24.1328C17.6198 25.4774 17.6198 26.8215 17.6198 28.1649C17.6198 29.3941 17.1657 29.8354 15.9165 29.8354C12.8637 29.8354 9.81086 29.8172 6.75802 29.85C5.93372 29.8591 5.35197 29.6002 5.00912 28.8452L5 22.8343ZM11.3063 39.5264C10.2613 39.5264 9.21634 39.5264 8.17137 39.5264C7.86317 39.5264 7.72093 39.5921 7.72822 39.9368C7.74828 40.9361 7.70634 41.9428 7.74646 42.9367C7.77239 43.5224 8.02083 44.076 8.44107 44.4847C8.86131 44.8935 9.42168 45.1264 10.0078 45.1361C10.8704 45.1598 11.7348 45.158 12.5974 45.1361C13.197 45.1337 13.7713 44.8948 14.1958 44.4714C14.6202 44.048 14.8604 43.4742 14.8643 42.8747C14.8934 41.9227 14.8551 40.9671 14.8825 40.0134C14.8934 39.6176 14.7548 39.51 14.3755 39.5191C13.3524 39.541 12.3294 39.5264 11.3063 39.5264ZM11.2625 27.1054C12.2856 27.1054 13.3105 27.089 14.3336 27.1054C14.733 27.1054 14.9007 27.0251 14.8807 26.5838C14.846 25.6975 14.8807 24.8094 14.8661 23.9212C14.8479 22.5024 13.8977 21.5395 12.4771 21.5012C11.682 21.4775 10.8832 21.472 10.0881 21.5012C8.71301 21.5559 7.76105 22.5462 7.74099 23.9231C7.72822 24.8349 7.75375 25.7467 7.74099 26.6586C7.73187 27.0233 7.84858 27.1273 8.2042 27.12C9.21452 27.0926 10.2394 27.1054 11.2625 27.1054Z"
              fill="white"/>
        <path d="M73.6067 32.1113C74.2741 32.1496 74.6845 32.5527 75.0036 33.0888V33.9022C74.6753 34.4256 74.2741 34.8523 73.6085 34.8797C72.7076 34.6499 72.2699 34.1958 72.2717 33.4919C72.2736 32.7879 72.7094 32.3338 73.6067 32.1113Z"
              fill="white"/>
        <path d="M36.9909 33.2986C36.9909 30.4281 36.9909 27.5594 36.9909 24.6908C37 21.1693 40.5361 19.0648 43.5871 20.8045C48.6022 23.6641 53.6015 26.5516 58.585 29.467C61.6287 31.2469 61.6287 35.2791 58.585 37.0644C53.6003 39.9823 48.6004 42.8692 43.5853 45.7251C40.5325 47.4667 37.0055 45.3604 36.9963 41.8352C36.9854 38.9903 36.9909 36.1435 36.9909 33.2986ZM39.7264 33.2639C39.7264 36.1088 39.7264 38.955 39.7264 41.8024C39.7264 43.3415 40.9592 44.082 42.2795 43.3215C47.2217 40.4802 52.1584 37.6292 57.0896 34.7684C58.4592 33.9751 58.461 32.5436 57.0896 31.7557C52.1754 28.9132 47.2576 26.0756 42.3361 23.2428C40.9464 22.444 39.7191 23.1772 39.7173 24.7929C39.7197 27.616 39.7221 30.4396 39.7246 33.2639H39.7264Z"
              fill="white"/>
        <path d="M7.74414 78.8574C7.23438 78.8574 6.80664 78.7578 6.46094 78.5586C6.12109 78.3535 5.84863 78.0869 5.64355 77.7588C5.43262 77.4365 5.28027 77.0732 5.18652 76.6689C5.09863 76.2588 5.05469 75.8457 5.05469 75.4297V75.0605C5.05469 74.6504 5.09863 74.2432 5.18652 73.8389C5.28027 73.4346 5.43262 73.0684 5.64355 72.7402C5.85449 72.418 6.12988 72.1572 6.46973 71.958C6.81543 71.7529 7.24023 71.6504 7.74414 71.6504C8.07227 71.6504 8.37695 71.7061 8.6582 71.8174C8.94531 71.9287 9.19141 72.0811 9.39648 72.2744C9.60156 72.4678 9.7627 72.6934 9.87988 72.9512C10.0029 73.2031 10.0674 73.4727 10.0732 73.7598H11.6113C11.6113 73.2793 11.5146 72.8281 11.3213 72.4062C11.1279 71.9844 10.8613 71.6182 10.5215 71.3076C10.1758 71.0029 9.76562 70.7627 9.29102 70.5869C8.82227 70.4053 8.30664 70.3145 7.74414 70.3145C7.02344 70.3145 6.39355 70.4434 5.85449 70.7012C5.31543 70.959 4.86719 71.3047 4.50977 71.7383C4.14648 72.1777 3.87402 72.6846 3.69238 73.2588C3.51074 73.833 3.41992 74.4336 3.41992 75.0605V75.4297C3.41992 76.0625 3.51074 76.666 3.69238 77.2402C3.87402 77.8086 4.14648 78.3096 4.50977 78.7432C4.86719 79.1826 5.31543 79.5312 5.85449 79.7891C6.39355 80.0469 7.02344 80.1758 7.74414 80.1758C8.24805 80.1758 8.73145 80.0908 9.19434 79.9209C9.65723 79.7451 10.0674 79.5107 10.4248 79.2178C10.7822 78.9307 11.0664 78.5967 11.2773 78.2158C11.4941 77.8291 11.6055 77.4248 11.6113 77.0029H10.0732C10.0674 77.2666 9.99707 77.5127 9.8623 77.7412C9.7334 77.9639 9.56055 78.1572 9.34375 78.3213C9.12695 78.4912 8.87793 78.623 8.59668 78.7168C8.32129 78.8105 8.03711 78.8574 7.74414 78.8574ZM14.0459 75.1572V75.3506C14.0459 76.0361 14.1455 76.6719 14.3447 77.2578C14.5439 77.8438 14.8311 78.3535 15.2061 78.7871C15.5752 79.2207 16.0264 79.5605 16.5596 79.8066C17.0986 80.0527 17.7051 80.1758 18.3789 80.1758C19.0469 80.1758 19.6475 80.0527 20.1807 79.8066C20.7139 79.5605 21.168 79.2207 21.543 78.7871C21.9121 78.3535 22.1963 77.8438 22.3955 77.2578C22.5947 76.6719 22.6943 76.0361 22.6943 75.3506V75.1572C22.6943 74.4717 22.5947 73.8359 22.3955 73.25C22.1963 72.6582 21.9121 72.1455 21.543 71.7119C21.168 71.2783 20.7109 70.9385 20.1719 70.6924C19.6387 70.4404 19.0352 70.3145 18.3613 70.3145C17.6934 70.3145 17.0928 70.4404 16.5596 70.6924C16.0264 70.9385 15.5752 71.2783 15.2061 71.7119C14.8311 72.1455 14.5439 72.6582 14.3447 73.25C14.1455 73.8359 14.0459 74.4717 14.0459 75.1572ZM15.6719 75.3506V75.1572C15.6719 74.6943 15.7275 74.252 15.8389 73.8301C15.9502 73.4023 16.1201 73.0273 16.3486 72.7051C16.5713 72.3828 16.8496 72.1279 17.1836 71.9404C17.5176 71.7471 17.9102 71.6504 18.3613 71.6504C18.8125 71.6504 19.2051 71.7471 19.5391 71.9404C19.8789 72.1279 20.1631 72.3828 20.3916 72.7051C20.6143 73.0273 20.7812 73.4023 20.8926 73.8301C21.0098 74.252 21.0684 74.6943 21.0684 75.1572V75.3506C21.0684 75.8193 21.0127 76.2676 20.9014 76.6953C20.79 77.1172 20.623 77.4893 20.4004 77.8115C20.1719 78.1338 19.8877 78.3887 19.5479 78.5762C19.2139 78.7637 18.8242 78.8574 18.3789 78.8574C17.9277 78.8574 17.5322 78.7637 17.1924 78.5762C16.8525 78.3887 16.5713 78.1338 16.3486 77.8115C16.1201 77.4893 15.9502 77.1172 15.8389 76.6953C15.7275 76.2676 15.6719 75.8193 15.6719 75.3506ZM25.3135 80H26.9395V73.1797C27.0508 72.9746 27.1797 72.7871 27.3262 72.6172C27.4785 72.4473 27.6426 72.2979 27.8184 72.1689C28.0352 72.0225 28.2725 71.9082 28.5303 71.8262C28.7881 71.7383 29.0664 71.6943 29.3652 71.6943C29.7109 71.6943 30.0156 71.7354 30.2793 71.8174C30.5488 71.8994 30.7773 72.0312 30.9648 72.2129C31.1465 72.3945 31.2842 72.6318 31.3779 72.9248C31.4717 73.2178 31.5186 73.5752 31.5186 73.9971V80H33.1445V73.9619C33.1445 73.3291 33.0654 72.7842 32.9072 72.3271C32.7549 71.8643 32.5352 71.4834 32.248 71.1846C31.9609 70.8857 31.6123 70.666 31.2021 70.5254C30.7979 70.3848 30.3467 70.3145 29.8486 70.3145C29.4795 70.3203 29.1279 70.376 28.7939 70.4814C28.4658 70.5811 28.1611 70.7246 27.8799 70.9121C27.6924 71.0352 27.5137 71.1816 27.3438 71.3516C27.1797 71.5156 27.0273 71.6973 26.8867 71.8965L26.7725 70.4902H25.3135V80ZM36.124 80H37.75V73.1797C37.8613 72.9746 37.9902 72.7871 38.1367 72.6172C38.2891 72.4473 38.4531 72.2979 38.6289 72.1689C38.8457 72.0225 39.083 71.9082 39.3408 71.8262C39.5986 71.7383 39.877 71.6943 40.1758 71.6943C40.5215 71.6943 40.8262 71.7354 41.0898 71.8174C41.3594 71.8994 41.5879 72.0312 41.7754 72.2129C41.957 72.3945 42.0947 72.6318 42.1885 72.9248C42.2822 73.2178 42.3291 73.5752 42.3291 73.9971V80H43.9551V73.9619C43.9551 73.3291 43.876 72.7842 43.7178 72.3271C43.5654 71.8643 43.3457 71.4834 43.0586 71.1846C42.7715 70.8857 42.4229 70.666 42.0127 70.5254C41.6084 70.3848 41.1572 70.3145 40.6592 70.3145C40.29 70.3203 39.9385 70.376 39.6045 70.4814C39.2764 70.5811 38.9717 70.7246 38.6904 70.9121C38.5029 71.0352 38.3242 71.1816 38.1543 71.3516C37.9902 71.5156 37.8379 71.6973 37.6973 71.8965L37.583 70.4902H36.124V80ZM51.1357 80.1758C52.0615 80.1758 52.8379 79.9912 53.4648 79.6221C54.0977 79.2471 54.5723 78.8193 54.8887 78.3389L53.8955 77.5654C53.5967 77.9521 53.2217 78.2627 52.7705 78.4971C52.3193 78.7314 51.8037 78.8486 51.2236 78.8486C50.7842 78.8486 50.3828 78.7666 50.0195 78.6025C49.6562 78.4385 49.3457 78.2129 49.0879 77.9258C48.8359 77.6562 48.6367 77.3457 48.4902 76.9941C48.3496 76.6426 48.2588 76.2354 48.2178 75.7725V75.7109H55.0117V74.9814C55.0117 74.3193 54.9268 73.7041 54.7568 73.1357C54.5928 72.5674 54.3408 72.0723 54.001 71.6504C53.6611 71.2344 53.2334 70.9092 52.7178 70.6748C52.208 70.4346 51.6104 70.3145 50.9248 70.3145C50.3799 70.3145 49.8467 70.4258 49.3252 70.6484C48.8096 70.8711 48.3496 71.1904 47.9453 71.6064C47.5352 72.0283 47.207 72.5439 46.9609 73.1533C46.7148 73.7568 46.5918 74.4424 46.5918 75.21V75.5791C46.5918 76.2412 46.7031 76.8535 46.9258 77.416C47.1484 77.9785 47.459 78.4648 47.8574 78.875C48.2559 79.2852 48.7334 79.6045 49.29 79.833C49.8525 80.0615 50.4678 80.1758 51.1357 80.1758ZM50.9248 71.6504C51.3408 71.6504 51.6982 71.7266 51.9971 71.8789C52.3018 72.0312 52.5537 72.2305 52.7529 72.4766C52.9521 72.7227 53.1074 73.0156 53.2188 73.3555C53.3301 73.6895 53.3857 74.0029 53.3857 74.2959V74.375H48.2705C48.335 73.9355 48.4463 73.5488 48.6045 73.2148C48.7686 72.875 48.9678 72.5879 49.2021 72.3535C49.4365 72.125 49.7002 71.9521 49.9932 71.835C50.2861 71.7119 50.5967 71.6504 50.9248 71.6504ZM61.7969 78.8574C61.2871 78.8574 60.8594 78.7578 60.5137 78.5586C60.1738 78.3535 59.9014 78.0869 59.6963 77.7588C59.4854 77.4365 59.333 77.0732 59.2393 76.6689C59.1514 76.2588 59.1074 75.8457 59.1074 75.4297V75.0605C59.1074 74.6504 59.1514 74.2432 59.2393 73.8389C59.333 73.4346 59.4854 73.0684 59.6963 72.7402C59.9072 72.418 60.1826 72.1572 60.5225 71.958C60.8682 71.7529 61.293 71.6504 61.7969 71.6504C62.125 71.6504 62.4297 71.7061 62.7109 71.8174C62.998 71.9287 63.2441 72.0811 63.4492 72.2744C63.6543 72.4678 63.8154 72.6934 63.9326 72.9512C64.0557 73.2031 64.1201 73.4727 64.126 73.7598H65.6641C65.6641 73.2793 65.5674 72.8281 65.374 72.4062C65.1807 71.9844 64.9141 71.6182 64.5742 71.3076C64.2285 71.0029 63.8184 70.7627 63.3438 70.5869C62.875 70.4053 62.3594 70.3145 61.7969 70.3145C61.0762 70.3145 60.4463 70.4434 59.9072 70.7012C59.3682 70.959 58.9199 71.3047 58.5625 71.7383C58.1992 72.1777 57.9268 72.6846 57.7451 73.2588C57.5635 73.833 57.4727 74.4336 57.4727 75.0605V75.4297C57.4727 76.0625 57.5635 76.666 57.7451 77.2402C57.9268 77.8086 58.1992 78.3096 58.5625 78.7432C58.9199 79.1826 59.3682 79.5312 59.9072 79.7891C60.4463 80.0469 61.0762 80.1758 61.7969 80.1758C62.3008 80.1758 62.7842 80.0908 63.2471 79.9209C63.71 79.7451 64.1201 79.5107 64.4775 79.2178C64.835 78.9307 65.1191 78.5967 65.3301 78.2158C65.5469 77.8291 65.6582 77.4248 65.6641 77.0029H64.126C64.1201 77.2666 64.0498 77.5127 63.915 77.7412C63.7861 77.9639 63.6133 78.1572 63.3965 78.3213C63.1797 78.4912 62.9307 78.623 62.6494 78.7168C62.374 78.8105 62.0898 78.8574 61.7969 78.8574ZM72.4053 68.1875H70.7705V70.4902H68.2744V71.7471H70.7705V76.915C70.7705 77.501 70.8467 78.002 70.999 78.418C71.1572 78.8281 71.3711 79.1621 71.6406 79.4199C71.9102 79.6836 72.2266 79.877 72.5898 80C72.959 80.1172 73.3545 80.1758 73.7764 80.1758C74.0283 80.1758 74.2803 80.1641 74.5322 80.1406C74.79 80.1172 75.0332 80.082 75.2617 80.0352C75.4902 79.9941 75.7012 79.9443 75.8945 79.8857C76.0879 79.8213 76.252 79.748 76.3867 79.666L76.1582 78.5146C76.0586 78.5381 75.9297 78.5674 75.7715 78.6025C75.6191 78.6318 75.4551 78.6611 75.2793 78.6904C75.0977 78.7197 74.9131 78.7461 74.7256 78.7695C74.5381 78.7871 74.3564 78.7959 74.1807 78.7959C73.9404 78.7959 73.7119 78.7666 73.4951 78.708C73.2842 78.6494 73.0967 78.5469 72.9326 78.4004C72.7686 78.2598 72.6396 78.0693 72.5459 77.8291C72.4521 77.5889 72.4053 77.2842 72.4053 76.915V71.7471H76.0264V70.4902H72.4053V68.1875Z"
              fill="white"/>
    </g>
    <g class="sync">
        <path d="M21.1805 139.173C18.471 139.285 15.8134 139.085 13.2656 138.028C7.28282 135.544 3.38986 129.153 4.07878 122.887C4.83697 115.983 9.68248 110.635 16.2657 109.432C17.7416 109.163 19.2234 109.047 20.709 109.29C21.2863 109.386 21.5095 109.265 21.6115 108.632C22.5737 102.799 25.6199 98.3597 30.731 95.4212C41.8325 89.0381 56.0939 95.9177 57.999 108.547C58.099 109.217 58.2953 109.377 58.9746 109.288C66.4892 108.303 73.8768 113.697 75.2931 121.167C76.9038 129.661 71.5002 137.489 62.9773 138.985C61.1434 139.306 59.2844 139.146 57.4351 139.177C56.7635 139.187 56.0881 139.212 55.4184 139.167C54.9123 139.133 54.7218 139.262 54.666 139.808C54.0021 146.513 48.4234 152.137 41.7132 152.894C33.5117 153.827 26.4301 148.527 24.9945 140.385C24.7809 139.173 24.7809 139.173 23.5532 139.173H21.1805ZM47.9289 128.308C44.8846 125.755 41.3861 124.819 37.5047 125.562C31.6778 126.682 27.6328 131.21 27.169 137.129C27.0188 138.75 27.2024 140.384 27.7085 141.931C28.2145 143.478 29.0323 144.905 30.1113 146.124C30.1828 146.247 30.2638 146.365 30.3538 146.476C33.3539 149.64 37.0082 151.137 41.363 150.583C48.8545 149.62 53.8039 142.662 52.2144 135.349C51.5928 132.526 50.2188 130.125 47.9193 128.308H47.9289ZM9.2495 132.244C10.9314 134.36 13.1251 135.721 15.7153 136.421C18.6134 137.206 21.5846 136.752 24.523 136.866C24.854 136.879 24.9272 136.673 24.9425 136.416C25.033 134.963 25.4929 133.602 25.9625 132.245C27.5751 128.674 30.0863 125.978 33.681 124.356C33.8051 124.316 33.9113 124.233 33.9816 124.124C34.0518 124.014 34.0816 123.883 34.0659 123.753C34.0524 122.504 34.0505 121.252 34.0659 120.007C34.0659 119.664 33.9639 119.549 33.6156 119.556C32.6803 119.576 31.7413 119.583 30.806 119.556C30.4366 119.543 30.3269 119.749 30.1806 120.005C29.3532 121.504 27.8156 122.172 26.2261 121.737C25.4901 121.541 24.8394 121.108 24.3751 120.505C23.9109 119.901 23.6592 119.161 23.6592 118.4C23.6592 117.638 23.9109 116.898 24.3751 116.295C24.8394 115.691 25.4901 115.258 26.2261 115.063C27.8194 114.643 29.3608 115.305 30.1672 116.82C30.3596 117.186 30.5847 117.259 30.9504 117.253C32.2705 117.237 33.5925 117.253 34.9126 117.253C35.9517 117.253 36.352 117.655 36.3578 118.688C36.3578 120.1 36.3578 121.517 36.3578 122.939C36.3578 123.28 36.3693 123.478 36.8196 123.347C37.2617 123.242 37.7127 123.177 38.1667 123.155C38.5015 123.122 38.6766 123.028 38.6747 122.635C38.6593 119.749 38.6747 116.862 38.6747 113.987C38.6747 113.77 38.6747 113.577 38.4053 113.473C37.878 113.281 37.4989 112.862 37.0871 112.498C36.5329 111.622 36.2192 110.7 36.4309 109.64C36.86 107.483 39.4002 105.949 41.8518 107.479C43.9878 109.43 43.7607 112.015 41.3033 113.445C40.9647 113.637 40.9839 113.87 40.9839 114.147C40.9839 116.504 40.9839 118.86 40.9839 121.217C40.9839 121.816 40.7915 122.564 41.084 122.974C41.3765 123.384 42.2097 123.166 42.7774 123.347C43.1892 123.482 43.3047 123.374 43.297 122.939C43.2739 121.521 43.2835 120.103 43.297 118.683C43.297 117.686 43.7049 117.278 44.6902 117.272C46.0372 117.272 47.3843 117.255 48.7313 117.272C48.893 117.292 49.0568 117.257 49.1964 117.173C49.3359 117.089 49.4432 116.961 49.5011 116.808C49.7569 116.275 50.1521 115.82 50.6449 115.493C51.1378 115.165 51.7099 114.977 52.301 114.948C53.1198 114.903 53.928 115.15 54.5816 115.645C55.2353 116.141 55.692 116.852 55.8705 117.652C56.049 118.453 55.9377 119.29 55.5565 120.016C55.1752 120.743 54.5488 121.31 53.7885 121.617C53.0115 121.931 52.146 121.948 51.3576 121.664C50.5692 121.38 49.913 120.815 49.5145 120.078C49.3029 119.693 49.0989 119.52 48.6467 119.545C47.8307 119.587 47.011 119.578 46.195 119.545C45.7524 119.527 45.5523 119.616 45.5754 120.122C45.6381 121.083 45.6381 122.047 45.5754 123.009C45.4984 123.876 45.7313 124.404 46.6068 124.658C47.011 124.775 47.3766 125.062 47.7345 125.289C50.4555 126.977 52.3799 129.349 53.6865 132.247C54.1541 133.608 54.6179 134.97 54.7026 136.423C54.7237 136.822 54.947 136.877 55.2799 136.872C56.1208 136.856 56.9637 136.872 57.8046 136.872C59.4596 136.85 61.1241 136.993 62.7675 136.693C69.9838 135.376 74.5638 128.537 72.9666 121.373C72.3508 118.602 70.9614 116.25 68.6983 114.468C67.2993 113.198 65.6444 112.409 63.8394 111.924C61.8123 111.374 59.6786 111.349 57.6391 111.851C56.5923 112.103 56.0515 111.717 55.9457 110.697C55.8783 110.052 55.8148 109.405 55.709 108.772C53.9983 98.3808 42.7832 92.348 33.2249 96.7605C27.4096 99.4431 24.3017 104.123 23.7013 110.487C23.5782 111.803 23.151 112.078 21.854 111.834C16.5081 110.768 12.0821 112.338 8.78188 116.652C5.24878 121.263 5.51434 128.181 9.23411 132.244H9.2495ZM40.9589 110.319C40.9589 110.09 40.8907 109.867 40.7632 109.676C40.6356 109.486 40.4544 109.338 40.2425 109.251C40.0306 109.164 39.7977 109.142 39.5733 109.188C39.3489 109.234 39.1432 109.346 38.9824 109.509C38.8215 109.672 38.7128 109.879 38.67 110.104C38.6272 110.329 38.6523 110.561 38.742 110.772C38.8318 110.983 38.9822 111.162 39.1741 111.287C39.366 111.412 39.5907 111.477 39.8197 111.474C40.1232 111.47 40.413 111.347 40.6262 111.131C40.8394 110.914 40.9589 110.623 40.9589 110.319ZM27.1421 117.247C26.9124 117.24 26.6858 117.302 26.4915 117.425C26.2971 117.547 26.1437 117.725 26.051 117.935C25.9583 118.146 25.9304 118.379 25.971 118.605C26.0115 118.831 26.1187 119.04 26.2787 119.205C26.4387 119.37 26.6443 119.484 26.8691 119.531C27.094 119.578 27.3279 119.558 27.5409 119.471C27.7539 119.385 27.9363 119.237 28.0648 119.047C28.1933 118.856 28.2619 118.632 28.262 118.402C28.2622 118.101 28.1453 117.813 27.9362 117.597C27.7271 117.382 27.4423 117.256 27.1421 117.247ZM53.648 118.373C53.6441 118.144 53.5719 117.921 53.4408 117.733C53.3096 117.544 53.1255 117.4 52.9117 117.317C52.698 117.234 52.4644 117.216 52.2406 117.266C52.0169 117.317 51.8132 117.432 51.6555 117.599C51.4978 117.765 51.3932 117.975 51.3551 118.201C51.3169 118.427 51.347 118.659 51.4414 118.868C51.5359 119.077 51.6904 119.253 51.8853 119.374C52.0802 119.495 52.3066 119.555 52.5358 119.547C52.8379 119.536 53.1237 119.407 53.3317 119.187C53.5397 118.968 53.6533 118.675 53.648 118.373Z"
              fill="white"/>
        <path d="M47.7845 133.683C48.4309 134.739 48.8479 135.919 49.0084 137.147C49.1239 137.978 49.1027 138.009 48.2387 138.022C48.1194 138.022 48.002 138.038 47.8827 138.045C46.8223 137.992 46.8223 137.992 46.6107 136.927C46.3643 135.63 45.6779 134.456 44.6673 133.606C43.6567 132.755 42.3836 132.279 41.0628 132.257C40.4855 132.245 39.9082 132.257 39.1557 132.257C39.6157 132.725 39.9659 133.094 40.3315 133.45C40.8376 133.945 40.2603 134.187 40.0332 134.316C39.5829 134.566 39.4463 135.677 38.7189 135.068C37.5797 134.106 36.5752 133 35.5418 131.926C35.0338 131.399 35.0434 130.771 35.5745 130.26C36.6252 129.238 37.7183 128.26 38.7805 127.248C39.0345 127.007 39.1846 127.044 39.4309 127.267C40.6606 128.379 40.6664 128.372 39.5117 129.576C39.4328 129.657 39.3636 129.746 39.1654 129.977C42.8005 129.669 45.7582 130.654 47.7845 133.683Z"
              fill="white"/>
        <path d="M26.2275 169.478C26.2275 169.63 26.1982 169.773 26.1396 169.908C26.0811 170.043 25.9961 170.166 25.8848 170.277C25.7031 170.459 25.4512 170.603 25.1289 170.708C24.8066 170.808 24.4287 170.857 23.9951 170.857C23.7197 170.857 23.4414 170.828 23.1602 170.77C22.8789 170.711 22.624 170.611 22.3955 170.471C22.1611 170.33 21.9648 170.146 21.8066 169.917C21.6543 169.688 21.5664 169.407 21.543 169.073H19.917C19.917 169.478 20.0078 169.867 20.1895 170.242C20.377 170.617 20.6465 170.945 20.998 171.227C21.3438 171.514 21.7686 171.745 22.2725 171.921C22.7764 172.091 23.3506 172.176 23.9951 172.176C24.5576 172.176 25.0762 172.108 25.5508 171.974C26.0254 171.839 26.4326 171.648 26.7725 171.402C27.1123 171.156 27.376 170.86 27.5635 170.515C27.7568 170.169 27.8535 169.785 27.8535 169.363C27.8535 168.971 27.7686 168.625 27.5986 168.326C27.4346 168.027 27.1943 167.764 26.8779 167.535C26.5615 167.312 26.1719 167.122 25.709 166.964C25.2461 166.8 24.7217 166.656 24.1357 166.533C23.6904 166.445 23.3213 166.354 23.0283 166.261C22.7412 166.167 22.5127 166.062 22.3428 165.944C22.167 165.827 22.0439 165.695 21.9736 165.549C21.9033 165.402 21.8682 165.235 21.8682 165.048C21.8682 164.866 21.9121 164.69 22 164.521C22.0879 164.351 22.2197 164.201 22.3955 164.072C22.5654 163.943 22.7793 163.841 23.0371 163.765C23.3008 163.688 23.6055 163.65 23.9512 163.65C24.2852 163.65 24.584 163.697 24.8477 163.791C25.1172 163.885 25.3457 164.008 25.5332 164.16C25.7207 164.312 25.8672 164.488 25.9727 164.688C26.0781 164.881 26.1309 165.08 26.1309 165.285H27.7568C27.7568 164.869 27.666 164.482 27.4844 164.125C27.3086 163.762 27.0566 163.445 26.7285 163.176C26.4004 162.906 26.002 162.695 25.5332 162.543C25.0645 162.391 24.5371 162.314 23.9512 162.314C23.4062 162.314 22.9053 162.388 22.4482 162.534C21.9971 162.681 21.6074 162.88 21.2793 163.132C20.9512 163.384 20.6963 163.68 20.5146 164.02C20.333 164.354 20.2422 164.714 20.2422 165.101C20.2422 165.493 20.3301 165.839 20.5059 166.138C20.6816 166.431 20.9307 166.686 21.2529 166.902C21.5693 167.125 21.9502 167.315 22.3955 167.474C22.8467 167.632 23.3447 167.767 23.8896 167.878C24.335 167.966 24.707 168.065 25.0059 168.177C25.3047 168.282 25.5449 168.399 25.7266 168.528C25.9082 168.657 26.0371 168.801 26.1133 168.959C26.1895 169.111 26.2275 169.284 26.2275 169.478ZM31.4834 175.841C31.9111 175.841 32.2891 175.762 32.6172 175.604C32.9453 175.445 33.2324 175.249 33.4785 175.015C33.7246 174.78 33.9326 174.525 34.1025 174.25C34.2783 173.975 34.4219 173.714 34.5332 173.468L39.3584 162.49H37.5391L35.0869 168.66L34.6387 169.776L34.2168 168.625L31.6064 162.49H29.7871L33.8828 171.552L33.2324 172.817C33.1738 172.935 33.0918 173.084 32.9863 173.266C32.8867 173.447 32.7666 173.623 32.626 173.793C32.4795 173.963 32.3125 174.109 32.125 174.232C31.9434 174.355 31.7412 174.417 31.5186 174.417C31.4365 174.417 31.3223 174.411 31.1758 174.399C31.0352 174.394 30.8916 174.385 30.7451 174.373L30.4814 175.7C30.5869 175.724 30.7422 175.753 30.9473 175.788C31.1523 175.823 31.3311 175.841 31.4834 175.841ZM41.5293 172H43.1553V165.18C43.2666 164.975 43.3955 164.787 43.542 164.617C43.6943 164.447 43.8584 164.298 44.0342 164.169C44.251 164.022 44.4883 163.908 44.7461 163.826C45.0039 163.738 45.2822 163.694 45.5811 163.694C45.9268 163.694 46.2314 163.735 46.4951 163.817C46.7646 163.899 46.9932 164.031 47.1807 164.213C47.3623 164.395 47.5 164.632 47.5938 164.925C47.6875 165.218 47.7344 165.575 47.7344 165.997V172H49.3604V165.962C49.3604 165.329 49.2812 164.784 49.123 164.327C48.9707 163.864 48.751 163.483 48.4639 163.185C48.1768 162.886 47.8281 162.666 47.418 162.525C47.0137 162.385 46.5625 162.314 46.0645 162.314C45.6953 162.32 45.3438 162.376 45.0098 162.481C44.6816 162.581 44.377 162.725 44.0957 162.912C43.9082 163.035 43.7295 163.182 43.5596 163.352C43.3955 163.516 43.2432 163.697 43.1025 163.896L42.9883 162.49H41.5293V172ZM56.3916 170.857C55.8818 170.857 55.4541 170.758 55.1084 170.559C54.7686 170.354 54.4961 170.087 54.291 169.759C54.0801 169.437 53.9277 169.073 53.834 168.669C53.7461 168.259 53.7021 167.846 53.7021 167.43V167.061C53.7021 166.65 53.7461 166.243 53.834 165.839C53.9277 165.435 54.0801 165.068 54.291 164.74C54.502 164.418 54.7773 164.157 55.1172 163.958C55.4629 163.753 55.8877 163.65 56.3916 163.65C56.7197 163.65 57.0244 163.706 57.3057 163.817C57.5928 163.929 57.8389 164.081 58.0439 164.274C58.249 164.468 58.4102 164.693 58.5273 164.951C58.6504 165.203 58.7148 165.473 58.7207 165.76H60.2588C60.2588 165.279 60.1621 164.828 59.9688 164.406C59.7754 163.984 59.5088 163.618 59.1689 163.308C58.8232 163.003 58.4131 162.763 57.9385 162.587C57.4697 162.405 56.9541 162.314 56.3916 162.314C55.6709 162.314 55.041 162.443 54.502 162.701C53.9629 162.959 53.5146 163.305 53.1572 163.738C52.7939 164.178 52.5215 164.685 52.3398 165.259C52.1582 165.833 52.0674 166.434 52.0674 167.061V167.43C52.0674 168.062 52.1582 168.666 52.3398 169.24C52.5215 169.809 52.7939 170.31 53.1572 170.743C53.5146 171.183 53.9629 171.531 54.502 171.789C55.041 172.047 55.6709 172.176 56.3916 172.176C56.8955 172.176 57.3789 172.091 57.8418 171.921C58.3047 171.745 58.7148 171.511 59.0723 171.218C59.4297 170.931 59.7139 170.597 59.9248 170.216C60.1416 169.829 60.2529 169.425 60.2588 169.003H58.7207C58.7148 169.267 58.6445 169.513 58.5098 169.741C58.3809 169.964 58.208 170.157 57.9912 170.321C57.7744 170.491 57.5254 170.623 57.2441 170.717C56.9688 170.811 56.6846 170.857 56.3916 170.857Z"
              fill="white"/>
    </g>
    <g>
        <rect x="82" width="25" height="276" rx="5" fill="#515151"/>
        <path d="M96.1572 174.765H96.3506C97.0361 174.765 97.6719 174.665 98.2578 174.466C98.8438 174.267 99.3535 173.979 99.7871 173.604C100.221 173.235 100.561 172.784 100.807 172.251C101.053 171.712 101.176 171.105 101.176 170.432C101.176 169.764 101.053 169.163 100.807 168.63C100.561 168.097 100.221 167.643 99.7871 167.268C99.3535 166.898 98.8438 166.614 98.2578 166.415C97.6719 166.216 97.0361 166.116 96.3506 166.116H96.1572C95.4717 166.116 94.8359 166.216 94.25 166.415C93.6582 166.614 93.1455 166.898 92.7119 167.268C92.2783 167.643 91.9385 168.1 91.6924 168.639C91.4404 169.172 91.3145 169.775 91.3145 170.449C91.3145 171.117 91.4404 171.718 91.6924 172.251C91.9385 172.784 92.2783 173.235 92.7119 173.604C93.1455 173.979 93.6582 174.267 94.25 174.466C94.8359 174.665 95.4717 174.765 96.1572 174.765ZM96.3506 173.139H96.1572C95.6943 173.139 95.252 173.083 94.8301 172.972C94.4023 172.86 94.0273 172.69 93.7051 172.462C93.3828 172.239 93.1279 171.961 92.9404 171.627C92.7471 171.293 92.6504 170.9 92.6504 170.449C92.6504 169.998 92.7471 169.605 92.9404 169.271C93.1279 168.932 93.3828 168.647 93.7051 168.419C94.0273 168.196 94.4023 168.029 94.8301 167.918C95.252 167.801 95.6943 167.742 96.1572 167.742H96.3506C96.8193 167.742 97.2676 167.798 97.6953 167.909C98.1172 168.021 98.4893 168.188 98.8115 168.41C99.1338 168.639 99.3887 168.923 99.5762 169.263C99.7637 169.597 99.8574 169.986 99.8574 170.432C99.8574 170.883 99.7637 171.278 99.5762 171.618C99.3887 171.958 99.1338 172.239 98.8115 172.462C98.4893 172.69 98.1172 172.86 97.6953 172.972C97.2676 173.083 96.8193 173.139 96.3506 173.139ZM104.656 163.506V161.88H100.086C100.215 161.763 100.335 161.637 100.446 161.502C100.552 161.367 100.648 161.224 100.736 161.071C100.877 160.819 100.985 160.538 101.062 160.228C101.138 159.911 101.176 159.571 101.176 159.208C101.176 158.61 101.053 158.08 100.807 157.617C100.561 157.148 100.221 156.756 99.7871 156.439C99.3535 156.123 98.8438 155.883 98.2578 155.719C97.666 155.555 97.0303 155.473 96.3506 155.473H96.166C95.457 155.473 94.8066 155.555 94.2148 155.719C93.6172 155.883 93.1045 156.123 92.6768 156.439C92.249 156.756 91.915 157.148 91.6748 157.617C91.4346 158.086 91.3145 158.625 91.3145 159.234C91.3145 159.58 91.3525 159.905 91.4287 160.21C91.499 160.509 91.6045 160.781 91.7451 161.027C91.8389 161.203 91.9531 161.367 92.0879 161.52C92.2168 161.672 92.3633 161.812 92.5273 161.941L91.4902 162.021V163.506H104.656ZM96.166 157.099H96.3506C96.8135 157.099 97.2559 157.151 97.6777 157.257C98.0996 157.356 98.4717 157.512 98.7939 157.723C99.1162 157.934 99.374 158.203 99.5674 158.531C99.7549 158.859 99.8486 159.249 99.8486 159.7C99.8486 159.981 99.8135 160.239 99.7432 160.474C99.6729 160.702 99.5762 160.91 99.4531 161.098C99.3477 161.262 99.2188 161.408 99.0664 161.537C98.9141 161.666 98.75 161.78 98.5742 161.88H93.9951C93.7959 161.769 93.6143 161.64 93.4502 161.493C93.2861 161.347 93.1484 161.18 93.0371 160.992C92.9258 160.822 92.8408 160.632 92.7822 160.421C92.7236 160.204 92.6943 159.97 92.6943 159.718C92.6943 159.261 92.7881 158.868 92.9756 158.54C93.1631 158.212 93.415 157.939 93.7314 157.723C94.0537 157.512 94.4258 157.356 94.8477 157.257C95.2637 157.151 95.7031 157.099 96.166 157.099ZM89.1875 148.837V150.472H91.4902V152.968H92.7471V150.472H97.915C98.501 150.472 99.002 150.396 99.418 150.243C99.8281 150.085 100.162 149.871 100.42 149.602C100.684 149.332 100.877 149.016 101 148.652C101.117 148.283 101.176 147.888 101.176 147.466C101.176 147.214 101.164 146.962 101.141 146.71C101.117 146.452 101.082 146.209 101.035 145.98C100.994 145.752 100.944 145.541 100.886 145.348C100.821 145.154 100.748 144.99 100.666 144.855L99.5146 145.084C99.5381 145.184 99.5674 145.312 99.6025 145.471C99.6318 145.623 99.6611 145.787 99.6904 145.963C99.7197 146.145 99.7461 146.329 99.7695 146.517C99.7871 146.704 99.7959 146.886 99.7959 147.062C99.7959 147.302 99.7666 147.53 99.708 147.747C99.6494 147.958 99.5469 148.146 99.4004 148.31C99.2598 148.474 99.0693 148.603 98.8291 148.696C98.5889 148.79 98.2842 148.837 97.915 148.837H92.7471V145.216H91.4902V148.837H89.1875ZM91.4902 141.621H92.9053V138.387H99.5938V141.621H101V133.658H99.5938V136.761H91.4902V141.621ZM88.9941 138.598C89.2578 138.598 89.4775 138.519 89.6533 138.36C89.8291 138.196 89.917 137.95 89.917 137.622C89.917 137.3 89.8291 137.057 89.6533 136.893C89.4775 136.729 89.2578 136.646 88.9941 136.646C88.8477 136.646 88.7129 136.67 88.5898 136.717C88.4668 136.764 88.3643 136.834 88.2822 136.928C88.2061 137.004 88.1475 137.101 88.1064 137.218C88.0596 137.335 88.0361 137.47 88.0361 137.622C88.0361 137.774 88.0596 137.912 88.1064 138.035C88.1475 138.152 88.2061 138.249 88.2822 138.325C88.3701 138.419 88.4756 138.489 88.5986 138.536C88.7217 138.577 88.8535 138.598 88.9941 138.598ZM96.1572 131.522H96.3506C97.0361 131.522 97.6719 131.423 98.2578 131.224C98.8438 131.024 99.3535 130.737 99.7871 130.362C100.221 129.993 100.561 129.542 100.807 129.009C101.053 128.47 101.176 127.863 101.176 127.189C101.176 126.521 101.053 125.921 100.807 125.388C100.561 124.854 100.221 124.4 99.7871 124.025C99.3535 123.656 98.8438 123.372 98.2578 123.173C97.6719 122.974 97.0361 122.874 96.3506 122.874H96.1572C95.4717 122.874 94.8359 122.974 94.25 123.173C93.6582 123.372 93.1455 123.656 92.7119 124.025C92.2783 124.4 91.9385 124.857 91.6924 125.396C91.4404 125.93 91.3145 126.533 91.3145 127.207C91.3145 127.875 91.4404 128.476 91.6924 129.009C91.9385 129.542 92.2783 129.993 92.7119 130.362C93.1455 130.737 93.6582 131.024 94.25 131.224C94.8359 131.423 95.4717 131.522 96.1572 131.522ZM96.3506 129.896H96.1572C95.6943 129.896 95.252 129.841 94.8301 129.729C94.4023 129.618 94.0273 129.448 93.7051 129.22C93.3828 128.997 93.1279 128.719 92.9404 128.385C92.7471 128.051 92.6504 127.658 92.6504 127.207C92.6504 126.756 92.7471 126.363 92.9404 126.029C93.1279 125.689 93.3828 125.405 93.7051 125.177C94.0273 124.954 94.4023 124.787 94.8301 124.676C95.252 124.559 95.6943 124.5 96.1572 124.5H96.3506C96.8193 124.5 97.2676 124.556 97.6953 124.667C98.1172 124.778 98.4893 124.945 98.8115 125.168C99.1338 125.396 99.3887 125.681 99.5762 126.021C99.7637 126.354 99.8574 126.744 99.8574 127.189C99.8574 127.641 99.7637 128.036 99.5762 128.376C99.3887 128.716 99.1338 128.997 98.8115 129.22C98.4893 129.448 98.1172 129.618 97.6953 129.729C97.2676 129.841 96.8193 129.896 96.3506 129.896ZM101 120.255V118.629H94.1797C93.9746 118.518 93.7871 118.389 93.6172 118.242C93.4473 118.09 93.2979 117.926 93.1689 117.75C93.0225 117.533 92.9082 117.296 92.8262 117.038C92.7383 116.78 92.6943 116.502 92.6943 116.203C92.6943 115.857 92.7354 115.553 92.8174 115.289C92.8994 115.02 93.0312 114.791 93.2129 114.604C93.3945 114.422 93.6318 114.284 93.9248 114.19C94.2178 114.097 94.5752 114.05 94.9971 114.05H101V112.424H94.9619C94.3291 112.424 93.7842 112.503 93.3271 112.661C92.8643 112.813 92.4834 113.033 92.1846 113.32C91.8857 113.607 91.666 113.956 91.5254 114.366C91.3848 114.771 91.3145 115.222 91.3145 115.72C91.3203 116.089 91.376 116.44 91.4814 116.774C91.5811 117.103 91.7246 117.407 91.9121 117.688C92.0352 117.876 92.1816 118.055 92.3516 118.225C92.5156 118.389 92.6973 118.541 92.8965 118.682L91.4902 118.796V120.255H101ZM98.4775 103.125C98.6299 103.125 98.7734 103.154 98.9082 103.213C99.043 103.271 99.166 103.356 99.2773 103.468C99.459 103.649 99.6025 103.901 99.708 104.224C99.8076 104.546 99.8574 104.924 99.8574 105.357C99.8574 105.633 99.8281 105.911 99.7695 106.192C99.7109 106.474 99.6113 106.729 99.4707 106.957C99.3301 107.191 99.1455 107.388 98.917 107.546C98.6885 107.698 98.4072 107.786 98.0732 107.81V109.436C98.4775 109.436 98.8672 109.345 99.2422 109.163C99.6172 108.976 99.9453 108.706 100.227 108.354C100.514 108.009 100.745 107.584 100.921 107.08C101.091 106.576 101.176 106.002 101.176 105.357C101.176 104.795 101.108 104.276 100.974 103.802C100.839 103.327 100.648 102.92 100.402 102.58C100.156 102.24 99.8604 101.977 99.5146 101.789C99.1689 101.596 98.7852 101.499 98.3633 101.499C97.9707 101.499 97.625 101.584 97.3262 101.754C97.0273 101.918 96.7637 102.158 96.5352 102.475C96.3125 102.791 96.1221 103.181 95.9639 103.644C95.7998 104.106 95.6562 104.631 95.5332 105.217C95.4453 105.662 95.3545 106.031 95.2607 106.324C95.167 106.611 95.0615 106.84 94.9443 107.01C94.8271 107.186 94.6953 107.309 94.5488 107.379C94.4023 107.449 94.2354 107.484 94.0479 107.484C93.8662 107.484 93.6904 107.44 93.5205 107.353C93.3506 107.265 93.2012 107.133 93.0723 106.957C92.9434 106.787 92.8408 106.573 92.7646 106.315C92.6885 106.052 92.6504 105.747 92.6504 105.401C92.6504 105.067 92.6973 104.769 92.791 104.505C92.8848 104.235 93.0078 104.007 93.1602 103.819C93.3125 103.632 93.4883 103.485 93.6875 103.38C93.8809 103.274 94.0801 103.222 94.2852 103.222V101.596C93.8691 101.596 93.4824 101.687 93.125 101.868C92.7617 102.044 92.4453 102.296 92.1758 102.624C91.9062 102.952 91.6953 103.351 91.543 103.819C91.3906 104.288 91.3145 104.815 91.3145 105.401C91.3145 105.946 91.3877 106.447 91.5342 106.904C91.6807 107.355 91.8799 107.745 92.1318 108.073C92.3838 108.401 92.6797 108.656 93.0195 108.838C93.3535 109.02 93.7139 109.11 94.1006 109.11C94.4932 109.11 94.8389 109.022 95.1377 108.847C95.4307 108.671 95.6855 108.422 95.9023 108.1C96.125 107.783 96.3154 107.402 96.4736 106.957C96.6318 106.506 96.7666 106.008 96.8779 105.463C96.9658 105.018 97.0654 104.646 97.1768 104.347C97.2822 104.048 97.3994 103.808 97.5283 103.626C97.6572 103.444 97.8008 103.315 97.959 103.239C98.1113 103.163 98.2842 103.125 98.4775 103.125Z"
              fill="#FF7800"/>
    </g>

</svg>
