<svg width="231" height="221" viewBox="0 0 231 221" fill="none" xmlns="http://www.w3.org/2000/svg">
    <path d="M0 105.985C0.602825 101.912 1.01274 97.82 1.76025 93.7764C7.32432 63.7324 22.6903 39.7658 47.376 21.8886C69.8071 5.64213 95.1318 -1.392 122.729 0.226637C176.778 3.37364 220.471 43.1896 229.345 93.999C237.977 143.406 212.213 193.211 166.796 214.578C162.4 216.693 157.883 218.545 153.268 220.126C152.774 220.288 152.28 220.487 151.773 220.619C147.053 221.823 143.882 219.416 143.882 214.554C143.882 204.644 143.943 194.739 143.955 184.829C143.973 183.254 143.907 181.679 143.756 180.111C143.093 173.86 141.188 168.119 136.353 163.323C142.194 162.469 147.722 161.639 153.124 160.128C173.915 154.304 186.164 139.67 188.232 118.212C188.835 112.147 189.197 106.1 188.286 100.034C187.097 92.0473 183.643 84.5666 178.334 78.4746C177.478 77.4697 177.164 76.6694 177.592 75.3035C180.401 66.2055 179.527 57.2518 176.429 48.3644C175.76 46.4509 174.313 46.7337 172.975 46.7638C168.478 46.8721 164.252 48.214 160.14 49.9169C155.143 51.994 150.368 54.5704 145.89 57.6069C145.381 57.9706 144.793 58.2106 144.175 58.3078C143.556 58.4049 142.923 58.3565 142.327 58.1665C124.617 53.6531 106.054 53.6531 88.344 58.1665C87.7425 58.3362 87.1102 58.3669 86.495 58.2564C85.8798 58.1459 85.2979 57.897 84.7934 57.5286C77.6861 52.9796 70.3256 48.9601 61.9342 47.2211C55.2489 45.8432 54.4652 46.3005 52.8135 52.8111C50.8603 60.5373 50.6192 68.2393 53.3078 75.8571C53.4663 76.1851 53.5161 76.5548 53.45 76.9129C53.3839 77.271 53.2053 77.5988 52.9401 77.8488C42.9995 88.8784 40.7329 102.02 42.2641 116.263C43.2286 125.289 45.3807 133.833 50.4022 141.481C57.1177 151.71 67.0281 157.246 78.518 160.435C83.6996 161.791 88.9747 162.762 94.2999 163.341C90.2369 167.469 88.1993 172.211 87.3192 177.482C87.2578 177.849 87.0896 178.19 86.8356 178.463C86.5817 178.736 86.253 178.928 85.8905 179.016C73.629 183.776 61.3616 182.025 53.5731 169.262C49.7451 162.98 44.392 158.618 36.8145 157.505C35.4015 157.325 33.9667 157.429 32.5948 157.812C30.4125 158.353 30.0147 159.701 31.5699 161.422C32.4164 162.377 33.3971 163.204 34.4816 163.877C40.2828 167.341 44.6916 172.716 46.948 179.077C52.3734 193.632 65.7501 198.464 79.2233 197.17C81.1737 197.042 83.112 196.771 85.0224 196.358C86.644 195.955 86.7224 196.629 86.7284 197.886C86.7284 203.302 86.837 208.717 86.8671 214.097C86.8972 219.663 83.4129 222.214 78.1261 220.445C62.7271 215.368 48.5999 207.049 36.7 196.051C17.7432 178.565 6.0182 157.104 1.52515 131.667C0.843954 127.774 0.500345 123.844 0 119.897V105.985Z"
          fill="white"/>
</svg>