<svg xmlns="http://www.w3.org/2000/svg" xmlns:xlink="http://www.w3.org/1999/xlink" viewBox="0 0 309.32 336.68"><defs><style>.cls-1{fill:#3e73c4;}.cls-2{fill:#ccc;}.cls-3{fill:#ff7800;}.cls-3,.cls-4{stroke:#ccc;stroke-miterlimit:10;stroke-width:5px;}.cls-4{fill:url(#Unbenannter_Verlauf_35);}</style><radialGradient id="Unbenannter_Verlauf_35" cx="154.68" cy="168.46" r="122.42" gradientUnits="userSpaceOnUse"><stop offset="0.39" stop-color="#000720"/><stop offset="0.52" stop-color="#021030"/><stop offset="0.79" stop-color="#09285a"/><stop offset="0.98" stop-color="#0e3b7c"/></radialGradient></defs><title>Element 1</title><g id="Ebene_2" data-name="Ebene 2"><g id="Ebene_1-2" data-name="Ebene 1"><path class="cls-1" d="M270.8,266.1l-89.62,51.75a53,53,0,0,1-53,0L38.55,266.1a53,53,0,0,1-26.5-45.9V116.72a53,53,0,0,1,26.5-45.9l89.63-51.75a53,53,0,0,1,53,0L270.8,70.82a53,53,0,0,1,26.5,45.9V220.2A53,53,0,0,1,270.8,266.1Z"/><path class="cls-2" d="M264.74,255.74l-71.19,41.11c-10.06,5.8-20.77,13.69-32.42,15.64-14.77,2.47-26.31-4.67-38.41-11.65C97.07,286,71.39,271.29,45.78,256.41c-14.24-8.26-21.69-21.74-21.73-37.68,0-12.81,0-25.62,0-38.42V130c0-14.24-.5-26.16,8.2-38,6.54-8.88,18.34-14.29,28.35-20.08L105.47,46c9.53-5.5,19-11.11,28.59-16.51A41.6,41.6,0,0,1,167.44,26c4.43,1.4,8.33,3.81,12.32,6.11L259,77.88A103.24,103.24,0,0,1,269.11,84c8.81,6.56,15.06,17.81,16,28.26s.19,21.26.19,31.73v52.85c0,10.21,1.21,22.65-.88,31.88a41.57,41.57,0,0,1-19.68,27c-13.25,7.9-1.2,28.66,12.12,20.72,21.24-12.66,32.44-34.73,32.44-59.12v-93.5c0-4.09.14-8.24-.26-12.31-1.55-15.77-8.16-30.71-19.74-41.71-9.3-8.84-21.66-14.68-32.68-21l-47.29-27.3c-10.93-6.31-22-13.9-34-18.1-16.44-5.75-34.85-3.91-50.32,3.77-3.44,1.71-6.73,3.77-10.06,5.68L34.53,59.28C13.61,71.36.32,92.33.05,116.75c-.12,11,0,22.12,0,33.18V204c0,15.85-.19,30.77,7.05,45.54,7.8,15.92,21.66,24.74,36.31,33.2L88.83,309c10.92,6.31,21.81,12.68,32.76,18.92,21.28,12.13,46.2,11.48,67.28-.64q40.22-23.13,80.36-46.39l7.63-4.41C290.23,268.74,278.16,248,264.74,255.74Z"/><path class="cls-3" d="M220.74,283.7l-82.62,16.55a53,53,0,0,1-50.21-17L32.26,220a53,53,0,0,1-10.41-52l27-79.83a53,53,0,0,1,39.8-35l82.61-16.55a53,53,0,0,1,50.22,17l55.64,63.27a53,53,0,0,1,10.41,52l-27,79.82A53,53,0,0,1,220.74,283.7Z"/><path class="cls-4" d="M60,244,33.84,176.62a53,53,0,0,1,8.09-52.39L87.2,67.89a53,53,0,0,1,49.4-19.18l71.43,11a53,53,0,0,1,41.32,33.19l26.16,67.37a53,53,0,0,1-8.09,52.38L222.16,269a53,53,0,0,1-49.41,19.19l-71.43-11A53,53,0,0,1,60,244Z"/></g></g></svg>