<svg xmlns="http://www.w3.org/2000/svg" viewBox="0 0 347.86 275.78">
    <defs>
        <style>
            .b13fdb73-606e-4feb-96c9-c4e929f186f4{
                fill:#9d9d9d;
            }
            .a06af451-5e98-48cf-90df-c61ef6a7e422{
                fill:#222222;
            }
            .e6418439-7592-465f-b253-07ff7aaae10c{
                fill:#222222;
            }
        </style>
    </defs>
    <g id="ba1e3dda-a9eb-42bc-8785-289332369d81" data-name="Ebene 2">
        <g id="a78a2894-ddca-41ac-bae9-de2cf1c45a4a" data-name="Ebene 1">
            <path class="b13fdb73-606e-4feb-96c9-c4e929f186f4"
                  d="M144.23,0H267.55c13.27,0,20.33,7.1,20.33,20.43q0,59.4-.06,118.82c0,3.62.82,5.1,4.78,5.71,32.43,5,55.8,33.47,55.25,67-.53,31.8-25.48,59.36-57.31,63.32-33.36,4.15-63.52-15.94-72.25-48.46-1.07-4-2.7-5-6.59-4.95q-95.4.18-190.79.08c-14,0-20.91-6.95-20.91-21V20.62C0,7.11,7.08,0,20.53,0Z"/>
            <path class="a06af451-5e98-48cf-90df-c61ef6a7e422"
                  d="M12.62,199.44c-.94-1.82-.61-3.21-.61-4.53q0-86.77,0-173.54C12,13.49,13.5,12,21.42,12H266.55c7.85,0,9.34,1.51,9.34,9.45q0,58.47,0,116.94c0,6.36-.07,5.81-5.37,6.63a55.78,55.78,0,0,0-20.36,7.25c-2.56,1.54-4,1.07-6-1.09q-21.19-23.52-42.66-46.8c-6.75-7.32-13.21-7.33-20.26-.3-9.55,9.53-19.14,19-28.59,28.66-2.15,2.19-3.32,2.06-5.15-.37-9.54-12.68-19.22-25.26-28.88-37.84-4.54-5.92-8.84-7.65-14.43-6.08-2.94.83-5,2.78-6.79,5.06q-40.86,51.06-81.7,102.13C14.82,196.8,13.86,197.94,12.62,199.44Z"/>
            <path class="e6418439-7592-465f-b253-07ff7aaae10c"
                  d="M105.32,209.92q-40.29,0-80.56,0c-1.28,0-3.09.71-3.7-.86-.48-1.23,1.06-2.12,1.81-3.06q41.35-51.58,82.68-103.17c2.53-3.16,3.54-1.07,4.93.74q26.71,35,53.43,70c8.26,10.82,16.57,21.6,24.81,32.43.72.95,2.2,1.91,1.64,3.14-.67,1.51-2.45.82-3.73.82Q146,210,105.32,209.92Z"/>
            <path class="a06af451-5e98-48cf-90df-c61ef6a7e422"
                  d="M227.92,209.51C228,180,252.43,155.88,282.19,156s53.8,24.53,53.67,54.56c-.12,29.3-24.63,53.48-54.09,53.38A54.08,54.08,0,0,1,227.92,209.51Z"/>
            <path class="e6418439-7592-465f-b253-07ff7aaae10c"
                  d="M210.54,209.9c-2.3.34-4.16-.62-5.79-2.76q-22.44-29.5-45.06-58.87c-1.84-2.38-1.8-3.82.37-5.92,9-8.79,17.89-17.77,26.88-26.62,4.5-4.44,4.63-4.44,8.78.09,13.14,14.35,26.21,28.78,39.37,43.11,1.65,1.79,1.57,3-.09,4.68a65.56,65.56,0,0,0-19,42.85C215.77,210.45,213.3,209.89,210.54,209.9Z"/>
            <path class="b13fdb73-606e-4feb-96c9-c4e929f186f4"
                  d="M251.89,54.16A30,30,0,1,1,222,24,30.09,30.09,0,0,1,251.89,54.16Z"/>
            <path class="b13fdb73-606e-4feb-96c9-c4e929f186f4"
                  d="M287.89,217.91c0,6.86,0,13.73,0,20.59,0,4.69-2.38,7.43-6.12,7.33s-5.82-2.74-5.84-7.24c0-13.85,0-27.71,0-41.56,0-1.16.64-2.79-.72-3.36-1-.44-1.94.87-2.79,1.55-5.18,4.11-10.33,8.27-15.5,12.39-3.73,3-7.23,3-9.59.13s-1.66-6.4,2-9.33q13.86-11.15,27.76-22.23c3.75-3,6-3,9.69-.06q13.91,11.08,27.76,22.22c3.66,2.94,4.41,6.43,2.1,9.33s-5.87,2.93-9.57,0c-5.37-4.27-10.7-8.59-16.09-12.84-.72-.58-1.47-1.72-2.54-1.07-.79.47-.46,1.6-.46,2.44C287.88,203.43,287.89,210.67,287.89,217.91Z"/>
            <path class="e6418439-7592-465f-b253-07ff7aaae10c"
                  d="M203.94,53.84a18,18,0,1,1,35.94.46c0,9.4-8.4,17.69-17.8,17.65A18.27,18.27,0,0,1,203.94,53.84Z"/>
        </g>
    </g>
</svg>