<svg xmlns="http://www.w3.org/2000/svg" viewBox="0 0 384.21 129">
    <defs>
        <style>
            #b681ca62-7a9d-408b-8165-28ed0e24fd88 {
                fill: white;
            }
        </style>
    </defs>
    <g id="b681ca62-7a9d-408b-8165-28ed0e24fd88" data-name="Ebene 2">
        <g id="e0a1311d-3043-40f1-a99e-847b392aacff" data-name="Ebene 1">
            <path d="M203.6,129c-.55-5.42,2.07-6.82,7.21-6.75,8,.11,8-.26,8-8.18q0-34.25,0-68.48c0-6-.76-6.85-6.76-7.14-1.83-.09-3.66-.1-5.49-.05-2.4.07-2.6-1.41-2.6-3.28s.29-3,2.66-3.19c7.41-.68,7.4-.8,6.12-8.5-1.93-11.65-6.09-15.32-17.94-15.74-3-.1-6,.15-9-.07-3.91-.28-5.18,1.26-5.15,5.2.16,20.16.07,40.32.07,60.48,0,3.83.3,7.7-.08,11.49-.46,4.6,2,6,5.82,6.1s7.66.14,11.49,0c2.29,0,3.74.21,3.69,3.15,0,2.77-1.11,3.2-3.6,3.18-16.33-.11-32.65-.06-49,0-2.1,0-3.92.33-4-2.8s1.18-3.65,3.85-3.54c3.83.16,7.67.07,11.5-.06,3.68-.12,5.6-1.61,5.57-5.85q-.32-36.24-.13-72.47c0-3.71-1.23-5.23-4.9-4.9-1.65.15-3.33,0-5,0-16.91,0-21.08,3.78-23.1,20.52-.34,2.78,1.53,7.16-4.2,7.19-1.36,0-.42,1.6-.15,2.43,3.37,10.09,6.83,20.16,10.12,30.27,1.25,3.84,4.34,3.48,7.29,3.74,1.61.13,3.89-.87,3.87,2.3,0,3.39-2.46,1.94-3.94,2-8.16.15-16.32.13-24.48.26-1.48,0-2.6.13-2.7-1.86s.4-2.78,2.44-2.74a28.07,28.07,0,0,0,3.94-.55c2.12-.27,2.9-1.2,2.1-3.39-1.36-3.75-2.61-7.54-3.8-11.35-.61-1.94-1.84-2.41-3.74-2.38-6.5.1-13,.08-19.49,0-1.93,0-3.13.51-3.63,2.54s-1.28,3.77-1.92,5.67c-2.27,6.75-2.32,6.92,4.32,9.31,2,.7,2.24,1.61,2,3.22-.29,2.18-2,1.28-3.13,1.29-5.46,0-10.93,0-17.14,0,4.69,7.76,8,16,18.8,14.85,2.54-.27,2.46,1.46,2.5,3.22,0,1.92-.32,3.15-2.68,3.13q-17-.1-34,0c-1.9,0-2.86-.59-2.63-2.56.19-1.59-.83-3.46,2.27-3.91,6.29-.91,6.83-2.45,3.4-7.67-7-10.56-14-21-20.82-31.71-2-3.23-3.09-3.5-6.49-1C31.58,57.34,27.58,66,29.6,77.37a5.56,5.56,0,0,1,0,1c0,11.67,0,11.75,11.82,12.53,2.45.17,3.07,1,3.06,3.29s-.77,3.14-3.2,3.11q-19-.17-38,0c-2.37,0-3.31-.63-3.29-3,0-2.19.5-3.18,3-3.35,11.59-.78,11.59-.87,11.59-12.5,0-21.66-.17-43.32.12-65,.06-5.15-1.85-7-6.59-6.77-.83,0-1.66,0-2.5,0C-.57,6.57-.57,6.57.6,0h5a72.43,72.43,0,0,0,23,0h16c.64,5.19-1.19,7.82-6.8,6.66a13,13,0,0,0-2.49,0c-4.09-.06-5.89,1.62-5.79,6,.27,11.47.09,22.94.17,34.41,0,1.86-.53,3.87.84,6C44.21,39.86,57.68,26.8,71.1,13.69c2.24-2.2,2.19-5.35-.7-6-5-1.2-3.63-4.58-3.8-7.64h4a55.78,55.78,0,0,0,20,0h9c1.19,4.63.06,7.06-5.39,7.14A19.89,19.89,0,0,0,80.62,12.7c-7.85,7.45-15.56,15.07-23.51,22.42-2.19,2-2.23,3.45-.6,5.81,6.16,8.9,12.39,17.78,18,27,2.76,4.53,5.81,4.09,9.58,2.4,2.64-1.18,3.73-3.52,4.63-6.16C96,42.77,103.3,21.39,110.6,0h5l10.29,30.53A169.2,169.2,0,0,0,129.1,5C129.29,2,130.26.9,133.52.92c26.33.14,52.66.18,79,0,3.91,0,4.76,1.44,4.94,4.82.33,6.65,1.25,13.28,1.4,19.93.12,4.91,1.65,6.61,6.92,6.5,18.66-.38,37.32-.16,56-.13,1.87,0,4.17-.71,4.52,2.39,1.1,9.6,2.26,19.18,3.35,28.78.14,1.24.52,2.87-1.65,2.83-1.56,0-3.5.63-3.75-2-.15-1.49-.47-3-.7-4.44-2.28-14.66-7.34-19.73-22-20.85-7.79-.59-15.65-.17-23.48-.22-3.1,0-4.45,1.34-4.38,4.58.15,7.5,0,15,0,22.49,0,10.59,0,10.59,10.86,9.82,13.1-.92,13.3-1.1,15.7-13.74a5.45,5.45,0,0,0,.1-1c.07-2,1.57-1.74,2.88-1.82,1.54-.08,2.54.33,2.54,2.16q0,17.49,0,35c0,1.7-.76,2.39-2.41,2.3-1.32-.07-2.77.19-3-1.75-.2-1.65-.44-3.3-.67-5-.86-6.19-3.5-8.94-9.65-9.42-4.31-.34-8.67-.1-13-.33-2.65-.13-3.43.88-3.4,3.46.12,10.83.15,21.67,0,32.5,0,3.27,1.22,4.5,4.37,4.46,8.66-.11,17.34.23,26-.23,13-.7,21.18-8.85,22.53-21.76.1-.91.72-2.43-.47-2.63-3.29-.53-2.67-2.87-2.51-4.88.26-3.31,3.27-1.15,4.79-2.16.86-.57,2.23-.48,3.38-.51a15.36,15.36,0,0,0,13.22-7.59c6.46-10.1,13-20.16,19.69-30.09,1.7-2.5,1.52-4.24,0-6.61-7-10.71-14.2-21.36-20.74-32.37-3-5-6.71-6.88-12.19-6.86-6.27,0-6.27-.14-6-6.59h5a123.41,123.41,0,0,0,30,0h6c1.43,4.22.92,7-4.49,7.27-1.78.08-5.55.14-3.12,4,5.2,8.25,10.5,16.44,16.12,25.21,4.82-7.5,9.25-14.33,13.61-21.2,2.43-3.83,2-6.61-2.32-7.48-5.15-1-5.2-4-4.8-7.8h5a91.69,91.69,0,0,0,26,0h5c1.12,6.26,1.13,6.38-5,6.84-7.27.53-13,3.25-16.86,9.81a223.17,223.17,0,0,1-12.94,19.54c-3.26,4.36-3.36,7.69-.18,12.28,7.5,10.78,14.71,21.8,21.37,33.11,4,6.71,8.55,10.81,16.72,9.4,2.53-.43,3.51.65,3.51,3.31,0,3.06-1.69,2.91-3.89,2.9-11.48,0-23-.06-34.45.13-2.69.05-3.33-.76-3.47-3.33-.16-3.12,1.66-2.86,3.71-3.16,5.89-.88,6.26-1.7,3.09-6.68-5.46-8.55-11.16-17-16.43-25.61-2-3.36-3-2.46-4.65.07-4.68,7.27-9.46,14.48-14.19,21.71-4.1,6.25-3.48,8.37,3.93,10.46,2.81.79,2.14,2.39,2.26,4.07.19,2.55-1.5,2.4-3.29,2.37-6.49-.12-13,.08-19.47-.29-3.62-.21-4.87,1-5.35,4.5-1.23,9.22-2.25,18.49-4.41,27.57ZM109.9,16.93c-3.71,10.78-6.88,20-10.06,29.24-.64,1.87-.65,3.23,2,3.2,5.5-.08,11,0,16.48,0,2.35,0,2.23-1,1.6-2.84C116.64,37.1,113.51,27.67,109.9,16.93Z"/>
        </g>
    </g>
</svg>