<svg xmlns="http://www.w3.org/2000/svg" viewBox="0 0 384 384">
    <defs>
        <style>
            #to_light_mode * {
            fill: white;
            }
        </style>
    </defs>
    <g id="Ebene_2" data-name="Ebene 2">
        <g id="to_light_mode" data-name="Ebene 1">
            <path d="M195,.07c6.42,3,8.78,8,8.33,15-.39,6-.05,12-.09,18-.05,7.19-4.79,12.17-11.43,12.07C185.38,45,180.81,40,180.76,33c0-6,.31-12-.09-18-.46-7,1.9-12,8.33-15Z"/>
            <path d="M.07,189c3-6.42,8-8.78,15-8.33,6.08.4,12.22,0,18.33.1,6.74.07,11.61,4.72,11.69,11,.09,6.5-4.81,11.34-11.69,11.42-6.11.07-12.25-.3-18.33.1-7,.45-12-1.92-15-8.33Z"/>
            <path d="M383.93,195c-3,6.42-8,8.77-15,8.33-6-.39-12-.05-18-.09-7.18-.05-12.15-4.79-12.07-11.43.09-6.43,5-11,12.07-11.05,6,0,12,.3,18-.09,7-.45,12,1.9,15,8.33Z"/>
            <path d="M189,383.93c-6.42-3-8.78-8-8.33-15,.4-6.09,0-12.23.1-18.34.07-6.71,4.75-11.61,11-11.7,6.5-.08,11.34,4.82,11.42,11.7.07,6.11-.29,12.25.1,18.34.44,7-1.92,12-8.33,15Z"/>
            <path d="M316.21,191.86c.26,68.13-55.46,124-124,124.34C124.13,316.54,68.3,261,67.79,192.31,67.28,124.21,123.48,67.86,192,67.8,260.26,67.74,316,123.34,316.21,191.86Z"/>
            <path d="M330.86,62.52c.11,5-1.18,7.71-3.48,10-5.12,5.13-10.17,10.32-15.38,15.34-4.89,4.72-11.59,4.76-16.1.3s-4.55-11.25.13-16.09q7.8-8.07,15.91-15.86a10.73,10.73,0,0,1,12.47-2.14C328.72,56,330.73,59.53,330.86,62.52Z"/>
            <path d="M330.9,319.91c-.13,4.51-2.15,8-6.21,9.89s-8.52,1.77-11.92-1.39c-6.13-5.68-12.11-11.55-17.72-17.74-3.95-4.35-3.22-10.89.91-14.91a10.78,10.78,0,0,1,14.94-.55c6.06,5.57,11.76,11.53,17.49,17.44A9.65,9.65,0,0,1,330.9,319.91Z"/>
            <path d="M64.4,53.09a11.36,11.36,0,0,1,8.33,3.69c4.94,4.94,9.92,9.85,14.81,14.85,5.08,5.21,5.23,12,.47,16.64s-11.29,4.25-16.37-.72S61.33,77.38,56.3,72.16a10.75,10.75,0,0,1-2.25-12.45C56,55.25,59.6,53.18,64.4,53.09Z"/>
            <path d="M64.06,330.91c-4.51-.15-8-2.2-9.87-6.26s-1.75-8.51,1.4-11.92c5.6-6,11.41-11.9,17.45-17.49a11.14,11.14,0,0,1,15.72,15.68C83.2,317,77.23,322.68,71.32,328.41A9.72,9.72,0,0,1,64.06,330.91Z"/>
            <path d="M25.25,272.31a11.19,11.19,0,0,1-11-8.33c-1.27-5.07.79-10.48,5.53-12.64,7.56-3.46,15.25-6.69,23.05-9.57,5.19-1.91,11.11,1.12,13.37,6.12s.79,11.18-4,13.78c-8,4.3-16.5,7.46-25,10.49A6.2,6.2,0,0,1,25.25,272.31Z"/>
            <path d="M358.17,272.3a13.35,13.35,0,0,1-2.85-.62c-7.36-3-14.77-5.86-22-9.12A11.13,11.13,0,0,1,341.67,242Q353,246.21,364,251.24c5,2.25,7.07,7.63,5.7,12.89C368.48,268.93,364,272.31,358.17,272.3Z"/>
            <path d="M142.66,45.69a11.38,11.38,0,0,1-8.56,11.2c-4.82,1.15-10.25-1-12.36-5.55q-5.19-11.34-9.58-23c-2-5.23.94-11,6-13.38s11.21-1,13.8,3.83c4.31,8,7.44,16.5,10.52,25A7,7,0,0,1,142.66,45.69Z"/>
            <path d="M338.44,142.64a11.27,11.27,0,0,1-11.29-8.34c-1.25-4.88,1-10.52,5.65-12.65,7.57-3.45,15.26-6.67,23.06-9.54,5.22-1.92,11,1.11,13.3,6.2s.78,11.18-4.05,13.77c-7.88,4.22-16.33,7.24-24.69,10.38A6.86,6.86,0,0,1,338.44,142.64Z"/>
            <path d="M111.69,358.38a9.84,9.84,0,0,1,.85-3.94c2.81-6.77,5.53-13.58,8.41-20.31,2.64-6.14,8.92-8.82,14.74-6.47s8.52,8.68,6.07,14.88c-2.83,7.15-5.73,14.29-8.91,21.3-2.3,5.06-7.43,7.21-12.76,5.91C115.09,368.53,111.66,364,111.69,358.38Z"/>
            <path d="M272.3,358.52a11.23,11.23,0,0,1-8.1,11.17c-5.08,1.36-10.6-.58-12.75-5.26-3.54-7.66-6.84-15.46-9.72-23.38-1.89-5.22,1.27-11.11,6.3-13.29s11.55-.51,14,4.49c3.74,7.83,6.8,16,10.09,24A6.69,6.69,0,0,1,272.3,358.52Z"/>
            <path d="M272.31,26.6c-3.14,8.29-6,18.4-11.89,27.05-2.88,4.2-9.15,4.56-13.59,2a11,11,0,0,1-4.91-13.24c2.88-7.54,6-15,9.3-22.35,2.25-5,7.58-7.1,12.86-5.76C268.85,15.48,272.27,19.93,272.31,26.6Z"/>
            <path d="M57.1,130.32c.08,8.78-7.26,14.37-14.62,11.72-7.58-2.72-15-5.89-22.37-9.22a10.92,10.92,0,0,1-5.43-14.23,11,11,0,0,1,14.21-6.19c7.3,2.78,14.52,5.81,21.69,8.95A10.31,10.31,0,0,1,57.1,130.32Z"/>
        </g>
    </g>
</svg>