<svg id="a45ed80c-3cc4-4730-8b74-b1f9fd110f78" data-name="Ebene 1" xmlns="http://www.w3.org/2000/svg"
     viewBox="0 0 347.62 347.33">
    <path d="M346.28,422.06c0-3.24.09-6.48,0-9.72-.06-1.8.58-2.37,2.35-2.33,4.36.09,8.74-.17,13.09.1,2.86.17,4-.78,4.89-3.55,6-18.67,18.37-31.09,37.31-36.46,30-8.51,60.8,10.62,67.15,41.45,6.16,29.92-14.81,59.49-45.21,63.74-26.54,3.72-50.67-11.42-59.1-37.38-1.07-3.3-2.47-4.23-5.69-4-3.84.29-7.74-.11-11.59.13-2.75.17-3.4-.87-3.22-3.39C346.44,427.81,346.28,424.93,346.28,422.06Zm107.78,0A18,18,0,1,0,436.2,440,18,18,0,0,0,454.06,422.09Z"
          transform="translate(-124.49 -248.36)"/>
    <path d="M274.37,446c7,0,14,0,20.95,0,2,0,2.94.15,3.27,2.64,1.65,12.29,10.34,20.37,22.8,21.22,2.62.17,2.63,1.69,2.95,3.3q7.25,36.07,14.44,72.17,3.51,17.58,7,35.17c1.48,7.3-2.41,13.68-9.25,15-6.48,1.28-12.74-3.25-14.11-10.22q-10.2-51.69-20.4-103.37a38.25,38.25,0,0,0-15.79-24.52c-4.34-3.1-4.35-3.08-5.78,1.93q-18,63-36,126.06c-1.11,3.92-3,7.1-6.75,8.92-4.46,2.16-8.8,1.9-12.62-1.23A11.73,11.73,0,0,1,221,580.66q6.72-30.46,13.41-60.93c5.11-23.23,10.29-46.44,15.26-69.7.66-3,1.55-4.32,4.92-4.16C261.14,446.19,267.76,446,274.37,446Z"
          transform="translate(-124.49 -248.36)"/>
    <path d="M334.3,408.87c0,12,0,23.94,0,35.91,0,7.66-4.93,13.07-11.83,13.15-7.06.08-12.1-5.39-12.11-13.24,0-20.83-.13-41.65,0-62.48.11-14.33-7.56-23.42-19.23-30.12-1.15-.67-1.82-.46-2.44.57a2,2,0,0,1-.2.31c-5.93,7.5-5.94,7.51,1.72,12.93a18.11,18.11,0,0,1,8.13,15.56c0,4.62-.08,9.23,0,13.84.06,2-.43,2.82-2.66,2.81-14.21-.1-28.43,0-42.64-.07-1.12,0-2.76.51-2.68-1.54.46-11.05-1.36-22.23,1.47-33.15,5.12-19.76,24.67-33.29,44.57-31,21.11,2.44,37.24,19.46,37.74,40.22.29,12.09.05,24.19.05,36.29Z"
          transform="translate(-124.49 -248.36)"/>
    <path d="M286.26,248.36a35.92,35.92,0,1,1-35.78,36.06A36,36,0,0,1,286.26,248.36Z"
          transform="translate(-124.49 -248.36)"/>
    <path d="M218.28,410c25.33,0,50.65.08,76-.1,3.55,0,4.34,1.07,4.18,4.35-.25,5.48-.21,11,0,16.46.1,2.67-.73,3.32-3.33,3.3-14.85-.12-29.69-.06-44.54-.06-35.68,0-71.36,0-107,.07a14.06,14.06,0,0,1-9.31-2.9c-2.15-1.69-4.54-3.07-6.82-4.59-4-2.66-3.74-6.11-.14-9.12,7.16-6,15.06-7.86,24.41-7.61C173.86,410.45,196.08,410,218.28,410Z"
          transform="translate(-124.49 -248.36)"/>
    <path d="M202.62,284.29c6.06,0,11.58,4.71,11.8,10.82C215.17,317,227,332,244.25,343.62c1.84,1.24,2.51,2,1.17,4.24a46.37,46.37,0,0,0-6.26,17.84c-.25,1.91-.68,2.71-2.75,1.48-25.28-15-42-35.89-45.64-65.86a31.34,31.34,0,0,1-.12-6A12,12,0,0,1,202.62,284.29Z"
          transform="translate(-124.49 -248.36)"/>
    <path d="M172.78,446c9,0,17.94.07,26.91-.06,2.31,0,2.95.63,2.92,2.93-.12,10.09-.09,20.18,0,30.27,0,2-.38,2.79-2.62,2.85-9.4.24-9.4.32-9.4-9.12,0-4.11-.07-8.22,0-12.33,0-1.87-.42-2.63-2.47-2.61q-15.51.15-31,0c-2,0-2.54.62-2.51,2.56.1,6.23,0,12.46.07,18.68,0,2-.45,2.76-2.65,2.82-9.36.22-9.36.3-9.36-9.16,0-7.84.1-15.69-.06-23.54-.05-2.55.56-3.41,3.26-3.36C154.84,446.07,163.81,446,172.78,446Z"
          transform="translate(-124.49 -248.36)"/>
</svg>