<svg xmlns="http://www.w3.org/2000/svg" viewBox="0 0 233.985 279.51">
    <defs>
        <style>
            #a50946a6-bab6-407a-ada1-612b8d1cafb1 path,
            #a19e8a2a-dee2-4892-b9e5-c1524623bea8 path{
                fill: #ff7800;
            }
        </style>
    </defs>
    <title>logout</title>
    <g id="a50946a6-bab6-407a-ada1-612b8d1cafb1" data-name="Ebene 1">
        <path d="M337.4,250.679c-7.976-8.679-19.262-17.139-31.144-19.258-.651-.116-1.447-.529-1.454-.42.1-1.554,2.353,3.611,1.552,2.279.343.57.032.506-.194.842.3-.454.5-.975.839-1.413a84.578,84.578,0,0,1,6.336-6.594c14.617-14.166,25.976-29.79,23.231-51.251-3.278-25.64-21.815-47.77-46.266-55.941a67.4,67.4,0,0,0-63.214,11.32c-20.15,16.366-29.149,44.071-21.3,68.945a74.33,74.33,0,0,0,11.134,21.365A93.165,93.165,0,0,0,228.2,233.906a6.648,6.648,0,0,0,1.667,1.36c1.536.449-.468,1.146.535-.754,2.091-3.963-.625-1.135-2.781-.149-6.388,2.921-12.976,4.649-18.679,8.951-9.931,7.49-17.233,18.28-23.873,28.64-10.495,16.377-19.5,34.833-22.643,54.209-1.982,12.224-.854,23.506,6.676,33.786a53.82,53.82,0,0,0,22.719,18c10.1,4.113,21.51,5.151,32.314,5.574,16.148.632,32.289-.864,48.255-3.191,7.613-1.11,4.376-12.674-3.19-11.571-22.2,3.236-47.606,5.854-69.5-.72a41.2,41.2,0,0,1-18.647-12.264c-6.558-7.38-8.589-15.849-7.21-25.439,2.44-16.963,9.87-33.051,18.644-47.6,6.089-10.091,12.813-20.8,21.892-28.5,5.148-4.365,11.37-6.076,17.449-8.7,2.817-1.217,6.191-2.5,8.3-4.832,3.243-3.581,2.747-8.885-.216-12.431a19.6,19.6,0,0,0-2.977-2.667c-1.59-1.278-.222-.155.039.1-1.314-1.268-2.5-2.681-3.725-4.037a90.334,90.334,0,0,1-11.443-15.61c-9.965-17.42-8.783-38.418,2.344-55.026,11.766-17.564,33.728-26.559,54.463-22.73,23.631,4.364,43.12,23.94,46.142,48.048,1.37,10.932-1.832,20.742-8.585,29.331-5.094,6.479-11.656,11.524-17.014,17.737-4.341,5.035-7.836,13.5-.411,17.943,4.832,2.892,10.895,3.44,15.913,6.246a57.544,57.544,0,0,1,14.257,11.555c5.237,5.7,13.706-2.805,8.485-8.485Z"
              transform="translate(-161.565 -115.519)"/>
    </g>
    <g id="a19e8a2a-dee2-4892-b9e5-c1524623bea8" data-name="Ebene 2">
        <path d="M327.5,296.958a4.371,4.371,0,0,1,8.741,0v23.309a4.371,4.371,0,0,1-8.741,0Z"
              transform="translate(-161.565 -115.519)"/>
        <path d="M331.866,364.262a32.341,32.341,0,0,1-21.279-56.695,4.37,4.37,0,1,1,5.754,6.58,23.6,23.6,0,1,0,31.183.116,4.371,4.371,0,0,1,5.8-6.538,32.342,32.342,0,0,1-21.46,56.537Z"
              transform="translate(-161.565 -115.519)"/>
        <path d="M385.549,330.988c-.259,22.409-14.182,43.214-35.517,50.862a54.793,54.793,0,0,1-60.393-16.411c-14.57-17.487-16.264-43.119-4.514-62.519,11.7-19.311,35.054-29.638,57.212-24.971a54.76,54.76,0,0,1,43.212,53.039c.075,6.431,10.075,6.448,10,0a64.985,64.985,0,0,0-42.238-60.274c-24.935-9.264-54.28-1.252-71.155,19.254C265.014,310.8,262.437,340.9,276.49,364.1a64.872,64.872,0,0,0,67.183,29.829c30.021-5.607,51.527-32.773,51.876-62.944C395.624,324.551,385.624,324.547,385.549,330.988Z"
              transform="translate(-161.565 -115.519)"/>
    </g>
</svg>