<svg xmlns="http://www.w3.org/2000/svg" viewBox="0 0 135.24 83.9">
    <defs>
        <style>
            #abcde754-bb40-4873-83ce-644076b08537 #aec60d0c-fa4a-44c6-a55c-2322aaf8065a{
                fill: white;
            }
        </style>
    </defs>
    <g id="abcde754-bb40-4873-83ce-644076b08537" data-name="Ebene 2">
        <g id="aec60d0c-fa4a-44c6-a55c-2322aaf8065a" data-name="Ebene 1">
            <path d="M67.8,0Q95.9,0,124,0c7.76,0,11.2,3.39,11.21,11.1q0,30.86,0,61.73c0,7.36-3.64,11-11,11q-56.57.06-113.15,0c-7.37,0-11-3.68-11-11Q0,41.8,0,10.75C0,3.56,3.63,0,10.85,0Q39.32,0,67.8,0ZM58.24,43.25l.83.32c0,6.92,0,13.84,0,20.75,0,2,.46,3,2.71,2.91,4-.14,8-.1,12,0,1.74,0,2.44-.64,2.44-2.39,0-15.25,0-30.5,0-45.75,0-1,.15-2.36-1.11-2.43a78.89,78.89,0,0,0-15.67.18c-.85.12-1.6,1.46-2.27,2.34-3,3.84-6,7.64-8.74,11.62-1.62,2.34-2.54,1.88-4-.11-3-4.14-6.12-8.15-9.17-12.23-.85-1.13-1.69-2-3.32-2q-6.36.12-12.74,0c-1.95,0-2.61.78-2.6,2.66q.06,22.7,0,45.39c0,2.13.78,2.83,2.85,2.75,3.11-.11,6.24,0,9.36,0,5.12,0,5.13,0,5.13-4.92V42.38c4.07,5.16,7.51,9.36,10.75,13.7,1.36,1.81,2.18,1.84,3.54,0C51.45,51.77,54.88,47.53,58.24,43.25Zm52-14.23c0-3-.13-5.95,0-8.91.15-2.63-.59-3.9-3.52-3.72a91.6,91.6,0,0,1-10.48,0c-2.7-.14-3.38,1-3.32,3.46.14,6.19-.08,12.39.1,18.57.08,2.66-.86,3.5-3.42,3.3-2.23-.18-4.48,0-6.73,0-1.53,0-2.65.24-1.36,2.05q9.32,13,18.62,26c.92,1.29,1.69,1.19,2.57,0q9.38-13,18.77-25.94c1.16-1.59.58-2.15-1.21-2.13-2.37,0-4.75-.12-7.11,0s-3-.85-3-3C110.31,35.47,110.22,32.24,110.22,29Z"/>
        </g>
    </g>
</svg>