<svg width="61" height="60" viewBox="0 0 61 60" fill="none" xmlns="http://www.w3.org/2000/svg">
    <path d="M0.0109863 56.8311C0.276142 56.4356 0.403592 55.9594 0.768364 55.6181C1.27524 55.1435 1.87293 54.8534 2.5556 54.8783C3.05075 54.8959 3.06393 54.6835 3.06393 54.3026C3.05417 48.7504 3.05124 43.1993 3.05515 37.6491C3.05515 36.8902 3.04489 36.1299 3.05515 35.3711C3.08591 33.5809 4.20513 32.2508 5.99383 32.1277C8.13143 31.9761 10.2771 31.9761 12.4147 32.1277C14.1726 32.2537 15.286 33.5809 15.3211 35.3506C15.3373 36.1856 15.3211 37.0236 15.3211 37.8205C17.8643 37.5055 20.3899 37.6886 22.911 37.6916C23.1908 37.6916 23.6127 37.9362 23.7226 37.8249C23.938 37.6051 23.8017 37.2052 23.8032 36.8814C23.8032 34.1142 23.7929 31.3483 23.8032 28.5825C23.8032 26.8246 24.6382 25.6526 26.1383 25.2263C26.3802 25.1549 26.6304 25.115 26.8825 25.1077C29.0052 25.0842 31.1308 24.9978 33.2477 25.1458C33.9837 25.2047 34.6729 25.5306 35.1855 26.0621C35.6981 26.5935 35.9988 27.294 36.0311 28.0317C36.078 28.7876 36.0633 29.5494 36.0604 30.3082C36.0604 30.5924 36.1117 30.7052 36.4237 30.5836C36.8471 30.4181 37.3027 30.4152 37.7495 30.4152C39.2496 30.4152 40.7497 30.4152 42.2498 30.4152C43.0057 30.4152 43.7689 30.3522 44.4853 30.6759C44.6069 30.4313 44.5541 30.2159 44.5541 30.0094C44.5541 26.0179 44.5541 22.0249 44.5541 18.0305C44.5541 15.8038 45.8448 14.5146 48.0627 14.5059C49.8353 14.5059 51.6084 14.5059 53.3819 14.5059C55.4841 14.5059 56.8128 15.8243 56.8216 17.9324C56.8333 20.1298 56.8216 22.3345 56.8216 24.5349C56.8216 25.3626 56.6531 25.5911 55.8782 25.8533C55.0593 25.5867 54.9406 25.427 54.9392 24.5466C54.9392 22.3638 54.9392 20.1825 54.9392 17.9998C54.9392 16.9596 54.4513 16.4 53.5064 16.3883C51.9668 16.3707 50.43 16.3883 48.8889 16.4015C48.7527 16.4015 48.6179 16.3825 48.4817 16.3825C46.7882 16.3678 46.4307 16.7238 46.4307 18.4334C46.4307 30.2848 46.4307 42.1372 46.4307 53.9906C46.4307 54.1458 46.4439 54.3026 46.4307 54.4579C46.4 54.7714 46.5465 54.8637 46.8409 54.8534C47.4049 54.8329 47.9689 54.8373 48.5329 54.83C50.4213 54.8373 52.3081 54.8476 54.1964 54.8476C55.0373 54.8476 54.9421 54.9472 54.9421 54.1034C54.9421 45.5998 54.9421 37.0958 54.9421 28.5913C54.9421 27.6567 55.0886 27.4516 55.8826 27.2392C56.6575 27.4677 56.8245 27.708 56.8245 28.6074C56.8245 37.1334 56.8245 45.6589 56.8245 54.1839C56.8245 54.6718 56.8949 54.8622 57.4574 54.8812C58.0668 54.9054 58.6466 55.1502 59.0889 55.5701C59.5312 55.99 59.8057 56.5563 59.8614 57.1636C59.9918 58.4 59.2065 59.5207 57.9569 59.8752C57.8822 59.8972 57.8104 59.8972 57.7797 59.988H57.5453C57.3988 59.8049 57.1864 59.8738 57.0003 59.8738C53.3497 59.8738 49.6986 59.8738 46.0469 59.8738C45.8609 59.8738 45.6529 59.8064 45.502 59.988H45.2676C45.0112 59.7156 44.6977 59.4782 44.6699 59.0578C44.8618 58.2858 45.083 58.1041 45.8916 58.1027H56.8216C57.0174 58.1109 57.2136 58.1011 57.4076 58.0734C57.5659 58.0573 57.7126 57.9825 57.8186 57.8638C57.9246 57.745 57.9823 57.5909 57.9804 57.4317C57.9893 57.2729 57.9372 57.1167 57.8349 56.995C57.7325 56.8733 57.5875 56.7953 57.4296 56.7769C57.1988 56.7429 56.9654 56.7301 56.7322 56.7388L4.82773 56.7491C4.5948 56.7491 4.36041 56.7637 4.12749 56.771C3.64259 56.7608 3.15769 56.7315 2.67426 56.7447C2.23478 56.7564 1.90663 56.9878 1.92274 57.4566C1.93593 57.8873 2.24356 58.1071 2.6684 58.1144C3.1533 58.1217 3.63819 58.1027 4.12309 58.0939C4.41608 58.0939 4.70907 58.11 5.00206 58.11H41.8616C42.8343 58.11 43.0423 58.2565 43.246 59.0783C43.1258 59.4651 43.0247 59.8709 42.5032 59.8914L27.5827 59.8796C27.4362 59.8796 27.2678 59.8489 27.1535 59.9954H1.99892C1.54059 59.831 1.12449 59.5669 0.780698 59.2221C0.436906 58.8773 0.174003 58.4604 0.0109863 58.0016V56.8311ZM17.7837 39.5535C17.5112 39.5462 17.2388 39.533 16.9663 39.5345C15.8134 39.5345 15.3329 40.0164 15.3285 41.1635C15.3285 42.2549 15.3285 43.3448 15.3285 44.4347C15.3285 47.7269 15.3285 51.0177 15.3285 54.307C15.3285 54.66 15.3285 54.9032 15.806 54.8622C16.3466 54.8168 16.8945 54.8402 17.4395 54.8329C19.3834 54.8402 21.3289 54.8329 23.2714 54.8666C23.7592 54.8769 23.8398 54.7069 23.8383 54.2704C23.8222 49.9356 23.8266 45.5993 23.8237 41.2631C23.8257 41.1074 23.8173 40.9518 23.7988 40.7973C23.6845 39.9783 23.2319 39.5447 22.3968 39.5374C20.8542 39.5242 19.319 39.5535 17.7837 39.5535ZM7.3826 33.9486C7.30495 33.9398 7.22731 33.9267 7.14967 33.9252C5.39173 33.8783 4.91856 34.3295 4.91856 36.0713V53.9217C4.91856 54.0975 4.93028 54.2733 4.91856 54.4462C4.89512 54.7567 5.04015 54.8563 5.33314 54.849C5.89714 54.8344 6.46115 54.8402 7.02515 54.8388C8.97206 54.8388 10.9204 54.8388 12.8674 54.8563C13.3288 54.8637 13.4636 54.7318 13.4533 54.2704C13.4299 52.0114 13.4431 49.7525 13.4431 47.4935C13.4431 43.5411 13.4431 39.5857 13.4431 35.6275C13.4431 34.5156 12.9274 33.9501 11.8185 33.9325C10.3476 33.9105 8.86805 33.9413 7.38846 33.9486H7.3826ZM38.4863 32.3211C36.4867 32.1599 36.0531 32.5555 36.0531 34.5434V46.6204C36.0531 49.1885 36.0531 51.7551 36.0457 54.3231C36.0457 54.7113 36.1205 54.8944 36.5541 54.8607C37.0756 54.8197 37.6015 54.8388 38.1274 54.83C40.1505 54.8373 42.1751 54.8402 44.1982 54.8563C44.4824 54.8563 44.5644 54.7597 44.56 54.4857C44.5454 53.7459 44.56 53.0076 44.56 52.2678C44.56 46.156 44.56 40.0448 44.56 33.934C44.56 32.8821 44.1205 32.3225 43.1581 32.305C41.6067 32.2757 40.0421 32.3123 38.4863 32.3211ZM28.0735 27.0194C27.9563 27.0194 27.8406 27.0033 27.7234 27.0019C26.0138 26.9872 25.7208 27.2787 25.7208 28.9942C25.7208 37.3317 25.7208 45.6682 25.7208 54.0037C25.7208 54.14 25.7325 54.2777 25.7208 54.4125C25.6871 54.7377 25.8146 54.8695 26.15 54.8519C26.6745 54.8256 27.2004 54.8329 27.7263 54.8256C29.6542 54.8344 31.5835 54.8256 33.5099 54.8622C34.0607 54.8739 34.1794 54.7025 34.1794 54.1795C34.1618 45.6828 34.1574 37.1901 34.1662 28.7012C34.1662 28.5649 34.1662 28.4287 34.1662 28.2925C34.1267 27.519 33.6462 27.0121 32.8683 27.0048C31.2671 26.9931 29.6703 27.0136 28.0735 27.0194Z"
          fill="white"/>
    <path d="M6.17993 20.8549C6.17993 19.0838 7.5145 17.7317 9.17282 17.7156C9.57278 17.7123 9.96933 17.7894 10.3389 17.9423C10.7085 18.0953 11.0436 18.3208 11.3244 18.6057C11.6052 18.8906 11.8259 19.2289 11.9734 19.6007C12.121 19.9725 12.1923 20.3701 12.1833 20.77C12.173 21.1743 12.299 21.3472 12.6228 21.52C14.0877 22.2833 15.5395 23.0699 16.9912 23.8639C17.2974 24.0295 17.5172 24.1057 17.8599 23.842C18.1908 23.5812 18.5793 23.4034 18.993 23.3237C19.4067 23.2439 19.8334 23.2644 20.2376 23.3834C20.5305 23.4655 20.7195 23.4318 20.9305 23.1725C22.9814 20.6694 25.0392 18.1756 27.1038 15.691C27.281 15.4771 27.3469 15.3233 27.2151 15.0362C26.9431 14.4819 26.8504 13.8568 26.9499 13.2475C27.0493 12.6381 27.3361 12.0749 27.7703 11.636C28.1929 11.215 28.7287 10.9259 29.3126 10.8039C29.8966 10.6819 30.5033 10.7323 31.0591 10.949C31.6229 11.1764 32.1048 11.5689 32.4415 12.075C32.7782 12.5811 32.9541 13.1773 32.946 13.7851C32.946 14.1382 33.047 14.2949 33.3459 14.4443C34.8226 15.1856 36.2914 15.9415 37.7525 16.7121C38.0381 16.8586 38.2374 16.8864 38.5274 16.6623C39.1632 16.1715 39.9045 15.9415 40.7248 16.1173C41.0017 16.1774 41.1438 16.0763 41.2903 15.8507C43.5561 12.3592 45.8292 8.87168 48.1096 5.38803C48.2722 5.14192 48.2664 4.98371 48.1096 4.72441C47.4753 3.63742 47.4768 2.52699 48.1858 1.47809C48.8948 0.429191 49.932 -0.0322674 51.1772 0.187475C52.4224 0.407217 53.2633 1.17924 53.6032 2.42591C54.1452 4.41677 52.4107 6.41496 50.3803 6.12197C50.0111 6.06777 49.8265 6.17764 49.6317 6.47795C47.4069 9.92351 45.167 13.3627 42.912 16.7956C42.7259 17.0798 42.7333 17.2658 42.912 17.5588C43.2227 18.0909 43.3622 18.7057 43.3118 19.3198C43.2613 19.9339 43.0233 20.5176 42.6299 20.9919C42.2366 21.4661 41.7069 21.808 41.1127 21.9711C40.5186 22.1343 39.8886 22.1108 39.3082 21.9038C38.7232 21.7066 38.2153 21.3296 37.8573 20.8265C37.4992 20.3235 37.3092 19.7203 37.3144 19.1029C37.3144 18.7147 37.2134 18.5169 36.8632 18.3499C35.3822 17.6174 33.9158 16.8571 32.4552 16.0865C32.1798 15.94 32.0055 15.9283 31.7403 16.1378C31.3916 16.4221 30.9789 16.6174 30.5379 16.7067C30.0969 16.796 29.6408 16.7767 29.2089 16.6505C28.9159 16.5714 28.7474 16.6505 28.5672 16.8761C26.5017 19.388 24.4307 21.8955 22.3544 24.3986C22.183 24.6052 22.1713 24.759 22.2841 25.0125C22.8334 26.2386 22.6078 27.5029 21.7186 28.4141C21.291 28.8448 20.7446 29.1382 20.1494 29.2567C19.5541 29.3752 18.937 29.3134 18.3771 29.0791C17.2051 28.5737 16.5283 27.475 16.5708 26.0848C16.5858 25.9916 16.5691 25.8961 16.5235 25.8135C16.4778 25.7309 16.4057 25.666 16.3188 25.6292C14.7235 24.7795 13.1282 23.9299 11.5446 23.0611C11.2355 22.8912 11.0904 23.0948 10.8883 23.2238C9.88918 23.8669 8.84613 23.9562 7.79137 23.3952C7.3135 23.163 6.90966 22.8024 6.62506 22.3538C6.34047 21.9052 6.18634 21.3862 6.17993 20.8549V20.8549ZM41.4192 19.0443C41.4147 18.7508 41.2958 18.4707 41.0878 18.2636C40.8799 18.0565 40.5993 17.9387 40.3059 17.9353C40.0129 17.9486 39.7357 18.0712 39.5287 18.279C39.3218 18.4867 39.2003 18.7645 39.1881 19.0574C39.195 19.3603 39.3201 19.6485 39.5366 19.8604C39.7531 20.0722 40.0439 20.191 40.3469 20.1913C40.6404 20.1791 40.9173 20.052 41.118 19.8374C41.3186 19.6228 41.4268 19.3379 41.4192 19.0443V19.0443ZM50.704 4.24831C50.9969 4.24599 51.2769 4.12792 51.483 3.91989C51.6892 3.71185 51.8046 3.43073 51.8042 3.13788C51.791 2.83603 51.6617 2.55094 51.4433 2.34213C51.225 2.13331 50.9344 2.0169 50.6323 2.01719C50.3387 2.03349 50.0634 2.16464 49.8657 2.38229C49.6681 2.59994 49.564 2.88661 49.576 3.18036C49.5763 3.326 49.606 3.47007 49.6635 3.6039C49.7209 3.73772 49.8049 3.85852 49.9103 3.95901C50.0157 4.0595 50.1404 4.13758 50.2768 4.18856C50.4132 4.23954 50.5586 4.26236 50.704 4.25563V4.24831ZM29.9619 12.6337C29.667 12.6276 29.3814 12.7366 29.1656 12.9376C28.9498 13.1387 28.8208 13.4158 28.806 13.7104C28.7811 14.2861 29.3114 14.8384 29.9047 14.8589C30.0508 14.8649 30.1965 14.8411 30.3331 14.7889C30.4696 14.7367 30.5941 14.6573 30.6989 14.5555C30.8038 14.4536 30.8868 14.3315 30.9429 14.1966C30.9991 14.0616 31.0271 13.9166 31.0254 13.7705C31.0357 13.6247 31.0158 13.4784 30.9669 13.3407C30.9181 13.203 30.8414 13.0768 30.7415 12.9701C30.6417 12.8634 30.521 12.7785 30.3868 12.7206C30.2526 12.6627 30.108 12.6331 29.9619 12.6337V12.6337ZM19.5798 27.4076C19.875 27.4038 20.1569 27.2842 20.3649 27.0746C20.5728 26.865 20.6902 26.5822 20.6917 26.287C20.6754 25.9921 20.5491 25.714 20.3378 25.5077C20.1266 25.3013 19.8457 25.1816 19.5505 25.1721C19.2544 25.1798 18.9734 25.3045 18.7691 25.519C18.5648 25.7335 18.4539 26.0201 18.4606 26.3163C18.4587 26.4625 18.4865 26.6075 18.5425 26.7427C18.5984 26.8778 18.6812 27.0001 18.7859 27.1022C18.8906 27.2043 19.015 27.284 19.1515 27.3365C19.2879 27.389 19.4337 27.4132 19.5798 27.4076V27.4076ZM10.2994 20.7246C10.2937 20.4366 10.1763 20.162 9.97204 19.959C9.76776 19.7559 9.49256 19.6401 9.20454 19.6361C8.91652 19.6321 8.63821 19.7402 8.42839 19.9376C8.21856 20.1349 8.09363 20.4061 8.07997 20.6938C8.06825 21.3047 8.61467 21.8658 9.20212 21.8658C9.49457 21.8472 9.76945 21.7197 9.97255 21.5084C10.1757 21.2972 10.2923 21.0175 10.2994 20.7246Z"
          fill="white"/>
</svg>
