<svg width="25" height="276" viewBox="0 0 25 276" fill="none" xmlns="http://www.w3.org/2000/svg">
    <rect width="25" height="276" rx="5" fill="#515151"/>
    <path d="M14.1572 174.765H14.3506C15.0361 174.765 15.6719 174.665 16.2578 174.466C16.8437 174.267 17.3535 173.979 17.7871 173.604C18.2207 173.235 18.5605 172.784 18.8066 172.251C19.0527 171.712 19.1758 171.105 19.1758 170.432C19.1758 169.764 19.0527 169.163 18.8066 168.63C18.5605 168.097 18.2207 167.643 17.7871 167.268C17.3535 166.898 16.8437 166.614 16.2578 166.415C15.6719 166.216 15.0361 166.116 14.3506 166.116H14.1572C13.4717 166.116 12.8359 166.216 12.25 166.415C11.6582 166.614 11.1455 166.898 10.7119 167.268C10.2783 167.643 9.93848 168.1 9.69238 168.639C9.44043 169.172 9.31445 169.775 9.31445 170.449C9.31445 171.117 9.44043 171.718 9.69238 172.251C9.93848 172.784 10.2783 173.235 10.7119 173.604C11.1455 173.979 11.6582 174.267 12.25 174.466C12.8359 174.665 13.4717 174.765 14.1572 174.765ZM14.3506 173.139H14.1572C13.6943 173.139 13.252 173.083 12.8301 172.972C12.4023 172.86 12.0273 172.69 11.7051 172.462C11.3828 172.239 11.1279 171.961 10.9404 171.627C10.7471 171.293 10.6504 170.9 10.6504 170.449C10.6504 169.998 10.7471 169.605 10.9404 169.271C11.1279 168.932 11.3828 168.647 11.7051 168.419C12.0273 168.196 12.4023 168.029 12.8301 167.918C13.252 167.801 13.6943 167.742 14.1572 167.742H14.3506C14.8193 167.742 15.2676 167.798 15.6953 167.909C16.1172 168.021 16.4893 168.188 16.8115 168.41C17.1338 168.639 17.3887 168.923 17.5762 169.263C17.7637 169.597 17.8574 169.986 17.8574 170.432C17.8574 170.883 17.7637 171.278 17.5762 171.618C17.3887 171.958 17.1338 172.239 16.8115 172.462C16.4893 172.69 16.1172 172.86 15.6953 172.972C15.2676 173.083 14.8193 173.139 14.3506 173.139ZM22.6562 163.506V161.88H18.0859C18.2148 161.763 18.335 161.637 18.4463 161.502C18.5518 161.367 18.6484 161.224 18.7363 161.071C18.877 160.819 18.9854 160.538 19.0615 160.228C19.1377 159.911 19.1758 159.571 19.1758 159.208C19.1758 158.61 19.0527 158.08 18.8066 157.617C18.5605 157.148 18.2207 156.756 17.7871 156.439C17.3535 156.123 16.8437 155.883 16.2578 155.719C15.666 155.555 15.0303 155.473 14.3506 155.473H14.166C13.457 155.473 12.8066 155.555 12.2148 155.719C11.6172 155.883 11.1045 156.123 10.6768 156.439C10.249 156.756 9.91504 157.148 9.6748 157.617C9.43457 158.086 9.31445 158.625 9.31445 159.234C9.31445 159.58 9.35254 159.905 9.42871 160.21C9.49902 160.509 9.60449 160.781 9.74512 161.027C9.83887 161.203 9.95312 161.367 10.0879 161.52C10.2168 161.672 10.3633 161.812 10.5273 161.941L9.49023 162.021V163.506H22.6562ZM14.166 157.099H14.3506C14.8135 157.099 15.2559 157.151 15.6777 157.257C16.0996 157.356 16.4717 157.512 16.7939 157.723C17.1162 157.934 17.374 158.203 17.5674 158.531C17.7549 158.859 17.8486 159.249 17.8486 159.7C17.8486 159.981 17.8135 160.239 17.7432 160.474C17.6729 160.702 17.5762 160.91 17.4531 161.098C17.3477 161.262 17.2187 161.408 17.0664 161.537C16.9141 161.666 16.75 161.78 16.5742 161.88H11.9951C11.7959 161.769 11.6143 161.64 11.4502 161.493C11.2861 161.347 11.1484 161.18 11.0371 160.992C10.9258 160.822 10.8408 160.632 10.7822 160.421C10.7236 160.204 10.6943 159.97 10.6943 159.718C10.6943 159.261 10.7881 158.868 10.9756 158.54C11.1631 158.212 11.415 157.939 11.7314 157.723C12.0537 157.512 12.4258 157.356 12.8477 157.257C13.2637 157.151 13.7031 157.099 14.166 157.099ZM7.1875 148.837V150.472H9.49023V152.968H10.7471V150.472H15.915C16.501 150.472 17.002 150.396 17.418 150.243C17.8281 150.085 18.1621 149.871 18.4199 149.602C18.6836 149.332 18.877 149.016 19 148.652C19.1172 148.283 19.1758 147.888 19.1758 147.466C19.1758 147.214 19.1641 146.962 19.1406 146.71C19.1172 146.452 19.082 146.209 19.0352 145.98C18.9941 145.752 18.9443 145.541 18.8857 145.348C18.8213 145.154 18.748 144.99 18.666 144.855L17.5146 145.084C17.5381 145.184 17.5674 145.312 17.6025 145.471C17.6318 145.623 17.6611 145.787 17.6904 145.963C17.7197 146.145 17.7461 146.329 17.7695 146.517C17.7871 146.704 17.7959 146.886 17.7959 147.062C17.7959 147.302 17.7666 147.53 17.708 147.747C17.6494 147.958 17.5469 148.146 17.4004 148.31C17.2598 148.474 17.0693 148.603 16.8291 148.696C16.5889 148.79 16.2842 148.837 15.915 148.837H10.7471V145.216H9.49023V148.837H7.1875ZM9.49023 141.621H10.9053V138.387H17.5937V141.621H19V133.658H17.5937V136.761H9.49023V141.621ZM6.99414 138.598C7.25781 138.598 7.47754 138.519 7.65332 138.36C7.8291 138.196 7.91699 137.95 7.91699 137.622C7.91699 137.3 7.8291 137.057 7.65332 136.893C7.47754 136.729 7.25781 136.646 6.99414 136.646C6.84766 136.646 6.71289 136.67 6.58984 136.717C6.4668 136.764 6.36426 136.834 6.28223 136.928C6.20605 137.004 6.14746 137.101 6.10645 137.218C6.05957 137.335 6.03613 137.47 6.03613 137.622C6.03613 137.774 6.05957 137.912 6.10645 138.035C6.14746 138.152 6.20605 138.249 6.28223 138.325C6.37012 138.419 6.47559 138.489 6.59863 138.536C6.72168 138.577 6.85352 138.598 6.99414 138.598ZM14.1572 131.522H14.3506C15.0361 131.522 15.6719 131.423 16.2578 131.224C16.8437 131.024 17.3535 130.737 17.7871 130.362C18.2207 129.993 18.5605 129.542 18.8066 129.009C19.0527 128.47 19.1758 127.863 19.1758 127.189C19.1758 126.521 19.0527 125.921 18.8066 125.388C18.5605 124.854 18.2207 124.4 17.7871 124.025C17.3535 123.656 16.8437 123.372 16.2578 123.173C15.6719 122.974 15.0361 122.874 14.3506 122.874H14.1572C13.4717 122.874 12.8359 122.974 12.25 123.173C11.6582 123.372 11.1455 123.656 10.7119 124.025C10.2783 124.4 9.93848 124.857 9.69238 125.396C9.44043 125.93 9.31445 126.533 9.31445 127.207C9.31445 127.875 9.44043 128.476 9.69238 129.009C9.93848 129.542 10.2783 129.993 10.7119 130.362C11.1455 130.737 11.6582 131.024 12.25 131.224C12.8359 131.423 13.4717 131.522 14.1572 131.522ZM14.3506 129.896H14.1572C13.6943 129.896 13.252 129.841 12.8301 129.729C12.4023 129.618 12.0273 129.448 11.7051 129.22C11.3828 128.997 11.1279 128.719 10.9404 128.385C10.7471 128.051 10.6504 127.658 10.6504 127.207C10.6504 126.756 10.7471 126.363 10.9404 126.029C11.1279 125.689 11.3828 125.405 11.7051 125.177C12.0273 124.954 12.4023 124.787 12.8301 124.676C13.252 124.559 13.6943 124.5 14.1572 124.5H14.3506C14.8193 124.5 15.2676 124.556 15.6953 124.667C16.1172 124.778 16.4893 124.945 16.8115 125.168C17.1338 125.396 17.3887 125.681 17.5762 126.021C17.7637 126.354 17.8574 126.744 17.8574 127.189C17.8574 127.641 17.7637 128.036 17.5762 128.376C17.3887 128.716 17.1338 128.997 16.8115 129.22C16.4893 129.448 16.1172 129.618 15.6953 129.729C15.2676 129.841 14.8193 129.896 14.3506 129.896ZM19 120.255V118.629H12.1797C11.9746 118.518 11.7871 118.389 11.6172 118.242C11.4473 118.09 11.2979 117.926 11.1689 117.75C11.0225 117.533 10.9082 117.296 10.8262 117.038C10.7383 116.78 10.6943 116.502 10.6943 116.203C10.6943 115.857 10.7354 115.553 10.8174 115.289C10.8994 115.02 11.0312 114.791 11.2129 114.604C11.3945 114.422 11.6318 114.284 11.9248 114.19C12.2178 114.097 12.5752 114.05 12.9971 114.05H19V112.424H12.9619C12.3291 112.424 11.7842 112.503 11.3271 112.661C10.8643 112.813 10.4834 113.033 10.1846 113.32C9.88574 113.607 9.66602 113.956 9.52539 114.366C9.38477 114.771 9.31445 115.222 9.31445 115.72C9.32031 116.089 9.37598 116.44 9.48145 116.774C9.58105 117.103 9.72461 117.407 9.91211 117.688C10.0352 117.876 10.1816 118.055 10.3516 118.225C10.5156 118.389 10.6973 118.541 10.8965 118.682L9.49023 118.796V120.255H19ZM16.4775 103.125C16.6299 103.125 16.7734 103.154 16.9082 103.213C17.043 103.271 17.166 103.356 17.2773 103.468C17.459 103.649 17.6025 103.901 17.708 104.224C17.8076 104.546 17.8574 104.924 17.8574 105.357C17.8574 105.633 17.8281 105.911 17.7695 106.192C17.7109 106.474 17.6113 106.729 17.4707 106.957C17.3301 107.191 17.1455 107.388 16.917 107.546C16.6885 107.698 16.4072 107.786 16.0732 107.81V109.436C16.4775 109.436 16.8672 109.345 17.2422 109.163C17.6172 108.976 17.9453 108.706 18.2266 108.354C18.5137 108.009 18.7451 107.584 18.9209 107.08C19.0908 106.576 19.1758 106.002 19.1758 105.357C19.1758 104.795 19.1084 104.276 18.9736 103.802C18.8389 103.327 18.6484 102.92 18.4023 102.58C18.1562 102.24 17.8604 101.977 17.5146 101.789C17.1689 101.596 16.7852 101.499 16.3633 101.499C15.9707 101.499 15.625 101.584 15.3262 101.754C15.0273 101.918 14.7637 102.158 14.5352 102.475C14.3125 102.791 14.1221 103.181 13.9639 103.644C13.7998 104.106 13.6562 104.631 13.5332 105.217C13.4453 105.662 13.3545 106.031 13.2607 106.324C13.167 106.611 13.0615 106.84 12.9443 107.01C12.8271 107.186 12.6953 107.309 12.5488 107.379C12.4023 107.449 12.2354 107.484 12.0479 107.484C11.8662 107.484 11.6904 107.44 11.5205 107.353C11.3506 107.265 11.2012 107.133 11.0723 106.957C10.9434 106.787 10.8408 106.573 10.7646 106.315C10.6885 106.052 10.6504 105.747 10.6504 105.401C10.6504 105.067 10.6973 104.769 10.791 104.505C10.8848 104.235 11.0078 104.007 11.1602 103.819C11.3125 103.632 11.4883 103.485 11.6875 103.38C11.8809 103.274 12.0801 103.222 12.2852 103.222V101.596C11.8691 101.596 11.4824 101.687 11.125 101.868C10.7617 102.044 10.4453 102.296 10.1758 102.624C9.90625 102.952 9.69531 103.351 9.54297 103.819C9.39062 104.288 9.31445 104.815 9.31445 105.401C9.31445 105.946 9.3877 106.447 9.53418 106.904C9.68066 107.355 9.87988 107.745 10.1318 108.073C10.3838 108.401 10.6797 108.656 11.0195 108.838C11.3535 109.02 11.7139 109.11 12.1006 109.11C12.4932 109.11 12.8389 109.022 13.1377 108.847C13.4307 108.671 13.6855 108.422 13.9023 108.1C14.125 107.783 14.3154 107.402 14.4736 106.957C14.6318 106.506 14.7666 106.008 14.8779 105.463C14.9658 105.018 15.0654 104.646 15.1768 104.347C15.2822 104.048 15.3994 103.808 15.5283 103.626C15.6572 103.444 15.8008 103.315 15.959 103.239C16.1113 103.163 16.2842 103.125 16.4775 103.125Z"
          fill="#FF7800"/>
</svg>
