<svg id="Ebene_1" xmlns="http://www.w3.org/2000/svg" xmlns:xlink="http://www.w3.org/1999/xlink" viewBox="0 0 800 800">
    <defs>
        <style>.cls-1{fill:#fff;}.cls-2{fill:#ff7800;}.cls-3{mask:url(#mask);}.cls-4{fill:url(#Unbenannter_Verlauf);}
        </style>
        <mask id="mask" x="0" y="0" width="800" height="800" maskUnits="userSpaceOnUse">
            <g transform="translate(0 0)">
                <g id="a">
                    <circle class="cls-1" cx="400" cy="400" r="400"/>
                </g>
            </g>
        </mask>
        <linearGradient id="Unbenannter_Verlauf" x1="434.32" y1="412.11" x2="35.04" y2="-23.6"
                        gradientTransform="matrix(1, 0, 0, -1, 0, 800)" gradientUnits="userSpaceOnUse">
            <stop offset="0" stop-opacity="0.42"/>
            <stop offset="1" stop-opacity="0"/>
        </linearGradient>
    </defs>
    <title>padlock</title>
    <circle class="cls-2" cx="400" cy="400" r="400"/>
    <g class="cls-3">
        <path class="cls-4"
              d="M390.09,144.47a101,101,0,0,0-72.93,30.87l-312,312C31.7,659.93,110.05,796.5,380,799.78L555.56,624.2a19.12,19.12,0,0,0,6.55-10.91,19.76,19.76,0,0,0,.39-3.87V328.84a19.69,19.69,0,0,0-.39-3.87,19.12,19.12,0,0,0-18.76-15.29H511.22v-63.9A101.09,101.09,0,0,0,409.9,144.47Z"
              transform="translate(0 0)"/>
    </g>
    <path class="cls-1"
          d="M390.09,144.47A101.08,101.08,0,0,0,288.78,245.78v63.9H256.66a19.12,19.12,0,0,0-19.16,19.15V609.41a19.12,19.12,0,0,0,19.16,19.16h286.7a19.12,19.12,0,0,0,19.15-19.16V328.83a19.11,19.11,0,0,0-19.15-19.15H511.24v-63.9A101.09,101.09,0,0,0,409.92,144.47H390.09Zm1.24,14.35h17.34a88.47,88.47,0,0,1,88.66,88.67v62.19H479.06V250.86a71.86,71.86,0,0,0-72-72H393a71.86,71.86,0,0,0-72,72v58.82H302.67V247.49a88.47,88.47,0,0,1,88.66-88.67Zm2.5,30.22h12.33a62.89,62.89,0,0,1,63,63v57.61H330.82V252.07a62.87,62.87,0,0,1,63-63ZM269.69,324.19H530.3a17.37,17.37,0,0,1,17.41,17.41v255a17.37,17.37,0,0,1-17.41,17.41H269.69a17.37,17.37,0,0,1-17.41-17.41v-255a17.38,17.38,0,0,1,17.41-17.41Z"
          transform="translate(0 0)"/>
    <path class="cls-1"
          d="M324.67,402.13H475.33a5.92,5.92,0,0,1,5.92,5.92h0a5.92,5.92,0,0,1-5.92,5.92H324.67a5.92,5.92,0,0,1-5.92-5.92h0A5.92,5.92,0,0,1,324.67,402.13Z"
          transform="translate(0 0)"/>
    <path class="cls-1"
          d="M324.67,528.45H475.33a5.92,5.92,0,0,1,5.92,5.92h0a5.92,5.92,0,0,1-5.92,5.92H324.67a5.92,5.92,0,0,1-5.92-5.92h0A5.92,5.92,0,0,1,324.67,528.45Z"
          transform="translate(0 0)"/>
    <path class="cls-1"
          d="M324.67,464H475.33a5.92,5.92,0,0,1,5.92,5.92h0a5.92,5.92,0,0,1-5.92,5.92H324.67a5.92,5.92,0,0,1-5.92-5.92h0A5.92,5.92,0,0,1,324.67,464Z"
          transform="translate(0 0)"/>
</svg>