<svg id="a06e6630-3d03-441c-9b98-1dbe45f255aa" data-name="Ebene 1" xmlns="http://www.w3.org/2000/svg"
     viewBox="0 0 364.32 372.09">
    <path d="M193.12,235.62c4,15.79,8,31.6,12.19,47.35.85,3.15.09,4.1-2.91,4.81-8.66,2-8.61,2.17-10.78-6.37-3.36-13.23-6.68-26.46-10.2-39.64-.68-2.54,0-3.33,2.34-3.86,2.67-.6,5.45-.91,7.91-2.29Z"
          transform="translate(-115.68 -235.62)"/>
    <path d="M390.4,457.57a107.4,107.4,0,0,1-19.55,18.68c-2.32,1.74-4.73,3.37-7.11,5Q347,493,347,513.34c0,7.51.07,15,0,22.53-.18,12.38-7.51,20.46-19.57,20.69-16.83.33-33.68.36-50.5,0-12-.26-19.12-8.21-19.37-20.45-.18-9.08.42-18.18-.32-27.24a34.56,34.56,0,0,0-14.85-26.29c-9.86-7.08-19.48-14.35-27.38-23.69-13.85-16.37-23.05-35-26-56.21-6.58-46.64,9.39-84.32,47-112.35,19.35-14.41,41.74-21,66-21,1.16,0,2.42-.33,3.5.45-.07,1.06-1,1.28-1.61,1.79-3.77,3.28-4.22,6.39-1.24,10.46,4.37,5.95,8.82,11.85,13.29,17.73,1.95,2.56,3.24,5.18,1.39,8.32s-5,3.49-8.26,3c-7.06-1-14.13-2-21.2-3.07-5.38-.8-8.27.95-9.08,6.18-1.89,12.2-3.62,24.42-5.27,36.65-.55,4.08,1.82,6.91,6.08,7.57,6.81,1.05,13.65,2,20.48,2.94,1.07.16,2.15.33,3.22.52,2.87.51,5,2,5.59,4.95s-.54,5.22-2.86,7c-5.9,4.44-11.82,8.85-17.72,13.3-5.08,3.83-5.54,6.86-1.76,11.9q10.32,13.81,20.72,27.59c3.49,4.62,6.71,5.06,11.41,1.57q8.61-6.37,17.15-12.85c2.55-1.94,5.2-3.23,8.34-1.48,3.3,1.85,3.54,4.94,3.08,8.22q-1.53,10.79-3.08,21.57c-.73,5.18,1.07,7.94,6.17,8.73,12.32,1.89,24.66,3.61,37,5.36A19.55,19.55,0,0,0,390.4,457.57ZM212.62,382.64c.69,27.7,10.33,50.12,30,68.13,8.7,8,19.06,13.09,29.64,18,12.21,5.65,19.52,15.38,22.68,28.44.66,2.7-.85,6.57,1.89,7.9,2.36,1.15,5.69.31,8.6.34.36,0,.73,0,1.09,0,1.57.1,2.06-.56,2-2.16a55.62,55.62,0,0,0-6.27-22.91c-6.76-12.71-17.58-20.4-30.53-26-53.12-23.13-62.37-93.82-17.21-130.21,2.13-1.72,6-2.66,6.06-5.17s-2.74-4.9-4.06-7.47-2.38-2.87-4.86-1.11C226.33,328.39,213.89,353.1,212.62,382.64ZM308.6,528c0-10,0-10-10-9.78-2.15,0-3,.55-2.91,2.83.17,4.34.18,8.7,0,13-.1,2.49.64,3.31,3.21,3.32C308.6,537.48,308.6,537.57,308.6,528Z"
          transform="translate(-115.68 -235.62)"/>
    <path d="M426.23,294.69c4.26.19,8.32-1.48,12-4.24,4.07-3.05,8.21-6,12.18-9.18,1.64-1.32,2.48-1.1,3.67.54,4,5.49,8,10.95,12.22,16.25,1.53,1.92.92,2.71-.74,3.89-3.95,2.81-7.79,5.76-11.64,8.7-7.28,5.57-10.12,13-8,21s8.45,13.18,17.66,14.42c4.79.64,9.57,1.44,14.37,2,1.67.21,2.27.67,2,2.49-1.06,6.69-2,13.4-2.89,20.12-.28,2.06-.74,3.15-3.38,2.62-5.09-1-10.27-1.66-15.44-2.25-8.05-.9-14.65,1.89-19,8.78-4.22,6.73-4.21,13.84.18,20.54,3.18,4.84,6.77,9.44,10.35,14,1.31,1.67,1.08,2.48-.54,3.66-5.49,4-10.94,8-16.25,12.24-1.91,1.51-2.71.95-3.9-.73-2.8-4-5.75-7.8-8.69-11.65-5.56-7.29-13.05-10.13-21-8-8.08,2.16-13.21,8.48-14.42,17.65-.63,4.8-1.44,9.57-2,14.38-.21,1.65-.65,2.26-2.49,2Q370.26,442.29,360,441c-2.16-.28-2.76-1-2.35-3.25.94-5.11,1.6-10.28,2.23-15.45,1-8.06-1.79-14.65-8.65-19s-13.81-4.32-20.52.07c-5,3.24-9.66,6.88-14.34,10.52-1.66,1.3-2.37.73-3.38-.65-4.09-5.56-8.19-11.11-12.43-16.55-1.24-1.6-.89-2.35.58-3.41,4.12-3,8.18-6,12.21-9.14,7.19-5.56,10-13.16,7.66-21.07-2.55-8.45-8.59-12.84-17.16-14-4.8-.67-9.57-1.49-14.38-2-2-.22-2.69-.69-2.33-2.88q1.61-9.66,2.74-19.41c.33-2.8,1.34-3.31,4.16-3,6.93.86,13.78,3.17,20.86,2A18.81,18.81,0,0,0,328,295.25a173.19,173.19,0,0,0-10.7-14.66c-1.26-1.63-1.16-2.46.51-3.67,5.49-4,10.95-8,16.25-12.22,1.93-1.53,2.73-.92,3.91.74,2.88,4,5.89,8,8.91,11.93,5.29,6.89,12.16,9.81,20.74,7.72,7.93-1.94,13.18-8.41,14.38-17.27.65-4.8,1.47-9.57,2-14.38.23-1.95.7-2.69,2.89-2.33,6.44,1.07,12.92,1.93,19.4,2.78,2.35.31,3.64.76,3,3.79-1.09,5.07-1.63,10.27-2.27,15.43C405.65,284.62,414.24,294.48,426.23,294.69Zm-42.7,14.43c-20.85,0-38.44,17.62-38.38,38.44s17.79,38.46,38.54,38.29,38.13-17.57,38.2-38.28S404.37,309.12,383.53,309.12Z"
          transform="translate(-115.68 -235.62)"/>
    <path d="M181.77,402.91c1.7,6.21,3.22,12.39,4.86,18.54.58,2.19-1.64,1.74-2.68,2-10.18,2.26-18.34,7.61-23.91,16.36-8.15,12.79-8.9,26.3-1.52,39.56,7,12.68,18.18,19.5,32.92,19.51,14.31,0,25.31-6.23,33-18.28.58-.9.94-2.63,2.59-1.23,4.72,4,10.25,6.89,14.76,11.15.7.66,1.35,1.38,2,2.11,6.5,7.46,6.47,9.35-.36,16.14-2.48,2.47-4.8,6.35-7.66,6.83s-5.75-3.39-8.69-5.25c-1.84-1.16-3.56-2.54-5.46-3.6a12.47,12.47,0,0,0-18.38,7.37,136.37,136.37,0,0,0-3.11,14.16c-.41,2.25-1.41,3-3.62,2.86a92.89,92.89,0,0,0-9.44,0c-2.09.1-3-.63-3.4-2.72-.79-4.4-1.68-8.79-2.78-13.12-2.37-9.4-11.7-13.11-19.87-7.9-3.67,2.34-7.29,4.79-10.74,7.43-1.89,1.44-3,1.13-4.48-.49a85.86,85.86,0,0,0-7.47-7.43c-1.93-1.67-1.74-2.91-.33-4.77,2.49-3.27,4.81-6.68,7.06-10.13,5.51-8.44,1.75-17.91-8-20.27-4.35-1-8.73-2-13.12-2.8-1.62-.3-2.37-1-2.22-2.65a5.93,5.93,0,0,0,0-.73c.09-4-1.2-8.88.66-11.69s7.3-2.1,11.12-3.1c1.51-.4,3.09-.61,4.59-1,8.51-2.46,12.18-11.5,7.6-19.1-2.43-4-5.19-7.89-8-11.68-1.19-1.62-1.06-2.58.37-3.9,2.76-2.54,5.45-5.18,8-7.95,1.47-1.63,2.59-1.58,4.26-.33,3.1,2.31,6.34,4.44,9.54,6.61,9.4,6.37,18.66,2.87,21.42-8.08C181.42,404.49,181.59,403.7,181.77,402.91Z"
          transform="translate(-115.68 -235.62)"/>
    <path d="M302.34,588.59c7.5,0,15,.07,22.51-.05,2.23,0,2.83.67,2.87,2.88.22,11.37-4.45,16.27-15.76,16.28-7.26,0-14.52,0-21.78,0-9.7-.07-14.75-7.18-13.5-17.74.23-1.94,1.74-1.33,2.8-1.34C287.1,588.56,294.72,588.59,302.34,588.59Z"
          transform="translate(-115.68 -235.62)"/>
    <path d="M170.17,312.24c-.53-.36-1.14-.75-1.73-1.17-13.39-9.57-26.76-19.17-40.21-28.67-1.8-1.27-2.2-2.17-.67-3.92,2.13-2.44,3.23-6.78,6-7.35,2.55-.52,5.16,3,7.71,4.84,11.45,8.11,22.82,16.35,34.32,24.41,2,1.42,2.49,2.45.8,4.43s-3,4.12-4.48,6.17C171.48,311.53,171.17,312.29,170.17,312.24Z"
          transform="translate(-115.68 -235.62)"/>
    <path d="M164.89,333.6c1.21-.29,1.85.2,2,1.4a5.55,5.55,0,0,0,.13.71c2.84,9.77,2.85,9.79-6.83,12.23-12.89,3.25-25.81,6.42-38.69,9.74-2.35.6-3.55.18-3.87-2.33-.4-3.09-3-6.55-1.58-9,1.29-2.25,5.45-1.89,8.36-2.63,12.77-3.25,25.56-6.43,38.34-9.64Z"
          transform="translate(-115.68 -235.62)"/>
    <path d="M302.13,575.75c-7.51,0-15-.1-22.53,0-2.43.05-3-.75-3-3.07-.05-9.77-.12-9.77,9.76-9.77,12.48,0,24.95.07,37.43-.06,2.83,0,4,.46,4,3.7-.18,9.14,0,9.15-9.27,9.15Z"
          transform="translate(-115.68 -235.62)"/>
    <path d="M421.64,507.44c.54.41,1.22.89,1.86,1.42,11.34,9.45,22.66,18.93,34.05,28.32,1.52,1.26,1.95,2.13.44,3.71-2.26,2.35-4,6.39-6.53,6.94s-5.12-3.39-7.61-5.42c-9.53-7.84-19-15.83-28.49-23.66-1.73-1.42-2.29-2.41-.5-4.2s3.27-3.89,4.92-5.82C420.23,508.21,420.56,507.46,421.64,507.44Z"
          transform="translate(-115.68 -235.62)"/>
    <path d="M445.53,486.33c-6.42,0-12.83-.09-19.24.06-2.27.05-3-.65-2.82-2.87a47.42,47.42,0,0,0,0-7.25c-.18-2.36.86-2.82,3-2.8q19.41.11,38.83,0c2.41,0,3.06.8,3.09,3.13.15,9.75.22,9.74-9.4,9.74Z"
          transform="translate(-115.68 -235.62)"/>
    <path d="M385.14,547.07c0-6.41.07-12.83,0-19.25,0-2.25.49-3.14,3-3.18,9.93-.13,9.93-.23,9.93,9.59,0,10.54-.08,21.07.05,31.6,0,2.56-.43,3.57-3.31,3.55-9.62-.07-9.62.06-9.62-9.6Z"
          transform="translate(-115.68 -235.62)"/>
    <path d="M394.33,452.34c1.33-9,2.4-17.11,3.77-25.15a6,6,0,0,1,6.84-5.1c3.6.37,4.82,2.43,3.45,5.79a109.67,109.67,0,0,1-11.72,21.55C396.14,450.19,395.51,450.88,394.33,452.34Z"
          transform="translate(-115.68 -235.62)"/>
</svg>