<svg id="e24d82e9-77e3-4c48-9565-d1c1fb9358bd" data-name="Ebene 1" xmlns="http://www.w3.org/2000/svg"
     viewBox="0 0 389.941 422.308">
    <defs>
        <style>
            .a1ac3f62-c324-4e39-a96b-827eee10cfcc{fill:#ff7800;}.ad05f4a4-29f7-4bad-a903-9be684723590{font-size:360px;font-family:Nunito-SemiBold,
            Nunito;font-weight:600;}
        </style>
    </defs>
    <title>question</title>
    <circle class="a1ac3f62-c324-4e39-a96b-827eee10cfcc" cx="194.974" cy="194.844" r="182.967"/>
    <path d="M421.4,249.835a167.222,167.222,0,0,1-8.482,53.372,170.121,170.121,0,0,1-23.648,46.506A160.5,160.5,0,0,1,373.61,368.4a189.372,189.372,0,0,1-19.079,17.178,175.585,175.585,0,0,1-45.048,24.794,172.527,172.527,0,0,1-191.39-52.2A184.521,184.521,0,0,1,92.52,315.719a174.71,174.71,0,0,1-12.533-51.914A171.262,171.262,0,0,1,180.115,93.882C211.6,79.4,250.166,75.164,284.279,82.191a171.407,171.407,0,0,1,135.259,141.83,184.848,184.848,0,0,1,1.858,25.814c.058,15.44,24.058,15.471,24,0-.152-40.255-12.55-80.345-36.17-113.055A198.326,198.326,0,0,0,316.49,66.385C240.708,38.657,152.011,62.8,100.705,125.029A197.2,197.2,0,0,0,55.987,235.866,194.881,194.881,0,0,0,83.653,350.872c20.11,33.047,50.241,60.257,85.553,76.189a198.183,198.183,0,0,0,120.122,13.83c78.212-15.474,141.626-81.28,153.563-160.213a211.292,211.292,0,0,0,2.5-30.843C445.454,234.39,421.454,234.369,421.4,249.835Z"
          transform="translate(-55.454 -54.991)"/>
    <text class="ad05f4a4-29f7-4bad-a903-9be684723590" transform="translate(116.403 322.59)">?</text>
</svg>