<svg xmlns="http://www.w3.org/2000/svg" viewBox="0 0 408.87 408.88">
    <g id="a7923d0d-a9c2-4dd0-a208-556d601d99a9" data-name="Ebene 2">
        <g id="bd45aff3-ea2d-4dc1-8138-1cf1c325b772" data-name="Ebene 1">
            <path d="M216.38,408.88h-24a21.92,21.92,0,0,0-3.08-.65c-28.66-1.94-55.81-9.49-80.92-23.35Q22,337.19,3.13,240.07C1.61,232.25,1.36,224.29,0,216.46v-24a27.67,27.67,0,0,0,.68-3.45c2-28.53,9.36-55.65,23.34-80.54C61.66,41.53,119.12,5.19,195.84.39a184.63,184.63,0,0,1,94.83,18.92c72.85,36.23,112.46,95.35,117.79,176.55,2.43,37.15-5.9,72.6-24,105.19q-47.74,86.1-144.84,104.76C231.94,407.28,224.08,407.48,216.38,408.88ZM376.86,204.67C377,109.63,300,32.36,204.79,32S32.11,109,31.94,204.29c-.16,95,76.85,172.31,172.07,172.65S376.7,300,376.86,204.67Z"/>
            <path d="M204.29,102.74c30.85-.13,58.08,22.68,63,52.81,5.15,31.42-12.67,61.52-42.51,71.34-3.56,1.18-4.72,2.65-4.54,6.34.34,6.77.16,13.56.08,20.35-.11,9.76-6.9,16.74-16.07,16.67s-15.74-7-15.82-16.51q-.15-19.35,0-38.71c.08-9.11,5.62-15.5,14.71-16.27,10.54-.89,19.83-4,26.36-12.77,7.75-10.4,9.11-21.78,3.36-33.4-6-12.05-16.16-18.22-29.67-17.71-16.34.62-28.32,12.05-30.44,28.31-.19,1.45-.24,2.91-.38,4.37-.83,8.95-7.88,15.23-16.64,14.83a15.62,15.62,0,0,1-15.17-16.3c.58-22.77,10.46-40.61,29.4-53.21A60.75,60.75,0,0,1,204.29,102.74Z"/>
            <path d="M204.94,282.45a19.85,19.85,0,1,1-20.45,19.1A19.91,19.91,0,0,1,204.94,282.45Z"/>
        </g>
    </g>
</svg>