<svg id="egVCyERDfoe1" xmlns="http://www.w3.org/2000/svg" xmlns:xlink="http://www.w3.org/1999/xlink" viewBox="0 0 280.155000 310.936000" shape-rendering="geometricPrecision" text-rendering="geometricPrecision"><style><![CDATA[#egVCyERDfoe5_tr {animation: egVCyERDfoe5_tr__tr 3000ms linear infinite normal forwards}@keyframes egVCyERDfoe5_tr__tr { 0% {transform: translate(197.630310px,228.270370px) rotate(0deg)} 100% {transform: translate(197.630310px,228.270370px) rotate(-360deg)}} #egVCyERDfoe16_tr {animation: egVCyERDfoe16_tr__tr 3000ms linear infinite normal forwards}@keyframes egVCyERDfoe16_tr__tr { 0% {transform: translate(197.077000px,228.211563px) rotate(0deg)} 100% {transform: translate(197.077000px,228.211563px) rotate(360deg)}} #egVCyERDfoe17_tr {animation: egVCyERDfoe17_tr__tr 3000ms linear infinite normal forwards}@keyframes egVCyERDfoe17_tr__tr { 0% {transform: translate(197.630099px,228.353101px) rotate(0deg)} 100% {transform: translate(197.630099px,228.353101px) rotate(360deg)}}]]></style><g id="egVCyERDfoe2"><path id="egVCyERDfoe3" d="M299.400000,236.679000C291.424000,228,280.138000,219.540000,268.256000,217.421000C267.605000,217.305000,266.809000,216.892000,266.802000,217.001000C266.902000,215.447000,269.155000,220.612000,268.354000,219.280000C268.697000,219.850000,268.386000,219.786000,268.160000,220.122000C268.460000,219.668000,268.660000,219.147000,268.999000,218.709000C270.990542,216.398348,273.105633,214.197132,275.335000,212.115000C289.952000,197.949000,301.311000,182.325000,298.566000,160.864000C295.288000,135.224000,276.751000,113.094000,252.300000,104.923000C230.669716,97.770154,206.889942,102.028499,189.086000,116.243000C168.936000,132.609000,159.937000,160.314000,167.786000,185.188000C170.310810,192.867749,174.071532,200.084186,178.920000,206.553000C182.253217,211.347671,186.029835,215.818343,190.200000,219.906000C190.678142,220.446834,191.241180,220.906181,191.867000,221.266000C193.403000,221.715000,191.399000,222.412000,192.402000,220.512000C194.493000,216.549000,191.777000,219.377000,189.621000,220.363000C183.233000,223.284000,176.645000,225.012000,170.942000,229.314000C161.011000,236.804000,153.709000,247.594000,147.069000,257.954000C136.574000,274.331000,127.569000,292.787000,124.426000,312.163000C122.444000,324.387000,123.572000,335.669000,131.102000,345.949000C136.886414,353.913736,144.744412,360.139536,153.821000,363.949000C163.921000,368.062000,175.331000,369.100000,186.135000,369.523000C202.283000,370.155000,218.424000,368.659000,234.390000,366.332000C242.003000,365.222000,238.766000,353.658000,231.200000,354.761000C209,357.997000,183.594000,360.615000,161.700000,354.041000C154.474370,351.746474,148.021936,347.502754,143.053000,341.777000C136.495000,334.397000,134.464000,325.928000,135.843000,316.338000C138.283000,299.375000,145.713000,283.287000,154.487000,268.738000C160.576000,258.647000,167.300000,247.938000,176.379000,240.238000C181.527000,235.873000,187.749000,234.162000,193.828000,231.538000C196.645000,230.321000,200.019000,229.038000,202.128000,226.706000C205.371000,223.125000,204.875000,217.821000,201.912000,214.275000C201.013141,213.286878,200.015622,212.393232,198.935000,211.608000C197.345000,210.330000,198.713000,211.453000,198.974000,211.708000C197.660000,210.440000,196.474000,209.027000,195.249000,207.671000C190.886632,202.892491,187.050284,197.659126,183.806000,192.061000C173.841000,174.641000,175.023000,153.643000,186.150000,137.035000C197.916000,119.471000,219.878000,110.476000,240.613000,114.305000C264.244000,118.669000,283.733000,138.245000,286.755000,162.353000C288.125000,173.285000,284.923000,183.095000,278.170000,191.684000C273.076000,198.163000,266.514000,203.208000,261.156000,209.421000C256.815000,214.456000,253.320000,222.921000,260.745000,227.364000C265.577000,230.256000,271.640000,230.804000,276.658000,233.610000C281.997863,236.674196,286.811395,240.575462,290.915000,245.165000C296.152000,250.865000,304.621000,242.365000,299.400000,236.680000Z" transform="matrix(1 0 0 1 -123.56500000000000 -101.51900000000001)" fill="rgb(255,120,0)" stroke="none" stroke-width="1"/></g><g id="egVCyERDfoe4"><g id="egVCyERDfoe5_tr" transform="translate(197.630310,228.270370) rotate(0)"><g id="egVCyERDfoe5" transform="translate(-197.630310,-228.270370)"><path id="egVCyERDfoe6" d="M269.224000,373.618000C267.015984,373.613200,264.842730,374.167781,262.907000,375.230000C243.917995,350.826529,242.120011,317.184002,258.399850,290.895629C274.679690,264.607257,305.598713,251.225689,335.907000,257.351000C337.602514,257.693693,339.254807,256.597014,339.597500,254.901500C339.940193,253.205986,338.843514,251.553693,337.148000,251.211000C331.894194,250.153390,326.548199,249.621102,321.189000,249.622000C290.463218,249.622060,262.440393,267.183293,249.042796,294.834298C235.645198,322.485302,239.229979,355.361205,258.272000,379.475000C254.923698,384.495213,255.419380,391.149529,259.474516,395.618257C263.529652,400.086985,270.104718,401.224579,275.425515,398.378040C280.746312,395.531502,283.448867,389.430533,281.981866,383.577194C280.514866,377.723856,275.254373,373.618636,269.220000,373.618000ZM274.095000,391.642000C271.770718,393.964802,268.129323,394.322350,265.397635,392.495993C262.665948,390.669635,261.604730,387.168005,262.862949,384.132451C264.121167,381.096898,267.348413,379.372809,270.571131,380.014517C273.793849,380.656224,276.114526,383.485015,276.114000,386.771000C276.120125,388.598478,275.394911,390.352459,274.100000,391.642000Z" transform="matrix(1 0 0 1 -123.56500000000000 -101.51900000000001)" fill="rgb(255,120,0)" stroke="none" stroke-width="1"/><path id="egVCyERDfoe7" d="M269.224000,371.118000C266.593197,371.261014,264.017010,371.925201,261.645000,373.072000L265.066000,373.972000C248.019000,351.590000,244.805000,321.011000,258.266000,296.072000C269.722123,274.916232,290.984677,260.877258,314.940000,258.652000C318.256085,258.372053,321.587167,258.313924,324.911000,258.478000C328.738000,258.669000,332.754000,260.007000,336.538000,259.852000C338.501477,259.831660,340.311689,258.787113,341.311853,257.097341C342.312018,255.407570,342.356818,253.318088,341.430000,251.587000C338.958000,247.087000,330.102000,247.496000,325.669000,247.251000C291.617774,245.371490,259.912968,264.614622,245.863000,295.689000C233.152000,323.979000,237.647000,356.841000,256.513000,381.244000L256.122000,378.214000C248.209000,391.692000,262.500000,408.367000,276.835000,400.435000C291.105000,392.535000,284.535000,371.971000,269.229000,371.119000C266.014000,370.940000,266.029000,375.941000,269.229000,376.119000C279.941000,376.719000,284.147000,391.175000,273.935000,396.271000C263.956000,401.251000,255.158000,389.733000,260.435000,380.738000C260.974388,379.749862,260.816566,378.526839,260.044000,377.708000C242.818000,355.426000,238.608000,324.858000,249.856000,298.924000C263.200769,268.077064,294.875596,249.316497,328.340000,252.439000C330.148000,252.600000,333.183000,252.362000,334.740000,253.291000L336.485000,253.623000C335.904500,254.474810,334.815292,254.816920,333.852000,254.450000C330.430000,254.683000,326.528000,253.496000,323.052000,253.409000C312.222323,253.148231,301.461390,255.198079,291.486000,259.422000C273.197592,267.227428,258.630428,281.794592,250.825000,300.083000C240.114000,325.331000,244.182000,354.740000,260.750000,376.493000C261.479086,377.642043,262.970856,378.034499,264.171000,377.393000C265.723839,376.554919,267.461440,376.118027,269.226000,376.122000C272.420000,375.918000,272.443000,370.917000,269.224000,371.118000Z" transform="matrix(1 0 0 1 -123.56500000000000 -101.51900000000001)" fill="rgb(255,120,0)" stroke="none" stroke-width="1"/><path id="egVCyERDfoe8" d="M272.327000,389.874000C268.135000,393.627000,262.089000,387.697000,266.121000,383.666000C270.153000,379.635000,276.078000,385.681000,272.327000,389.874000C270.188000,392.266000,273.712000,395.814000,275.863000,393.410000C279.263000,389.610000,279.619000,383.885000,275.863000,380.131000C272.255248,376.506853,266.409692,376.439411,262.719285,379.979355C259.028878,383.519300,258.853079,389.362602,262.324000,393.118000C266.030000,397.133000,271.944000,396.918000,275.863000,393.410000C278.265000,391.259000,274.720000,387.733000,272.327000,389.874000Z" transform="matrix(1 0 0 1 -123.56500000000000 -101.51900000000001)" fill="rgb(255,120,0)" stroke="none" stroke-width="1"/><path id="egVCyERDfoe9" d="M384.108000,280.100000C387.783747,274.570740,386.753294,267.167619,381.707269,262.852358C376.661245,258.537097,369.187898,258.667934,364.296016,263.157179C359.404133,267.646425,358.633446,275.081078,362.500485,280.478286C366.367523,285.875494,373.655128,287.536472,379.479000,284.348000C398.454285,308.731733,400.267488,342.343198,384.025498,368.626760C367.783509,394.910322,336.911195,408.323696,306.615000,402.260000C305.513303,402.029365,304.372571,402.407634,303.626963,403.250841C302.881355,404.094048,302.645549,405.272501,303.009293,406.337686C303.373036,407.402871,304.280383,408.190957,305.386000,408.402000C310.590995,409.439656,315.885581,409.961846,321.193000,409.961000C351.921039,409.961804,379.946071,392.399021,393.343639,364.745494C406.741208,337.091968,403.153865,304.213635,384.108000,280.100000ZM368.291000,277.680000C365.965592,275.355859,365.605915,271.712660,367.431954,268.978664C369.257994,266.244668,372.761105,265.181432,375.798709,266.439253C378.836314,267.697074,380.562283,270.925586,379.920978,274.150161C379.279672,277.374736,376.449728,279.697165,373.162000,279.697000C371.334667,279.703390,369.580706,278.978545,368.291000,277.684000Z" transform="matrix(1 0 0 1 -123.56500000000000 -101.51900000000001)" fill="rgb(255,120,0)" stroke="none" stroke-width="1"/><path id="egVCyERDfoe10" d="M386.266000,281.366000C390.145000,274.807000,389.448000,266.513000,383.674000,261.246000C377.901379,256.000101,369.146355,255.808109,363.149316,260.795907C357.152278,265.783706,355.745772,274.427145,359.852000,281.059000C364.352000,288.382000,373.321000,290.001000,380.741000,286.511000L377.320000,285.611000C394.366000,307.994000,397.581000,338.571000,384.125000,363.511000C372.668877,384.666768,351.406323,398.705742,327.451000,400.931000C324.146888,401.209771,320.827880,401.268233,317.516000,401.106000C313.724000,400.919000,309.742000,399.606000,305.993000,399.760000C304.029397,399.781962,302.219993,400.828331,301.221567,402.519297C300.223140,404.210263,300.180833,406.300009,301.110000,408.030000C303.576000,412.510000,312.350000,412.092000,316.765000,412.330000C350.801623,414.191818,382.485066,394.950491,396.528000,363.890000C409.239000,335.598000,404.743000,302.735000,385.876000,278.331000C383.910000,275.789000,380.395000,279.351000,382.340000,281.867000C399.568000,304.150000,403.780000,334.719000,392.530000,360.655000C379.195978,391.478997,347.556870,410.237318,314.115000,407.146000C312.330000,406.988000,309.315000,407.230000,307.779000,406.312000L306.050000,405.986000C306.611725,405.129969,307.693861,404.780772,308.650000,405.147000C312.032000,404.902000,315.916000,406.085000,319.357000,406.170000C330.180757,406.428439,340.935403,404.378280,350.905000,400.156000C369.193341,392.350985,383.760535,377.784149,391.566000,359.496000C402.277000,334.248000,398.208000,304.840000,381.641000,283.086000C380.911914,281.936957,379.420144,281.544501,378.220000,282.186000C366.320000,287.786000,356.120000,271.063000,367.442000,263.812000C377.335000,257.476000,387.518000,269.422000,381.952000,278.834000C380.307000,281.618000,384.628000,284.136000,386.266000,281.366000Z" transform="matrix(1 0 0 1 -123.56500000000000 -101.51900000000001)" fill="rgb(255,120,0)" stroke="none" stroke-width="1"/><path id="egVCyERDfoe11" d="M370.058000,275.916000C366.307000,271.723000,372.242000,265.668000,376.266000,269.709000C380.290000,273.750000,374.252000,279.668000,370.058000,275.916000C367.666000,273.777000,364.119000,277.301000,366.523000,279.452000C370.323000,282.852000,376.047000,283.205000,379.802000,279.452000C383.416534,275.842176,383.479171,270.004118,379.942919,266.317574C376.406668,262.631029,370.571058,262.450757,366.814000,265.912000C362.799000,269.619000,363.014000,275.532000,366.523000,279.452000C368.673000,281.855000,372.200000,278.309000,370.058000,275.916000Z" transform="matrix(1 0 0 1 -123.56500000000000 -101.51900000000001)" fill="rgb(255,120,0)" stroke="none" stroke-width="1"/><path id="egVCyERDfoe12" d="M350.028000,261.466000C351.523436,261.467502,352.811600,260.412235,353.104461,258.945755C353.397323,257.479275,352.613285,256.010181,351.231979,255.437186C349.850672,254.864190,348.256966,255.346944,347.425802,256.590125C346.594639,257.833306,346.757602,259.490531,347.815000,260.548000C348.402961,261.133536,349.198215,261.463424,350.028000,261.466000Z" transform="matrix(1 0 0 1 -123.56500000000000 -101.51900000000001)" fill="rgb(255,120,0)" stroke="none" stroke-width="1"/><path id="egVCyERDfoe13" d="M350.028000,263.966000C353.117874,263.971604,355.635734,261.487501,355.671834,258.397833C355.707934,255.308165,353.248802,252.765910,350.159641,252.699318C347.070480,252.632726,344.504078,255.066647,344.407000,258.155000C344.370618,261.305485,346.878046,263.897669,350.028000,263.966000C353.243000,264.151000,353.228000,259.150000,350.028000,258.966000C349.687914,258.952485,349.419174,258.672855,349.419174,258.332500C349.419174,257.992145,349.687914,257.712515,350.028000,257.699000C350.368086,257.712515,350.636826,257.992145,350.636826,258.332500C350.636826,258.672855,350.368086,258.952485,350.028000,258.966000C346.830000,259.150000,346.808000,264.151000,350.028000,263.966000Z" transform="matrix(1 0 0 1 -123.56500000000000 -101.51900000000001)" fill="rgb(255,120,0)" stroke="none" stroke-width="1"/><path id="egVCyERDfoe14" d="M292.500000,398.173000C291.005212,398.172174,289.718034,399.227448,289.425747,400.693381C289.133460,402.159314,289.917484,403.627557,291.298282,404.200084C292.679081,404.772610,294.272021,404.289937,295.102807,403.047284C295.933592,401.804631,295.770800,400.148149,294.714000,399.091000C294.125426,398.505772,293.330002,398.175961,292.500000,398.173000Z" transform="matrix(1 0 0 1 -123.56500000000000 -101.51900000000001)" fill="rgb(255,120,0)" stroke="none" stroke-width="1"/><path id="egVCyERDfoe15" d="M292.500000,395.673000C289.411221,395.668459,286.895107,398.152546,286.860082,401.241130C286.825057,404.329714,289.284191,406.870222,292.372279,406.935727C295.460367,407.001233,298.025021,404.567291,298.121000,401.480000C298.156262,398.330633,295.648847,395.740246,292.500000,395.673000C289.285000,395.488000,289.300000,400.488000,292.500000,400.673000C292.838997,400.686493,293.106865,400.965234,293.106865,401.304500C293.106865,401.643766,292.838997,401.922507,292.500000,401.936000C292.161003,401.922507,291.893135,401.643766,291.893135,401.304500C291.893135,400.965234,292.161003,400.686493,292.500000,400.673000C295.693000,400.489000,295.715000,395.487000,292.500000,395.673000Z" transform="matrix(1 0 0 1 -123.56500000000000 -101.51900000000001)" fill="rgb(255,120,0)" stroke="none" stroke-width="1"/></g></g><g id="egVCyERDfoe16_tr" transform="translate(197.077000,228.211563) rotate(0)"><path id="egVCyERDfoe16" d="M308.270000,383.655000C308.270000,384.485658,308.599978,385.282294,309.187342,385.869658C309.774705,386.457022,310.571342,386.787000,311.402000,386.787000L330.983000,386.787000C331.813566,386.787000,332.610100,386.456991,333.197305,385.869598C333.784510,385.282205,334.114265,384.485566,334.114000,383.655000L334.114000,377.584000C338.226972,376.477853,342.178246,374.840397,345.868000,372.713000L350.154000,377C350.741131,377.588064,351.538012,377.918513,352.369000,377.918513C353.199988,377.918513,353.996869,377.588064,354.584000,377L368.424000,363.150000C369.646244,361.927029,369.646244,359.944971,368.424000,358.722000L364.142000,354.440000C366.269123,350.750345,367.906884,346.799482,369.014000,342.687000L375.062000,342.687000C375.892566,342.687000,376.689100,342.356991,377.276305,341.769598C377.863510,341.182205,378.193265,340.385566,378.193000,339.555000L378.193000,319.972000C378.193265,319.141434,377.863510,318.344795,377.276305,317.757402C376.689100,317.170009,375.892566,316.840000,375.062000,316.840000L369.012000,316.840000C367.905650,312.727888,366.268554,308.777343,364.142000,305.088000L368.401000,300.830000C369.624140,299.606228,369.624140,297.622772,368.401000,296.399000L354.549000,282.559000C353.326029,281.336756,351.343971,281.336756,350.121000,282.559000L345.869000,286.813000C342.179076,284.685705,338.227860,283.047937,334.115000,281.941000L334.115000,275.927000C334.115265,275.096434,333.785510,274.299795,333.198305,273.712402C332.611100,273.125009,331.814566,272.795000,330.984000,272.795000L311.400000,272.795000C310.569342,272.795000,309.772705,273.124978,309.185342,273.712342C308.597978,274.299705,308.268000,275.096342,308.268000,275.927000L308.268000,281.943000C304.155693,283.048779,300.205076,284.685905,296.516000,286.813000L292.263000,282.559000C291.039458,281.337192,289.057542,281.337192,287.834000,282.559000L273.986000,296.400000C273.398488,296.987221,273.068403,297.783838,273.068403,298.614500C273.068403,299.445162,273.398488,300.241779,273.986000,300.829000L278.244000,305.087000C276.117375,308.776427,274.479957,312.726938,273.373000,316.839000L267.336000,316.839000C265.606796,316.839000,264.205000,318.240796,264.205000,319.970000L264.194000,339.551000C264.193469,340.381739,264.523107,341.178635,265.110341,341.766244C265.697575,342.353853,266.494261,342.684000,267.325000,342.684000L273.373000,342.684000C274.479767,346.796444,276.117193,350.747309,278.244000,354.437000L273.963000,358.719000C272.740756,359.941971,272.740756,361.924029,273.963000,363.147000L287.800000,377C288.387056,377.587625,289.183376,377.918166,290.014000,377.919000L290.014000,377.919000C290.844805,377.918587,291.641474,377.588410,292.229000,377.001000L296.514000,372.715000C300.203656,374.841878,304.154531,376.479308,308.267000,377.586000ZM297.745000,366.127000C296.505063,365.325600,294.873841,365.498930,293.830000,366.543000L290.017000,370.356000L280.604000,360.935000L284.414000,357.124000C285.457386,356.080641,285.630700,354.450408,284.830000,353.211000C282.000253,348.840579,279.990751,343.991003,278.900000,338.900000C278.589126,337.457408,277.313708,336.427326,275.838000,336.427000L270.459000,336.427000L270.466000,323.109000L275.838000,323.109000C277.314146,323.108953,278.589877,322.078201,278.900000,320.635000C279.990969,315.542491,282.001163,310.691524,284.832000,306.320000C285.632700,305.080592,285.459386,303.450359,284.416000,302.407000L280.631000,298.621000L290.051000,289.208000L293.832000,292.990000C294.876189,294.033341,296.506876,294.206615,297.747000,293.406000C302.118566,290.575243,306.969518,288.565054,312.062000,287.474000C313.504804,287.163470,314.535054,285.887843,314.535000,284.412000L314.535000,279.064000L327.853000,279.064000L327.853000,284.411000C327.852285,285.887415,328.883375,287.163566,330.327000,287.473000C335.418255,288.563366,340.268381,290.571799,344.640000,293.400000C345.879221,294.201486,347.509990,294.028116,348.553000,292.984000L352.335000,289.203000L361.756000,298.616000L357.971000,302.401000C356.926725,303.444339,356.753360,305.075468,357.555000,306.315000C360.385023,310.686952,362.395154,315.537764,363.487000,320.630000C363.796434,322.073625,365.072585,323.104715,366.549000,323.104000L371.930000,323.104000L371.930000,336.422000L366.549000,336.422000C365.073157,336.421946,363.797530,337.452196,363.487000,338.895000C362.395774,343.987429,360.385598,348.838350,357.555000,353.210000C356.754146,354.449719,356.927454,356.080313,357.971000,357.124000L361.780000,360.934000L352.367000,370.354000L348.554000,366.543000C347.510836,365.498360,345.879438,365.324967,344.640000,366.127000C340.267997,368.956711,335.417181,370.966504,330.325000,372.058000C328.881799,372.368123,327.851047,373.643854,327.851000,375.120000L327.851000,380.520000L314.533000,380.520000L314.533000,375.120000C314.532294,373.644426,313.502381,372.369217,312.060000,372.058000C306.967685,370.966932,302.116794,368.957108,297.745000,366.127000Z" transform="translate(-321.193500,-329.791000)" fill="rgb(255,120,0)" stroke="none" stroke-width="1"/></g><g id="egVCyERDfoe17_tr" transform="translate(197.630099,228.353101) rotate(0)"><path id="egVCyERDfoe17" d="M305.859000,384.320000C307.412000,392.006000,320.751000,389.287000,326.330000,389.287000C329.159000,389.287000,332.749000,389.853000,334.965000,387.637000C337.429000,385.173000,336.614000,380.705000,336.614000,377.584000L334.779000,380C339.075272,378.760990,343.218371,377.042162,347.130000,374.876000L344.100000,374.486000C346.835000,377.221000,350.065000,381.832000,354.531000,379.968000C357.897000,378.562000,360.786000,374.333000,363.272000,371.846000C365.732000,369.384000,369.740000,366.627000,371.272000,363.379000C373.422000,358.815000,368.723000,355.486000,365.912000,352.679000L366.303000,355.709000C368.468595,351.797221,370.187076,347.654148,371.426000,343.358000L369.016000,345.194000C372.864000,345.194000,378.372000,346.163000,380.234000,341.744000C381.653000,338.376000,380.695000,333.290000,380.695000,329.772000C380.695000,326.292000,381.595000,321.472000,380.360000,318.097000C378.640000,313.382000,372.974000,314.349000,369.014000,314.349000L371.425000,316.185000C370.186276,311.889255,368.468135,307.746528,366.303000,303.835000L365.912000,306.865000C368.644000,304.133000,373.226000,300.918000,371.365000,296.465000C369.965000,293.099000,365.732000,290.211000,363.244000,287.724000C360.782000,285.264000,358.024000,281.256000,354.777000,279.724000C350.223000,277.578000,346.907000,282.251000,344.102000,285.057000L347.132000,284.666000C343.220139,282.500573,339.077086,280.782100,334.781000,279.543000L336.616000,281.953000C336.616000,278.111000,337.578000,272.627000,333.167000,270.768000C329.799000,269.349000,324.713000,270.307000,321.194000,270.307000C317.715000,270.307000,312.894000,269.407000,309.521000,270.642000C304.814000,272.359000,305.772000,278.001000,305.772000,281.955000L307.608000,279.544000C303.312053,280.782147,299.169263,282.500314,295.258000,284.666000L298.288000,285.057000C295.563000,282.332000,292.357000,277.763000,287.911000,279.598000C284.536000,280.991000,281.634000,285.236000,279.146000,287.723000C276.685000,290.182000,272.692000,292.923000,271.146000,296.166000C268.973000,300.728000,273.664000,304.057000,276.474000,306.866000L276.083000,303.836000C273.917168,307.747315,272.198674,311.890083,270.960000,316.186000L273.370000,314.350000C269.524000,314.350000,264.024000,313.384000,262.163000,317.799000C260.744000,321.167000,261.698000,326.253000,261.696000,329.771000C261.696000,333.250000,260.801000,338.048000,262.017000,341.426000C263.724000,346.163000,269.406000,345.195000,273.370000,345.195000L270.960000,343.359000C272.198483,347.655303,273.916984,351.798423,276.083000,355.710000L276.474000,352.680000C273.745000,355.409000,269.148000,358.631000,270.987000,363.080000C272.433000,366.580000,276.881000,369.613000,279.458000,372.191000C281.841000,374.576000,284.804000,378.922000,288.151000,380.091000C292.504000,381.614000,295.623000,377.144000,298.283000,374.484000L295.253000,374.874000C299.165496,377.040326,303.309200,378.759797,307.606000,380L305.770000,377.589000L305.770000,383.660000C305.770000,386.877000,310.770000,386.883000,310.770000,383.660000L310.770000,377.589000C310.752885,376.470008,310.008991,375.492609,308.935000,375.178000C305.054537,374.062557,301.312228,372.513101,297.779000,370.559000C296.793330,370.006669,295.562166,370.165542,294.749000,370.950000C293.310000,372.389000,291.183000,375.678000,289.182000,374.850000C286.937000,373.918000,284.360000,370.024000,282.650000,368.313000C280.958000,366.621000,277.043000,364.007000,276.117000,361.776000C275.269000,359.732000,278.554000,357.676000,280.011000,356.214000C280.796081,355.401133,280.955010,354.169538,280.402000,353.184000C278.448390,349.650536,276.898957,345.908284,275.783000,342.028000C275.467832,340.954394,274.490770,340.210757,273.372000,340.193000C271.339000,340.193000,267.519000,341.012000,266.693000,339.012000C265.765000,336.765000,266.693000,332.188000,266.693000,329.769000C266.693000,327.377000,265.775000,322.759000,266.693000,320.527000C267.538000,318.486000,271.304000,319.348000,273.362000,319.348000C274.480992,319.330885,275.458391,318.586991,275.773000,317.513000C276.890175,313.629678,278.442345,309.884948,280.400000,306.350000C280.952168,305.364638,280.793290,304.133844,280.009000,303.321000C278.573000,301.885000,275.309000,299.777000,276.140000,297.781000C277.073000,295.535000,280.965000,292.958000,282.677000,291.248000C284.370000,289.556000,286.983000,285.640000,289.214000,284.714000C291.252000,283.869000,293.295000,287.128000,294.748000,288.581000C295.560867,289.366081,296.792462,289.525010,297.778000,288.972000C301.310862,287.018122,305.052853,285.468994,308.933000,284.354000C310.006643,284.039501,310.750450,283.062620,310.768000,281.944000C310.768000,279.915000,309.952000,276.121000,311.948000,275.296000C314.195000,274.367000,318.771000,275.296000,321.190000,275.296000C323.584000,275.296000,328.199000,274.374000,330.433000,275.296000C332.473000,276.138000,331.612000,279.887000,331.612000,281.942000C331.629248,283.061268,332.373613,284.038754,333.448000,284.353000C337.328337,285.468805,341.070606,287.018244,344.604000,288.972000C345.589670,289.524331,346.820834,289.365458,347.634000,288.581000C349.067000,287.147000,351.173000,283.888000,353.166000,284.714000C355.412000,285.645000,357.993000,289.537000,359.704000,291.247000C361.398000,292.939000,365.313000,295.547000,366.242000,297.780000C367.092000,299.821000,363.828000,301.865000,362.373000,303.321000C361.587775,304.133395,361.428813,305.364836,361.982000,306.350000C363.935288,309.883146,365.484387,313.625069,366.600000,317.505000C366.914499,318.578643,367.891380,319.322450,369.010000,319.340000C371.043000,319.340000,374.864000,318.521000,375.691000,320.520000C376.621000,322.766000,375.691000,327.344000,375.691000,329.763000C375.691000,332.155000,376.614000,336.773000,375.691000,339.005000C374.846000,341.049000,371.072000,340.185000,369.012000,340.185000C367.893008,340.202115,366.915609,340.946009,366.601000,342.020000C365.485557,345.900463,363.936101,349.642772,361.982000,353.176000C361.429669,354.161670,361.588542,355.392834,362.373000,356.206000C363.811000,357.644000,367.095000,359.769000,366.267000,361.768000C365.336000,364.014000,361.444000,366.594000,359.734000,368.305000C358.042000,369.998000,355.434000,373.915000,353.201000,374.842000C351.156000,375.693000,349.092000,372.403000,347.634000,370.942000C346.820983,370.157231,345.589604,369.998330,344.604000,370.551000C341.070739,372.505032,337.328438,374.054484,333.448000,375.170000C332.374191,375.485086,331.630211,376.462066,331.612000,377.581000C331.612000,379.262000,332.406000,383.190000,330.917000,384.281000C330.091000,384.887000,326.446000,384.281000,325.459000,384.281000C323.142000,384.281000,311.245000,385.789000,310.679000,382.981000C310.044000,379.839000,305.224000,381.173000,305.859000,384.320000Z" transform="translate(-321.195099,-329.872101)" fill="rgb(255,120,0)" stroke="none" stroke-width="1"/></g><path id="egVCyERDfoe18" d="M347.069000,329.791000C347.068448,315.500210,335.483123,303.915632,321.192333,303.916000C306.901543,303.916368,295.316816,315.501543,295.317000,329.792333C295.317184,344.083123,306.902210,355.668000,321.193000,355.668000C335.477685,355.652017,347.053569,344.075686,347.069000,329.791000ZM301.580000,329.791000C301.578382,321.857918,306.355910,314.705079,313.684658,311.668099C321.013405,308.631119,329.449962,310.308136,335.060070,315.917100C340.670179,321.526064,342.348917,329.962279,339.313432,337.291646C336.277946,344.621013,329.126082,349.400000,321.193000,349.400000C310.367625,349.387880,301.594328,340.616373,301.580000,329.791000Z" transform="matrix(1 0 0 1 -123.56500000000000 -101.51900000000001)" fill="rgb(255,120,0)" stroke="none" stroke-width="1"/><path id="egVCyERDfoe19" d="M349.569000,329.791000C349.426508,317.953850,342.070706,307.403768,331.013000,303.177000C319.749171,299.095990,307.135512,302.474884,299.420000,311.640000C282.887000,331.440000,300.527000,362.006000,325.920000,357.760000C339.644000,355.460000,349.214000,343.460000,349.572000,329.791000C349.656000,326.573000,344.656000,326.575000,344.572000,329.791000C344.238000,342.535000,334.172000,353.135000,321.196000,353.168000C308.345183,353.083949,297.971895,342.642591,297.971895,329.791500C297.971895,316.940409,308.345183,306.499051,321.196000,306.415000C334.175000,306.415000,344.239000,317.071000,344.572000,329.791000C344.653000,333,349.654000,333.015000,349.569000,329.791000Z" transform="matrix(1 0 0 1 -123.56500000000000 -101.51900000000001)" fill="rgb(255,120,0)" stroke="none" stroke-width="1"/><path id="egVCyERDfoe20" d="M304.080000,329.791000C304.408000,320.491000,311.635000,312.678000,321.193000,312.678000C330.489970,312.699040,338.068451,320.140818,338.258701,329.435866C338.448950,338.730913,331.181323,346.476559,321.893000,346.878000C312.075000,347.300000,304.418000,339.347000,304.081000,329.789000C303.968000,326.581000,298.967000,326.566000,299.081000,329.789000C299.505000,341.801000,308.851000,351.902000,321.194000,351.902000C333.406673,351.902000,343.307000,342.001673,343.307000,329.789000C343.307000,317.576327,333.406673,307.676000,321.194000,307.676000C308.848000,307.718000,299.506000,317.742000,299.081000,329.789000C298.966000,333.009000,303.967000,333.005000,304.080000,329.791000Z" transform="matrix(1 0 0 1 -123.56500000000000 -101.51900000000001)" fill="rgb(255,120,0)" stroke="none" stroke-width="1"/></g></svg>