<svg width="795" height="258" viewBox="0 0 795 258" fill="none" xmlns="http://www.w3.org/2000/svg">
    <path d="M164.08 127.743C164.331 125.401 162.847 121.634 164.62 120.023C166.156 118.634 169.864 119.61 172.62 119.595C178.042 119.595 178.042 119.595 180.007 114.306C186.256 97.5522 203.571 86.7451 220.997 88.7174C239.464 90.8005 254.238 104.754 256.609 122.35C259.468 143.484 246.511 162.653 226.249 167.263C205.624 171.961 185.694 160.526 179.15 140.071C178.411 137.796 177.436 137.117 175.183 137.264C172.147 137.456 169.096 137.264 166.053 137.346C164.575 137.397 163.94 137.043 164.036 135.41C164.176 133.046 164.08 130.646 164.08 127.743Z"
          fill="#FF7800"/>
    <path d="M110.894 146.21C115.969 146.21 121.044 146.269 126.119 146.173C127.803 146.173 128.549 146.291 128.808 148.389C129.259 152.552 131.202 156.411 134.278 159.253C137.353 162.095 141.353 163.728 145.539 163.85C147.452 163.938 147.541 164.928 147.755 166.147C152.261 188.628 156.755 211.106 161.236 233.582C162.049 237.645 162.825 241.708 163.674 245.771C164.782 251.112 161.842 255.883 156.782 256.851C152.106 257.76 147.408 254.487 146.44 249.538C141.447 224.058 136.429 198.581 131.386 173.105C130.695 169.241 129.225 165.558 127.066 162.279C124.908 159 122.105 156.194 118.828 154.032C117.21 152.932 116.368 152.488 115.629 155.103C106.765 186.621 97.79 218.112 88.7041 249.575C87.3597 254.258 83.9026 257.028 79.5665 256.962C75.6145 256.881 72.3347 254.125 71.3005 250.04C70.9828 248.692 70.9828 247.289 71.3005 245.941C78.4658 213.394 85.6065 180.847 92.7226 148.3C93.0772 146.675 93.6681 146.128 95.3745 146.173C100.553 146.261 105.724 146.21 110.894 146.21Z"
          fill="#FF7800"/>
    <path d="M155.216 118.79V145.383C155.216 151.034 151.56 155.037 146.455 155.089C141.225 155.141 137.51 151.1 137.502 145.294C137.502 130.166 137.31 115.008 137.561 99.9086C137.746 88.9907 132.302 81.914 123.334 76.7949C122.522 76.3295 122.027 76.2557 121.561 77.0978C121.517 77.179 121.458 77.2529 121.406 77.3341C120.143 79.2548 117.927 81.1532 117.883 83.1033C117.838 85.0535 120.985 85.7405 122.706 87.0184C126.511 89.8476 128.616 93.5263 128.616 98.2983C128.616 101.896 128.572 105.493 128.616 109.091C128.616 110.376 128.328 110.827 126.954 110.819C116.25 110.76 105.532 110.819 94.8502 110.819C93.9342 110.819 93.0109 111.026 93.0773 109.519C93.3728 102.132 92.479 94.7452 93.6757 87.4247C96.0395 72.9315 109.469 61.9398 124.501 62.0949C139.386 62.25 152.505 73.4117 154.64 87.8901C155.829 95.964 154.928 104.141 155.157 112.208C155.261 114.357 155.216 116.574 155.216 118.79Z"
          fill="#FF7800"/>
    <path d="M119.876 0.000127366C125.136 0.023555 130.27 1.60608 134.631 4.54758C138.991 7.48908 142.381 11.6574 144.372 16.5256C146.363 21.3937 146.866 26.7429 145.817 31.8968C144.768 37.0507 142.214 41.7778 138.478 45.4803C134.743 49.1828 129.993 51.6945 124.83 52.6976C119.667 53.7008 114.323 53.1504 109.472 51.1161C104.622 49.0818 100.484 45.6549 97.5814 41.2688C94.6788 36.8828 93.142 31.7344 93.1653 26.4749V26.3937C93.2277 19.3579 96.072 12.6328 101.077 7.68743C106.082 2.74206 112.84 -0.0216187 119.876 0.000127366V0.000127366Z"
          fill="#FF7800"/>
    <path d="M69.1065 137.345C50.6391 137.345 32.2235 137.301 13.7783 137.389C11.4866 137.509 9.227 136.81 7.40339 135.417C5.73394 134.117 3.89459 133.046 2.1365 131.864C-0.818272 129.862 -0.604051 127.351 2.1365 125.002C7.42555 120.496 13.3425 119.439 20.1828 119.491C55.4111 119.772 90.6394 119.646 125.86 119.557C128.232 119.557 128.749 120.193 128.653 122.431C128.461 126.664 128.49 130.919 128.653 135.151C128.719 137.027 128.099 137.367 126.355 137.367C107.287 137.348 88.2042 137.34 69.1065 137.345Z"
          fill="#FF7800"/>
    <path d="M48.7706 36.8387C48.8371 31.9042 50.802 28.6244 54.6802 27.1396C56.3747 26.4973 58.2275 26.4004 59.9797 26.8627C61.732 27.3249 63.296 28.3231 64.4531 29.7177C65.7251 31.084 66.4757 32.8544 66.5732 34.7186C67.0311 50.6892 75.6813 61.7031 88.2538 70.2203C90.167 71.513 90.3369 72.2591 89.1994 74.1427C86.9162 77.9408 85.4471 82.1718 84.8854 86.5676C84.6638 88.2001 84.4569 88.9018 82.6693 87.8233C65.6793 77.7845 53.9193 63.8896 49.8048 44.2404C49.236 41.7953 49.0661 39.2985 48.7706 36.8387Z"
          fill="#FF7800"/>
    <path d="M35.5847 146.21C42.3216 146.21 49.0585 146.261 55.7954 146.173C57.3614 146.173 57.7898 146.586 57.7751 148.152C57.7012 155.717 57.7012 163.283 57.7751 170.853C57.7751 172.411 57.354 172.817 55.7954 172.832C48.8443 172.906 48.8443 172.965 48.8443 166.184C48.8443 163.052 48.7778 159.912 48.8443 156.78C48.8886 155.436 48.4675 155.074 47.1453 155.089C39.4038 155.148 31.6524 155.148 23.8912 155.089C22.5615 155.089 22.1774 155.458 22.1996 156.788C22.2808 161.486 22.1996 166.199 22.2661 170.904C22.2661 172.478 21.8376 172.862 20.2864 172.877C13.3722 172.958 13.3722 173.01 13.3722 166.184C13.3722 160.186 13.4239 154.188 13.3722 148.189C13.3722 146.609 13.8006 146.202 15.3593 146.217C22.1109 146.261 28.8257 146.21 35.5847 146.21Z"
          fill="#FF7800"/>
    <path d="M230.563 141.778C227.933 141.792 225.358 141.027 223.163 139.578C220.968 138.129 219.253 136.062 218.233 133.638C217.213 131.214 216.935 128.542 217.434 125.96C217.932 123.378 219.186 121.002 221.035 119.132C222.884 117.262 225.246 115.983 227.822 115.455C230.399 114.928 233.074 115.176 235.509 116.169C237.944 117.162 240.03 118.855 241.503 121.033C242.976 123.211 243.77 125.778 243.785 128.408V128.57C243.762 132.068 242.361 135.417 239.886 137.889C237.411 140.361 234.061 141.759 230.563 141.778V141.778Z"
          fill="#FF7800"/>
    <path d="M335.594 143.125C335.594 143.938 335.427 144.688 335.094 145.375C334.76 146.042 334.281 146.615 333.656 147.094C333.031 147.573 332.26 147.948 331.344 148.219C330.448 148.49 329.417 148.625 328.25 148.625C326.938 148.625 325.729 148.479 324.625 148.188C323.542 147.896 322.615 147.438 321.844 146.812C321.052 146.188 320.438 145.385 320 144.406C319.562 143.427 319.323 142.25 319.281 140.875H310.656C310.656 143.229 311.104 145.281 312 147.031C312.917 148.781 314.156 150.302 315.719 151.594C317.365 152.906 319.292 153.906 321.5 154.594C323.729 155.26 325.979 155.594 328.25 155.594C330.562 155.594 332.698 155.323 334.656 154.781C336.615 154.219 338.302 153.396 339.719 152.312C341.135 151.25 342.24 149.948 343.031 148.406C343.844 146.844 344.25 145.062 344.25 143.062C344.25 140.75 343.719 138.708 342.656 136.938C341.594 135.167 340.167 133.615 338.375 132.281C337.188 131.469 335.885 130.75 334.469 130.125C333.052 129.5 331.562 128.969 330 128.531C328.542 128.135 327.229 127.708 326.062 127.25C324.917 126.792 323.938 126.281 323.125 125.719C322.312 125.177 321.688 124.562 321.25 123.875C320.833 123.188 320.625 122.417 320.625 121.562C320.625 120.75 320.781 120 321.094 119.312C321.427 118.604 321.906 117.99 322.531 117.469C323.156 116.969 323.917 116.583 324.812 116.312C325.729 116.021 326.771 115.875 327.938 115.875C329.208 115.875 330.312 116.052 331.25 116.406C332.208 116.74 333.01 117.208 333.656 117.812C334.281 118.438 334.75 119.177 335.062 120.031C335.396 120.885 335.583 121.823 335.625 122.844H344.188C344.188 120.802 343.792 118.927 343 117.219C342.208 115.51 341.104 114.031 339.688 112.781C338.271 111.552 336.573 110.594 334.594 109.906C332.635 109.219 330.469 108.875 328.094 108.875C325.802 108.875 323.677 109.177 321.719 109.781C319.76 110.365 318.062 111.208 316.625 112.312C315.188 113.417 314.062 114.75 313.25 116.312C312.438 117.875 312.031 119.615 312.031 121.531C312.031 123.198 312.333 124.74 312.938 126.156C313.562 127.573 314.479 128.865 315.688 130.031C316.896 131.198 318.448 132.271 320.344 133.25C322.26 134.229 324.479 135.062 327 135.75C328.625 136.188 329.979 136.667 331.062 137.188C332.167 137.688 333.062 138.24 333.75 138.844C334.417 139.469 334.885 140.135 335.156 140.844C335.448 141.552 335.594 142.312 335.594 143.125ZM353.031 121.188V128.281H362.656V147.938H353.031V155H380.594V147.938H371.438V121.188H353.031ZM362.031 112.531C362.031 113.198 362.146 113.823 362.375 114.406C362.625 114.969 362.969 115.448 363.406 115.844C363.844 116.26 364.365 116.583 364.969 116.812C365.594 117.042 366.281 117.156 367.031 117.156C368.573 117.156 369.792 116.729 370.688 115.875C371.604 115 372.062 113.885 372.062 112.531C372.062 111.177 371.604 110.073 370.688 109.219C369.792 108.344 368.573 107.906 367.031 107.906C366.281 107.906 365.594 108.021 364.969 108.25C364.365 108.479 363.844 108.792 363.406 109.188C362.969 109.604 362.625 110.104 362.375 110.688C362.146 111.25 362.031 111.865 362.031 112.531ZM388.281 137.844V138.5C388.281 140.958 388.594 143.24 389.219 145.344C389.865 147.427 390.781 149.229 391.969 150.75C393.156 152.271 394.583 153.469 396.25 154.344C397.938 155.198 399.833 155.625 401.938 155.625C403 155.625 403.99 155.51 404.906 155.281C405.844 155.052 406.698 154.729 407.469 154.312C407.99 154.021 408.479 153.688 408.938 153.312C409.396 152.938 409.833 152.521 410.25 152.062V154C410.25 155.146 410.083 156.177 409.75 157.094C409.438 158.01 408.979 158.781 408.375 159.406C407.708 160.094 406.875 160.615 405.875 160.969C404.896 161.323 403.771 161.5 402.5 161.5C401.708 161.5 400.938 161.417 400.188 161.25C399.458 161.104 398.75 160.875 398.062 160.562C397.354 160.25 396.677 159.844 396.031 159.344C395.385 158.865 394.781 158.302 394.219 157.656L390.312 162.938C391.042 163.875 391.917 164.677 392.938 165.344C393.958 166.031 395.042 166.594 396.188 167.031C397.333 167.469 398.49 167.792 399.656 168C400.823 168.208 401.917 168.312 402.938 168.312C405.312 168.312 407.479 167.99 409.438 167.344C411.417 166.719 413.115 165.792 414.531 164.562C415.927 163.333 417.01 161.823 417.781 160.031C418.573 158.24 418.969 156.198 418.969 153.906V121.188H411.062L410.719 124.406C410.302 123.885 409.844 123.417 409.344 123C408.844 122.562 408.302 122.188 407.719 121.875C406.948 121.438 406.083 121.115 405.125 120.906C404.188 120.677 403.146 120.562 402 120.562C399.875 120.562 397.969 120.979 396.281 121.812C394.594 122.646 393.156 123.823 391.969 125.344C390.781 126.865 389.865 128.688 389.219 130.812C388.594 132.938 388.281 135.281 388.281 137.844ZM397 138.5V137.844C397 136.427 397.146 135.104 397.438 133.875C397.729 132.625 398.177 131.531 398.781 130.594C399.365 129.677 400.104 128.958 401 128.438C401.896 127.896 402.958 127.625 404.188 127.625C404.854 127.625 405.469 127.688 406.031 127.812C406.615 127.938 407.146 128.115 407.625 128.344C408.188 128.615 408.688 128.969 409.125 129.406C409.562 129.844 409.938 130.354 410.25 130.938V145.25C409.958 145.771 409.615 146.24 409.219 146.656C408.823 147.073 408.365 147.427 407.844 147.719C407.344 147.99 406.781 148.198 406.156 148.344C405.552 148.49 404.875 148.562 404.125 148.562C402.896 148.562 401.833 148.302 400.938 147.781C400.042 147.26 399.302 146.542 398.719 145.625C398.135 144.729 397.698 143.677 397.406 142.469C397.135 141.24 397 139.917 397 138.5ZM427.594 155H436.312V130.969C436.604 130.51 436.927 130.094 437.281 129.719C437.635 129.344 438.031 129.021 438.469 128.75C439.01 128.375 439.625 128.094 440.312 127.906C441.021 127.719 441.792 127.625 442.625 127.625C443.625 127.625 444.521 127.729 445.312 127.938C446.104 128.125 446.781 128.469 447.344 128.969C447.906 129.469 448.333 130.156 448.625 131.031C448.938 131.885 449.094 132.979 449.094 134.312V155H457.781V134.188C457.781 131.729 457.49 129.646 456.906 127.938C456.344 126.208 455.552 124.792 454.531 123.688C453.49 122.604 452.26 121.812 450.844 121.312C449.427 120.812 447.865 120.562 446.156 120.562C444.823 120.562 443.562 120.75 442.375 121.125C441.188 121.5 440.094 122.042 439.094 122.75C438.51 123.167 437.958 123.635 437.438 124.156C436.917 124.677 436.438 125.25 436 125.875L435.469 121.188H427.594V155ZM526.531 155H534.406V121.188H525.688V144.906C525.417 145.448 525.094 145.938 524.719 146.375C524.344 146.812 523.917 147.188 523.438 147.5C522.875 147.854 522.219 148.125 521.469 148.312C520.74 148.5 519.917 148.594 519 148.594C517.979 148.594 517.115 148.469 516.406 148.219C515.698 147.969 515.125 147.552 514.688 146.969C514.25 146.406 513.927 145.656 513.719 144.719C513.531 143.781 513.438 142.625 513.438 141.25V121.188H504.75V141.188C504.75 143.75 505.031 145.948 505.594 147.781C506.177 149.594 506.99 151.083 508.031 152.25C509.073 153.438 510.323 154.302 511.781 154.844C513.24 155.385 514.844 155.656 516.594 155.656C518.51 155.656 520.271 155.177 521.875 154.219C523.5 153.26 524.885 151.938 526.031 150.25L526.531 155ZM543.031 168H551.719V152.062C552.115 152.5 552.531 152.896 552.969 153.25C553.406 153.604 553.865 153.927 554.344 154.219C555.156 154.677 556.031 155.021 556.969 155.25C557.927 155.5 558.969 155.625 560.094 155.625C562.219 155.625 564.104 155.188 565.75 154.312C567.396 153.438 568.781 152.229 569.906 150.688C571.01 149.167 571.844 147.354 572.406 145.25C572.99 143.146 573.281 140.865 573.281 138.406V137.75C573.281 135.188 572.99 132.854 572.406 130.75C571.844 128.625 571 126.802 569.875 125.281C568.75 123.781 567.365 122.625 565.719 121.812C564.073 120.979 562.177 120.562 560.031 120.562C558.99 120.562 558.01 120.677 557.094 120.906C556.198 121.115 555.375 121.417 554.625 121.812C554 122.146 553.417 122.542 552.875 123C552.333 123.438 551.833 123.938 551.375 124.5L551.062 121.188H543.031V168ZM564.594 137.75V138.406C564.594 139.802 564.469 141.125 564.219 142.375C563.969 143.604 563.573 144.688 563.031 145.625C562.49 146.562 561.781 147.302 560.906 147.844C560.052 148.385 559.01 148.656 557.781 148.656C557.01 148.656 556.312 148.583 555.688 148.438C555.062 148.271 554.51 148.042 554.031 147.75C553.531 147.438 553.083 147.062 552.688 146.625C552.312 146.188 551.99 145.698 551.719 145.156V131.031C552.01 130.448 552.354 129.938 552.75 129.5C553.167 129.062 553.646 128.698 554.188 128.406C554.667 128.156 555.198 127.969 555.781 127.844C556.365 127.698 557.01 127.625 557.719 127.625C558.948 127.625 559.99 127.885 560.844 128.406C561.719 128.927 562.438 129.635 563 130.531C563.542 131.448 563.938 132.531 564.188 133.781C564.458 135.01 564.594 136.333 564.594 137.75ZM619.781 155H628.5V130.969C628.792 130.51 629.115 130.094 629.469 129.719C629.823 129.344 630.219 129.021 630.656 128.75C631.198 128.375 631.812 128.094 632.5 127.906C633.208 127.719 633.979 127.625 634.812 127.625C635.812 127.625 636.708 127.729 637.5 127.938C638.292 128.125 638.969 128.469 639.531 128.969C640.094 129.469 640.521 130.156 640.812 131.031C641.125 131.885 641.281 132.979 641.281 134.312V155H649.969V134.188C649.969 131.729 649.677 129.646 649.094 127.938C648.531 126.208 647.74 124.792 646.719 123.688C645.677 122.604 644.448 121.812 643.031 121.312C641.615 120.812 640.052 120.562 638.344 120.562C637.01 120.562 635.75 120.75 634.562 121.125C633.375 121.5 632.281 122.042 631.281 122.75C630.698 123.167 630.146 123.635 629.625 124.156C629.104 124.677 628.625 125.25 628.188 125.875L627.656 121.188H619.781V155ZM657.031 137.781V138.438C657.031 140.917 657.385 143.208 658.094 145.312C658.802 147.396 659.844 149.208 661.219 150.75C662.573 152.292 664.24 153.5 666.219 154.375C668.219 155.229 670.49 155.656 673.031 155.656C675.552 155.656 677.802 155.229 679.781 154.375C681.76 153.5 683.427 152.292 684.781 150.75C686.135 149.208 687.167 147.396 687.875 145.312C688.583 143.208 688.938 140.917 688.938 138.438V137.781C688.938 135.323 688.583 133.052 687.875 130.969C687.167 128.865 686.135 127.042 684.781 125.5C683.406 123.958 681.729 122.75 679.75 121.875C677.771 121 675.51 120.562 672.969 120.562C670.427 120.562 668.167 121 666.188 121.875C664.229 122.75 662.573 123.958 661.219 125.5C659.844 127.042 658.802 128.865 658.094 130.969C657.385 133.052 657.031 135.323 657.031 137.781ZM665.719 138.438V137.781C665.719 136.406 665.854 135.104 666.125 133.875C666.396 132.646 666.823 131.562 667.406 130.625C667.99 129.688 668.74 128.948 669.656 128.406C670.573 127.865 671.677 127.594 672.969 127.594C674.281 127.594 675.396 127.865 676.312 128.406C677.229 128.948 677.979 129.688 678.562 130.625C679.125 131.562 679.542 132.646 679.812 133.875C680.083 135.104 680.219 136.406 680.219 137.781V138.438C680.219 139.854 680.083 141.188 679.812 142.438C679.542 143.667 679.125 144.74 678.562 145.656C677.979 146.594 677.229 147.333 676.312 147.875C675.396 148.417 674.302 148.688 673.031 148.688C671.719 148.688 670.594 148.417 669.656 147.875C668.74 147.333 667.99 146.594 667.406 145.656C666.823 144.74 666.396 143.667 666.125 142.438C665.854 141.188 665.719 139.854 665.719 138.438ZM699.156 155H706.781L710.375 136.938L711.062 133.5L711.781 136.938L715.5 155H723.125L729.188 121.188H721.219L718.719 141.125L718.281 144.406L717.688 141.188L714.031 121.188H708.219L704.562 141.281L703.969 144.5L703.562 141.281L701.031 121.188H693.094L699.156 155ZM753.844 139.094L754.344 109.5H745.438L745.938 139.094H753.844ZM744.812 150.75C744.812 152.083 745.26 153.208 746.156 154.125C747.052 155.021 748.292 155.469 749.875 155.469C751.417 155.469 752.646 155.021 753.562 154.125C754.479 153.208 754.938 152.083 754.938 150.75C754.938 149.375 754.479 148.229 753.562 147.312C752.646 146.396 751.417 145.938 749.875 145.938C748.292 145.938 747.052 146.396 746.156 147.312C745.26 148.229 744.812 149.375 744.812 150.75Z"
          fill="#FF7800"/>
</svg>
