<svg width="72" height="60" viewBox="0 0 72 60" fill="none" xmlns="http://www.w3.org/2000/svg">
    <path d="M17.1805 46.1731C14.471 46.2847 11.8134 46.0846 9.26561 45.0281C3.28282 42.5438 -0.610136 36.1531 0.0787802 29.8874C0.836973 22.9828 5.68248 17.6351 12.2657 16.4323C13.7416 16.1629 15.2234 16.0475 16.709 16.2899C17.2863 16.3862 17.5095 16.2649 17.6115 15.6318C18.5737 9.79912 21.6199 5.35965 26.731 2.42117C37.8325 -3.96188 52.0939 2.91766 53.999 15.5471C54.099 16.2168 54.2953 16.3765 54.9746 16.288C62.4892 15.3028 69.8768 20.6967 71.2931 28.167C72.9038 36.6611 67.5002 44.4893 58.9773 45.9845C57.1434 46.3059 55.2844 46.1462 53.4351 46.177C52.7635 46.1866 52.0881 46.2116 51.4184 46.1674C50.9123 46.1327 50.7218 46.2616 50.666 46.8082C50.0021 53.5126 44.4234 59.1374 37.7132 59.8937C29.5117 60.827 22.4301 55.5274 20.9945 47.3855C20.7809 46.1731 20.7809 46.1731 19.5532 46.1731H17.1805ZM43.9289 35.3083C40.8846 32.7547 37.3861 31.8194 33.5047 32.5622C27.6778 33.6822 23.6328 38.2102 23.169 44.1295C23.0188 45.7502 23.2024 47.3845 23.7085 48.9315C24.2145 50.4784 25.0323 51.9053 26.1113 53.1239C26.1828 53.2474 26.2638 53.3652 26.3538 53.476C29.3539 56.6396 33.0082 58.1368 37.363 57.5826C44.8545 56.6204 49.8039 49.662 48.2144 42.3494C47.5928 39.5264 46.2188 37.1248 43.9192 35.3083H43.9289ZM5.2495 39.2436C6.93138 41.3603 9.12513 42.7208 11.7153 43.4213C14.6134 44.2064 17.5846 43.7523 20.523 43.8658C20.854 43.8793 20.9272 43.6734 20.9425 43.4155C21.033 41.9627 21.4929 40.6021 21.9625 39.2455C23.5751 35.6739 26.0863 32.9779 29.681 31.3557C29.8051 31.3155 29.9113 31.2335 29.9816 31.1236C30.0518 31.0137 30.0816 30.8828 30.0659 30.7533C30.0524 29.5044 30.0505 28.2517 30.0659 27.0066C30.0659 26.6641 29.9639 26.5486 29.6156 26.5563C28.6803 26.5756 27.7413 26.5833 26.806 26.5563C26.4366 26.5429 26.3269 26.7488 26.1806 27.0047C25.3532 28.5038 23.8156 29.1715 22.2261 28.7366C21.4901 28.5413 20.8394 28.1083 20.3751 27.5048C19.9109 26.9013 19.6592 26.1612 19.6592 25.3998C19.6592 24.6384 19.9109 23.8983 20.3751 23.2948C20.8394 22.6913 21.4901 22.2583 22.2261 22.063C23.8194 21.6435 25.3608 22.3055 26.1671 23.8199C26.3596 24.1855 26.5847 24.2587 26.9504 24.2529C28.2705 24.2375 29.5925 24.2529 30.9126 24.2529C31.9517 24.2529 32.352 24.6551 32.3578 25.6885C32.3578 27.0996 32.3578 28.5166 32.3578 29.9393C32.3578 30.2799 32.3693 30.4782 32.8196 30.3473C33.2617 30.2416 33.7127 30.1771 34.1667 30.1549C34.5015 30.1221 34.6766 30.0279 34.6747 29.6353C34.6593 26.7488 34.6747 23.8622 34.6747 20.9873C34.6747 20.7698 34.6747 20.5774 34.4053 20.4735C33.878 20.281 33.4989 19.8615 33.0871 19.4978C32.5329 18.6223 32.2192 17.7005 32.4309 16.6402C32.86 14.483 35.4002 12.9493 37.8518 14.4791C39.9878 16.4304 39.7607 19.0148 37.3033 20.4446C36.9647 20.637 36.9839 20.8699 36.9839 21.147C36.9839 23.5037 36.9839 25.8604 36.9839 28.217C36.9839 28.8155 36.7915 29.5641 37.084 29.974C37.3765 30.3839 38.2097 30.1664 38.7774 30.3473C39.1892 30.482 39.3047 30.3742 39.297 29.9393C39.2739 28.5211 39.2835 27.1028 39.297 25.6827C39.297 24.6859 39.7049 24.2779 40.6902 24.2721C42.0372 24.2721 43.3843 24.2548 44.7313 24.2721C44.893 24.2922 45.0568 24.2574 45.1964 24.1733C45.336 24.0892 45.4432 23.9607 45.5011 23.8084C45.7569 23.2748 46.1521 22.8202 46.6449 22.4926C47.1378 22.1651 47.7099 21.9767 48.301 21.9475C49.1198 21.9028 49.928 22.1501 50.5816 22.6454C51.2353 23.1407 51.692 23.8518 51.8705 24.6522C52.049 25.4526 51.9377 26.2904 51.5565 27.0165C51.1752 27.7426 50.5488 28.3098 49.7885 28.6173C49.0115 28.9311 48.146 28.9475 47.3576 28.6635C46.5692 28.3795 45.913 27.815 45.5145 27.0778C45.3029 26.693 45.0989 26.5198 44.6467 26.5448C43.8307 26.5871 43.011 26.5775 42.195 26.5448C41.7524 26.5275 41.5523 26.616 41.5754 27.1221C41.6381 28.0832 41.6381 29.0475 41.5754 30.0086C41.4984 30.8765 41.7313 31.4038 42.6068 31.6578C43.011 31.7752 43.3766 32.0619 43.7345 32.289C46.4555 33.9766 48.3799 36.3493 49.6865 39.2474C50.1541 40.6079 50.6179 41.9703 50.7026 43.4232C50.7237 43.8216 50.947 43.8774 51.2799 43.8716C52.1208 43.8562 52.9637 43.8716 53.8046 43.8716C55.4596 43.8504 57.1241 43.9928 58.7675 43.6926C65.9838 42.3764 70.5638 35.5373 68.9666 28.3729C68.3508 25.6019 66.9614 23.2503 64.6983 21.4684C63.2993 20.1983 61.6444 19.4093 59.8394 18.9244C57.8123 18.3741 55.6786 18.3489 53.6391 18.8512C52.5923 19.1033 52.0515 18.7165 51.9457 17.6966C51.8783 17.052 51.8148 16.4054 51.709 15.7723C49.9983 5.38082 38.7832 -0.652007 29.2249 3.76052C23.4096 6.44306 20.3017 11.1231 19.7013 17.4869C19.5782 18.8031 19.151 19.0783 17.854 18.8339C12.5081 17.7678 8.08214 19.3381 4.78188 23.6525C1.24878 28.2632 1.51434 35.1813 5.23411 39.2436H5.2495ZM36.9589 17.3195C36.9589 17.0905 36.8907 16.8666 36.7632 16.6764C36.6356 16.4862 36.4544 16.3383 36.2425 16.2514C36.0306 16.1644 35.7977 16.1425 35.5733 16.1883C35.3489 16.2341 35.1432 16.3456 34.9824 16.5086C34.8215 16.6717 34.7128 16.8788 34.67 17.1038C34.6272 17.3288 34.6523 17.5614 34.742 17.7721C34.8318 17.9828 34.9822 18.162 35.1741 18.287C35.366 18.412 35.5907 18.4771 35.8197 18.4741C36.1232 18.47 36.413 18.3466 36.6262 18.1305C36.8394 17.9144 36.9589 17.623 36.9589 17.3195V17.3195ZM23.1421 24.2471C22.9124 24.2402 22.6858 24.302 22.4915 24.4246C22.2971 24.5472 22.1437 24.7251 22.051 24.9353C21.9583 25.1456 21.9304 25.3788 21.971 25.605C22.0115 25.8312 22.1187 26.0402 22.2787 26.2051C22.4387 26.3701 22.6443 26.4835 22.8691 26.531C23.094 26.5784 23.3279 26.5576 23.5409 26.4714C23.7539 26.3851 23.9363 26.2372 24.0648 26.0466C24.1933 25.8561 24.2619 25.6315 24.262 25.4017C24.2622 25.1014 24.1453 24.8129 23.9362 24.5973C23.7271 24.3817 23.4423 24.2561 23.1421 24.2471ZM49.648 25.3729C49.6441 25.1436 49.5719 24.9207 49.4408 24.7326C49.3096 24.5445 49.1255 24.3997 48.9117 24.3166C48.698 24.2336 48.4644 24.2161 48.2406 24.2663C48.0169 24.3166 47.8132 24.4323 47.6555 24.5987C47.4978 24.7652 47.3932 24.9748 47.3551 25.2009C47.3169 25.427 47.347 25.6594 47.4414 25.8683C47.5359 26.0773 47.6904 26.2534 47.8853 26.3742C48.0802 26.495 48.3066 26.5551 48.5358 26.5467C48.8379 26.5357 49.1237 26.4065 49.3317 26.187C49.5397 25.9675 49.6533 25.6752 49.648 25.3729Z"
          fill="white"/>
    <path d="M43.7845 40.6829C44.4309 41.7389 44.8479 42.9191 45.0084 44.1468C45.1239 44.9781 45.1027 45.0089 44.2387 45.0223C44.1194 45.0223 44.002 45.0377 43.8827 45.0454C42.8223 44.9916 42.8223 44.9916 42.6107 43.9274C42.3642 42.6295 41.6779 41.4563 40.6673 40.6056C39.6567 39.7548 38.3836 39.2785 37.0628 39.257C36.4855 39.2455 35.9082 39.257 35.1557 39.257C35.6157 39.7246 35.9659 40.0941 36.3315 40.4501C36.8376 40.9447 36.2603 41.1871 36.0332 41.3161C35.5829 41.5662 35.4463 42.6766 34.7189 42.0685C33.5797 41.1063 32.5752 39.9998 31.5418 38.926C31.0338 38.3987 31.0434 37.7714 31.5745 37.2595C32.6252 36.2377 33.7183 35.2601 34.7805 34.2479C35.0345 34.0074 35.1846 34.0439 35.4309 34.2672C36.6606 35.3794 36.6664 35.3717 35.5117 36.5764C35.4328 36.6572 35.3636 36.7457 35.1654 36.9766C38.8005 36.6688 41.7582 37.654 43.7845 40.6829Z"
          fill="white"/>
</svg>
