{
    "asset" : {
        "generator" : "Khronos glTF Blender I/O v1.6.16",
        "version" : "2.0"
    },
    "scene" : 0,
    "scenes" : [
        {
            "name" : "Scene",
            "nodes" : [
                0
            ]
        }
    ],
    "nodes" : [
        {
            "mesh" : 0,
            "name" : "Sphere.001",
            "rotation" : [
                0.0025062700733542442,
                -0.000569541472941637,
                -0.00010173514601774514,
                0.9999967813491821
            ],
            "scale" : [
                0.3922802805900574,
                0.3922802805900574,
                0.3922800123691559
            ],
            "translation" : [
                -1.2573593854904175,
                -0.020058907568454742,
                -0.03931782767176628
            ]
        }
    ],
    "materials" : [
        {
            "doubleSided" : true,
            "name" : "Material",
            "pbrMetallicRoughness" : {
                "baseColorFactor" : [
                    0.3857143521308899,
                    0.3857143521308899,
                    0.3857143521308899,
                    1
                ],
                "metallicFactor" : 0,
                "roughnessFactor" : 0.5
            }
        }
    ],
    "meshes" : [
        {
            "name" : "Sphere.001",
            "primitives" : [
                {
                    "attributes" : {
                        "POSITION" : 0,
                        "NORMAL" : 1,
                        "TEXCOORD_0" : 2
                    },
                    "indices" : 3,
                    "material" : 0
                }
            ]
        }
    ],
    "accessors" : [
        {
            "bufferView" : 0,
            "componentType" : 5126,
            "count" : 17098,
            "max" : [
                5.890607833862305,
                1.0088552236557007,
                3.590989828109741
            ],
            "min" : [
                -0.9999977946281433,
                -1,
                -2.4305570125579834
            ],
            "type" : "VEC3"
        },
        {
            "bufferView" : 1,
            "componentType" : 5126,
            "count" : 17098,
            "type" : "VEC3"
        },
        {
            "bufferView" : 2,
            "componentType" : 5126,
            "count" : 17098,
            "type" : "VEC2"
        },
        {
            "bufferView" : 3,
            "componentType" : 5123,
            "count" : 97332,
            "type" : "SCALAR"
        }
    ],
    "bufferViews" : [
        {
            "buffer" : 0,
            "byteLength" : 205176,
            "byteOffset" : 0
        },
        {
            "buffer" : 0,
            "byteLength" : 205176,
            "byteOffset" : 205176
        },
        {
            "buffer" : 0,
            "byteLength" : 136784,
            "byteOffset" : 410352
        },
        {
            "buffer" : 0,
            "byteLength" : 194664,
            "byteOffset" : 547136
        }
    ],
    "buffers" : [
        {
            "byteLength" : 741800,
            "uri" : "data:application/octet-stream;base64,"
        }
    ]
}
